<svg xmlns="http://www.w3.org/2000/svg" viewBox="0 0 1280 434.26"><defs><style>.cls-1{fill:#414142;}.cls-2,.cls-6{fill:#fff;}.cls-3{fill:#bf3432;}.cls-4{fill:#2d2e2d;}.cls-5{fill:#393836;stroke:#fff;stroke-width:2.06px;}.cls-5,.cls-6{stroke-miterlimit:10;}.cls-6{stroke:#393836;stroke-width:0.87px;}.cls-7{fill:#808285;}</style></defs><title>Fichier 4</title><g id="Calque_2" data-name="Calque 2"><g id="Calque_1-2" data-name="Calque 1"><rect class="cls-1" width="640" height="434.26"/><rect class="cls-2" x="640" width="640" height="433.77"/><path class="cls-2" d="M223.11,210.2h8.52v-8.3h-8.52Zm0,10.27h8.52v-8.3h-8.52Zm0,10.27h8.52v-8.3h-8.52Zm0,10.27h8.52v-8.3h-8.52Zm0,10.27h8.52V243h-8.52Zm0,10.27h8.52v-8.3h-8.52Zm0,10.27h8.52v-8.3h-8.52Zm86.76-154.29h8.3v-8.3h-8.3Zm0,10.27h8.3v-8.3h-8.3Zm0,10.27h8.3v-8.3h-8.3Zm0,10.27h8.3V140h-8.3Zm-10.93,10.49h8.52v-8.52h-8.52Zm10.93,0h8.3v-8.52h-8.3Zm10.93,0h8.3v-8.52h-8.3ZM234,169.11h8.3v-8.52H234Zm64.91,0h8.52v-8.52h-8.52Zm10.93,0h8.3v-8.52h-8.3Zm10.93,0h8.3v-8.52h-8.3Zm64.91,0H394v-8.52h-8.3ZM234,179.39h8.3v-8.52H234Zm54.2,0h8.3v-8.52h-8.3Zm10.71,0h8.52v-8.52h-8.52Zm10.93,0h8.3v-8.52h-8.3Zm10.93,0h8.3v-8.52h-8.3Zm10.71,0h8.3v-8.52h-8.3Zm54.2,0H394v-8.52h-8.3ZM234,189.66h8.3v-8.52H234Zm54.2,0h8.3v-8.52h-8.3Zm10.71,0h8.52v-8.52h-8.52Zm10.93,0h8.3v-8.52h-8.3Zm10.93,0h8.3v-8.52h-8.3Zm10.71,0h8.3v-8.52h-8.3Zm54.2,0H394v-8.52h-8.3ZM234,199.93h8.3v-8.3H234Zm43.27,0h8.52v-8.3h-8.52Zm21.64,0h8.52v-8.3h-8.52Zm10.93,0h8.3v-8.3h-8.3Zm10.93,0h8.3v-8.3h-8.3Zm21.64,0h8.3v-8.3h-8.3Zm43.27,0H394v-8.3h-8.3ZM234,210.2h8.3v-8.3H234Zm10.93,0h8.3v-8.3H245Zm21.64,0h8.3v-8.3h-8.3Zm10.71,0h8.52v-8.3h-8.52Zm10.93,0h8.3v-8.3h-8.3Zm21.64,0h8.3v-8.3h-8.3Zm21.64,0h8.3v-8.3h-8.3Zm10.93,0h8.3v-8.3h-8.3Zm10.71,0h8.3v-8.3h-8.3Zm21.64,0h8.52v-8.3h-8.52Zm10.93,0H394v-8.3h-8.3Zm10.71,0h8.52v-8.3h-8.52ZM234,220.47h8.3v-8.3H234Zm10.93,0h8.3v-8.3H245Zm10.71,0H264v-8.3h-8.3Zm10.93,0h8.3v-8.3h-8.3Zm10.71,0h8.52v-8.3h-8.52Zm10.93,0h8.3v-8.3h-8.3Zm10.71,0h8.52v-8.3h-8.52Zm21.85,0h8.3v-8.3h-8.3Zm10.71,0h8.3v-8.3h-8.3Zm10.93,0h8.3v-8.3h-8.3Zm10.71,0h8.3v-8.3h-8.3Zm10.93,0h8.3v-8.3h-8.3Zm10.71,0h8.52v-8.3h-8.52Zm10.93,0H394v-8.3h-8.3Zm10.71,0h8.52v-8.3h-8.52ZM234,230.74h8.3v-8.3H234Zm10.93,0h8.3v-8.3H245Zm10.71,0H264v-8.3h-8.3Zm10.93,0h8.3v-8.3h-8.3Zm10.71,0h8.52v-8.3h-8.52Zm10.93,0h8.3v-8.3h-8.3Zm10.71,0h8.52v-8.3h-8.52Zm21.85,0h8.3v-8.3h-8.3Zm10.71,0h8.3v-8.3h-8.3Zm10.93,0h8.3v-8.3h-8.3Zm10.71,0h8.3v-8.3h-8.3Zm10.93,0h8.3v-8.3h-8.3Zm10.71,0h8.52v-8.3h-8.52Zm10.93,0H394v-8.3h-8.3Zm10.71,0h8.52v-8.3h-8.52ZM234,241h8.3v-8.3H234ZM245,241h8.3v-8.3H245Zm10.71,0H264v-8.3h-8.3Zm10.93,0h8.3v-8.3h-8.3Zm10.71,0h8.52v-8.3h-8.52Zm21.64,0h8.52v-8.3h-8.52Zm10.93,0h8.3v-8.3h-8.3Zm10.93,0h8.3v-8.3h-8.3Zm21.64,0h8.3v-8.3h-8.3Zm10.71,0h8.3v-8.3h-8.3Zm10.93,0h8.3v-8.3h-8.3Zm10.71,0h8.52v-8.3h-8.52Zm10.93,0H394v-8.3h-8.3Zm10.71,0h8.52v-8.3h-8.52ZM234,251.29h8.3V243H234Zm10.93,0h8.3V243H245Zm21.64,0h8.3V243h-8.3Zm10.71,0h8.52V243h-8.52Zm21.64,0h8.52V243h-8.52Zm10.93,0h8.3V243h-8.3Zm10.93,0h8.3V243h-8.3Zm21.64,0h8.3V243h-8.3Zm10.71,0h8.3V243h-8.3Zm21.64,0h8.52V243h-8.52Zm10.93,0H394V243h-8.3Zm10.71,0h8.52V243h-8.52ZM245,261.56h8.3v-8.3H245Zm32.34,0h8.52v-8.3h-8.52Zm10.93,0h8.3v-8.3h-8.3Zm10.71,0h8.52v-8.3h-8.52Zm10.93,0h8.3v-8.3h-8.3Zm10.93,0h8.3v-8.3h-8.3Zm10.71,0h8.3v-8.3h-8.3Zm10.93,0h8.3v-8.3h-8.3Zm32.34,0h8.52v-8.3h-8.52Zm21.64,0h8.52v-8.3h-8.52ZM234,271.83h8.3v-8.3H234Zm10.93,0h8.3v-8.3H245Zm32.34,0h8.52v-8.3h-8.52Zm10.93,0h8.3v-8.3h-8.3Zm10.71,0h8.52v-8.3h-8.52Zm10.93,0h8.3v-8.3h-8.3Zm10.93,0h8.3v-8.3h-8.3Zm10.71,0h8.3v-8.3h-8.3Zm10.93,0h8.3v-8.3h-8.3Zm32.34,0h8.52v-8.3h-8.52Zm10.93,0H394v-8.3h-8.3Zm10.71,0h8.52v-8.3h-8.52ZM234,282.1h8.3v-8.3H234Zm54.2,0h8.3v-8.3h-8.3Zm21.64,0h8.3v-8.3h-8.3Zm21.64,0h8.3v-8.3h-8.3Zm54.2,0H394v-8.3h-8.3Zm-150.14,90h5.24v-8.52h-5.24Zm151.67,0h5.24v-8.52h-5.24ZM235.57,351.6h5.24v-8.3h-5.24Zm151.67,0h5.24v-8.3h-5.24ZM311.4,372.14h5.24v-8.3H311.4Zm-75.83-41.09h5.24v-8.3h-5.24Zm151.67,0h5.24v-8.3h-5.24ZM311.4,351.81h5.24v-8.3H311.4ZM234,292.37h8.3v-8.3H234Zm54.2,0h8.3v-8.3h-8.3Zm10.71,0h8.52v-8.3h-8.52Zm10.93,0h8.3v-8.3h-8.3Zm10.93,0h8.3v-8.3h-8.3Zm10.71,0h8.3v-8.3h-8.3Zm54.2,0H394v-8.3h-8.3Zm-86.76,10.49h8.52v-8.52h-8.52Zm10.93,0h8.3v-8.52h-8.3Zm10.93,0h8.3v-8.52h-8.3Zm-10.93,10.27h8.3v-8.52h-8.3Zm0,10.27h8.3v-8.52h-8.3Z"/><path class="cls-1" d="M710,51.71a11,11,0,0,1-3.13,2.43,9.76,9.76,0,0,1-4.48.9A9.43,9.43,0,0,1,694.8,52a11.07,11.07,0,0,1-2.65-7.49A10.88,10.88,0,0,1,694.8,37q2.65-3,7.55-3a11,11,0,0,1,4.2.8,8,8,0,0,1,3.22,2.3l-3.25,3.18a5.67,5.67,0,0,0-4.13-2,4.72,4.72,0,0,0-3.95,1.77,7.63,7.63,0,0,0,0,8.76,4.65,4.65,0,0,0,3.93,1.79,4.55,4.55,0,0,0,1.88-.4,5.83,5.83,0,0,0,1.22-.68q.33-.27,1-.93Z"/><path class="cls-1" d="M733.3,52a10.59,10.59,0,0,1-14.88,0,11.15,11.15,0,0,1-2.61-7.51A11,11,0,0,1,718.42,37q2.61-3,7.48-3a9.21,9.21,0,0,1,7.4,3.05,11.1,11.1,0,0,1,2.61,7.48A11,11,0,0,1,733.3,52ZM729.66,40.1a4.37,4.37,0,0,0-3.73-1.77,4.52,4.52,0,0,0-3.88,1.77,7.19,7.19,0,0,0-1.32,4.41,7.15,7.15,0,0,0,1.32,4.35,4.47,4.47,0,0,0,3.84,1.79,4.37,4.37,0,0,0,3.77-1.81A7.29,7.29,0,0,0,731,44.43,7.06,7.06,0,0,0,729.66,40.1Z"/><path class="cls-1" d="M767.67,36.19a7,7,0,0,1,2.69,5.69V54.74h-4.72V43.12a4.6,4.6,0,0,0-1.17-3.29,4.07,4.07,0,0,0-3.11-1.24,7.2,7.2,0,0,0-2.89.58,9.66,9.66,0,0,1,.69,3.58v12h-4.72V43.12a4.61,4.61,0,0,0-1.17-3.29,4.07,4.07,0,0,0-3.11-1.24,6,6,0,0,0-2.23.4V54.74h-4.72V36q.37-.15,1.19-.53t1.28-.57q.46-.18,1.22-.42a8.56,8.56,0,0,1,1.63-.33,17.87,17.87,0,0,1,1.88-.09,8.9,8.9,0,0,1,4.79,1.32,15.24,15.24,0,0,1,6.4-1.32A9.37,9.37,0,0,1,767.67,36.19Z"/><path class="cls-1" d="M802.47,36.19a7,7,0,0,1,2.69,5.69V54.74h-4.72V43.12a4.6,4.6,0,0,0-1.17-3.29,4.07,4.07,0,0,0-3.11-1.24,7.2,7.2,0,0,0-2.89.58,9.66,9.66,0,0,1,.69,3.58v12h-4.72V43.12a4.61,4.61,0,0,0-1.17-3.29A4.07,4.07,0,0,0,785,38.58a6,6,0,0,0-2.23.4V54.74H778V36q.37-.15,1.19-.53t1.28-.57q.46-.18,1.22-.42a8.56,8.56,0,0,1,1.63-.33,17.87,17.87,0,0,1,1.88-.09A8.9,8.9,0,0,1,790,35.33a15.24,15.24,0,0,1,6.4-1.32A9.37,9.37,0,0,1,802.47,36.19Z"/><path class="cls-1" d="M830.24,53.06a23.47,23.47,0,0,1-8.7,1.94,9.73,9.73,0,0,1-6.14-2.18,6.88,6.88,0,0,1-2.78-5.69V34.6l4.72-.33V45.9a4.3,4.3,0,0,0,4.5,4.53,14,14,0,0,0,3.69-.62V34.6l4.72-.33Z"/><path class="cls-1" d="M852.74,36.19a6.87,6.87,0,0,1,2.8,5.69V54.74h-4.72V43.12a4.3,4.3,0,0,0-4.5-4.53,13.7,13.7,0,0,0-3.69.62V54.74h-4.72V36A23.4,23.4,0,0,1,846.58,34,9.81,9.81,0,0,1,852.74,36.19Z"/><path class="cls-1" d="M865.85,31.78a2.73,2.73,0,0,1-.8-2,2.71,2.71,0,0,1,5.41,0,2.73,2.73,0,0,1-.8,2,2.65,2.65,0,0,1-3.8,0Zm4.24,23h-4.72V34.27h4.72Z"/><path class="cls-1" d="M894.8,51.71a11,11,0,0,1-3.13,2.43,9.76,9.76,0,0,1-4.48.9A9.43,9.43,0,0,1,879.65,52,11.07,11.07,0,0,1,877,44.47,10.88,10.88,0,0,1,879.65,37q2.65-3,7.55-3a11,11,0,0,1,4.2.8,8,8,0,0,1,3.22,2.3l-3.25,3.18a5.67,5.67,0,0,0-4.13-2,4.72,4.72,0,0,0-3.95,1.77,7.63,7.63,0,0,0,0,8.76,4.65,4.65,0,0,0,3.93,1.79,4.55,4.55,0,0,0,1.88-.4,5.83,5.83,0,0,0,1.22-.68q.33-.27,1-.93Z"/><path class="cls-1" d="M915.64,36.21a7.22,7.22,0,0,1,2.45,5.63V53.28q-1.54.66-2.23.91a17,17,0,0,1-2.18.57,15,15,0,0,1-3.09.31q-4.64,0-7-1.85a6.32,6.32,0,0,1-2.36-5.28,5.6,5.6,0,0,1,1-3.27,5.83,5.83,0,0,1,2.49-2,14.47,14.47,0,0,1,3-1,14.85,14.85,0,0,1,2.92-.29,14,14,0,0,1,3,.29Q913.26,38,909.65,38a13.2,13.2,0,0,0-4.72.77l-1.54-3.36A14.76,14.76,0,0,1,909.87,34,8.38,8.38,0,0,1,915.64,36.21Zm-5,14.88a10.63,10.63,0,0,0,3-.44V45.27a13.8,13.8,0,0,0-3-.33q-5,0-5,3T910.6,51.09Z"/><path class="cls-1" d="M940.59,36.19a6.87,6.87,0,0,1,2.8,5.69V54.74h-4.72V43.12a4.3,4.3,0,0,0-4.5-4.53,13.7,13.7,0,0,0-3.69.62V54.74h-4.72V36A23.4,23.4,0,0,1,934.43,34,9.81,9.81,0,0,1,940.59,36.19Z"/><path class="cls-1" d="M961.85,50.17v4q0,.18-.91.37a7.56,7.56,0,0,1-1.5.18,9,9,0,0,1-5.7-1.81,6.44,6.44,0,0,1-2.3-5.39V30l4.72-.33v4.61h5.19L961,38.15h-4.9V46.7a3.75,3.75,0,0,0,.93,2.76,3.44,3.44,0,0,0,2.54.93A6.6,6.6,0,0,0,961.85,50.17Z"/></g><g id="Calque_2-2" data-name="Calque 2"><path class="cls-3" d="M644.93,74.67c-14.34,0-23.65,12.4-23.65,27.14,0,16.29,11.24,31.79,11.24,41.87,0,12-3.1,22.49-10.85,39.17l-6.2,12.4-2.24,0c-60.59,0-108.65,46.47-108.65,102.77,0,52,42.26,89.56,98.87,89.56,73.67,0,129.5-67.07,129.5-146.94a51.68,51.68,0,0,0,17.45,3.49c37.22,0,67.08-26.36,67.08-62.43,0-19.38-12.8-30.24-24.82-30.24-13.18,0-21.33,8.92-21.33,19.78,0,17.45,18.61,14.73,18.61,29.08,0,7.75-5,12.79-15.9,12.79-17.45,0-40.32-28.69-67.46-28.69-37.23,0-66.69,31.79-66.69,61.26,0,21.72,12.79,31.79,26.37,31.79,10.47,0,19.77-8.53,19.77-17.84,0-17.45-18.61-14.34-18.61-29.08,0-7,4.65-12.79,14.35-12.79,12.4,0,22.48,7,35.67,15.9C715.49,315.44,662.38,341,614.3,341c-16.29,0-31-5.82-43.81-14l76.77-163.23c13.57-28.7,22.1-46.52,22.1-60.49,0-17.06-8.53-28.69-24.42-28.69M558.47,317.39c-13.18-12-20.94-25.6-20.94-41.1,0-28.57,16-51.3,47.56-51.3a78.44,78.44,0,0,1,15.64,1.67l-42.26,90.73"/><path class="cls-4" d="M1148.3,73.86a11.93,11.93,0,0,0-1.36-2.07c-3.74-4.47-7.87.07-10.08,5.13-3.5,8-9.06,13.47-14.42,20.33a231.39,231.39,0,0,0-16.12,22.92,178.11,178.11,0,0,0-22.21,56.75,221.23,221.23,0,0,0-4.14,39.8c-.21,17.64-2.66,10,14,22.72,3.78,2.89,10.22,4.56,14.38,1.53,5.11-3.71,2.27-7.76,4.54-12.51,5.34-11.17,17-21.22,23.32-32.58a229,229,0,0,0,14.4-30.87c6.52-17.58,10-37.13,7.73-55.85C1156.86,97,1154.06,84.73,1148.3,73.86Z"/><path class="cls-4" d="M1035.22,106.57c-5.12-7.18-11.43-12.14-17.54-18.29-3.65-3.68-2.91-7.35-5.44-11.55-2-3.35-4.15-3.83-6.25-2.48-7.55,4.84-14.19,29.67-15.09,40.12-5,58.22,41.16,102.92,46.51,114.08,2.27,4.75-.57,8.79,4.54,12.51,4.16,3,10.6,1.35,14.38-1.53,16.65-12.72,14.2-5.08,14-22.71C1069.84,177.23,1058.23,138.82,1035.22,106.57Z"/><path class="cls-4" d="M1125.35,283.43c.08.33,3.6-.62,4-.76-2.1-4.61-5.36-8.4-6.93-13.28-1.69-5.26-2.07-10.82-3.21-16.2-2-9.47-1.94-17.77-8.49-25.5-5.68-6.7-12.45-11.38-21.23-12.83-14.73-2.44-31.46-2.9-44.09,6.27-12.94,9.39-18.38,28.37-17.75,43.85.34,8.42-3.86,10.86-7.58,17.75,1.07,0,2.68.85,4.12.71-1.69,7.24-8.58,14.24-8.43,22.06,2.29-.38,4.22,0,6.29-1.39a29.8,29.8,0,0,0-2,12.51c.77-.5,2.67-.76,3.59-1.41,3.32,19.08,24.94,33.65,44.07,36.85,23.55,3.94,54.17-13.86,58.16-36.85.92.65,2.82.92,3.59,1.41a29.8,29.8,0,0,0-2-12.51c2.07,1.34,4,1,6.29,1.39C1133.94,297.67,1127,290.67,1125.35,283.43Z"/><path class="cls-2" d="M1067.21,202.58c1.79,3.61,4.83,6.48,7,9.78-5.46,0-15.27.7-18.41,5.75,3.18,1.51,7.88,1,10.63,3.07-5.71,4.74-11.36,9.76-10.52,18,3.08-2.81,5.5-6.06,9.46-7.64a13.74,13.74,0,0,0,1.38,12.94c-1.72-2.49,4.25-11.87,5.85-13.63,3.07-3.4,9-4.48,11.52-8C1089.83,214.86,1074.14,203.6,1067.21,202.58Z"/><path class="cls-4" d="M1145.38,367.38a35.92,35.92,0,0,0,6.64.77c-5.16-11.23-15.56-17.52-23.2-25.24,1.26.23,2.82-.33,4.1-.18-2.79-6.31-9.28-10.58-13.63-14.88-3.87-3.83-8.77-10.81-13.63-11.39l-31.09-2.59v-.23l-1.38.12-1.44-.12c0,.08,0,.16,0,.25l-29.53,2.58c-4.86.58-9.76,7.56-13.63,11.39-4.34,4.3-10.84,8.57-13.63,14.88,1.27-.15,2.83.41,4.1.18-7.65,7.72-18,14-23.2,25.24a35.91,35.91,0,0,0,6.64-.77,97.86,97.86,0,0,0-21.71,31.18c-4.44,10.11-10,23.2-11.84,35.21h210c-1.85-12-7.4-25.09-11.84-35.21A97.84,97.84,0,0,0,1145.38,367.38Z"/><path class="cls-4" d="M1122.49,257.42a81.92,81.92,0,0,0-23.21-1.44c-7.14.55-14,1.13-20.86,3a32,32,0,0,1-7.92.06c-6.92-1.82-13.08-2.11-20.22-2.56a81.88,81.88,0,0,0-23.18,1.79c-4.18.89-13.58,1.29-13.5,6.12.12,7.39,3.4,3.93,4.84,7.59,1.91,4.88,2.19,14.17,5.29,18.42s7.6,6.16,12.8,7.23c5.62,1.15,13.29,1,18.41-1.5a22.84,22.84,0,0,0,10.59-10.61c2.2-4.22,4.24-8.77,4.52-13.49.29-5,9.25-4.33,9.71-.25a37.93,37.93,0,0,0,4.73,13.42,22.84,22.84,0,0,0,10.75,10.44c5.15,2.43,12.5,2.59,18.1,1.35,5.18-1.15,10-3.28,13-7.56s3.18-13.59,5-18.5c1.38-3.68,4.71-.28,4.72-7.66C1136.08,258.5,1126.68,258.24,1122.49,257.42Z"/><path class="cls-5" d="M1125.27,257.12c-1-.14-1.91-.27-2.64-.41A83.2,83.2,0,0,0,1106,255c-2.21,0-4.47.09-6.74.26-6.48.5-13.82,1.07-21,3.07a21.85,21.85,0,0,1-4,.25,21.46,21.46,0,0,1-3.54-.19c-6.59-1.73-12.41-2.09-19.15-2.5l-1.22-.08c-1.83-.11-3.66-.17-5.45-.17a82.77,82.77,0,0,0-17.93,2c-.73.16-1.66.3-2.64.45-4.86.76-11.51,1.79-11.44,6.39s1.37,5.48,3.05,6.15a2.63,2.63,0,0,1,1.84,1.7,44,44,0,0,1,1.74,7.13c.82,4.3,1.67,8.75,3.65,11.45,2.86,3.9,6.94,6.22,13.24,7.52a36.76,36.76,0,0,0,7.26.71,27.21,27.21,0,0,0,11.61-2.27,23.62,23.62,0,0,0,10.92-10.92c2.22-4.26,4.31-8.88,4.6-13.79.12-2.09,2.18-2.83,3.91-2.83,2,0,4.15.92,4.35,2.62.48,4.15,2,8.5,4.81,13.69a23.63,23.63,0,0,0,11.09,10.76,27.2,27.2,0,0,0,11.23,2.18,34.5,34.5,0,0,0,7.34-.78c6.29-1.39,10.69-4,13.45-7.86,1.94-2.73,2.72-7.19,3.47-11.51a44.06,44.06,0,0,1,1.63-7.16,2.63,2.63,0,0,1,1.81-1.72c1.67-.7,3-1.59,3-6.2S1130.14,257.8,1125.27,257.12Zm8,11.06a4,4,0,0,0-2.62,2.56,44.89,44.89,0,0,0-1.7,7.42c-.73,4.16-1.48,8.45-3.23,10.92-2.54,3.58-6.65,6-12.57,7.27a33.07,33.07,0,0,1-7,.74,25.63,25.63,0,0,1-10.61-2,22.23,22.23,0,0,1-10.42-10.13c-2.71-5-4.19-9.2-4.64-13.16-.29-2.57-3.14-3.92-5.8-3.92s-5.2,1.3-5.37,4.21c-.27,4.63-2.29,9.08-4.44,13.2a22.23,22.23,0,0,1-10.27,10.29,25.75,25.75,0,0,1-11,2.12,35.24,35.24,0,0,1-7-.68c-5.92-1.22-9.73-3.36-12.35-6.95-1.78-2.44-2.6-6.72-3.39-10.87a44.9,44.9,0,0,0-1.81-7.39,4,4,0,0,0-2.66-2.52c-1.15-.46-2.07-.82-2.13-4.81-.05-3.33,5.87-4.25,10.2-4.92,1-.16,1.94-.3,2.72-.47a81.41,81.41,0,0,1,17.62-1.94c1.76,0,3.56.06,5.36.17l1.22.07c6.66.41,12.41.76,18.87,2.46a23.93,23.93,0,0,0,3.91.24,24.43,24.43,0,0,0,4.4-.3c7-2,14.31-2.53,20.72-3,2.23-.17,4.46-.26,6.63-.26a81.82,81.82,0,0,1,16.39,1.68c.77.15,1.72.28,2.72.42,4.34.61,10.28,1.44,10.28,4.77C1135.34,267.33,1134.44,267.7,1133.29,268.18Z"/><path class="cls-6" d="M1042.48,259.71c-8.25.39-19.9,2.23-19.71,11.6.18,8.81,1.42,22.85,17.68,24.14,14.8,1.17,19.5-7.11,19.5-7.11,4.84-5.75,7.2-15.54,5.78-20.85C1063.48,259,1050.19,259.35,1042.48,259.71Z"/><path class="cls-6" d="M1107.39,259.48c-7.71-.37-21-.68-23.25,7.77-1.41,5.31.94,15.1,5.78,20.85,0,0,4.7,8.29,19.5,7.11,16.25-1.29,17.5-15.33,17.68-24.14C1127.29,261.71,1115.64,259.88,1107.39,259.48Z"/><path class="cls-2" d="M1073.79,308.9c-.25,7.24-2.36,18.84-11.78,18.74a11.6,11.6,0,0,1-7.78-3.37c-.87-.9-1-3.51-2.62-3.69-2.26-.26-.81,2.22-.17,3.1a14.25,14.25,0,0,0,10.15,5.62c10.72.73,13.58-12.24,13.87-20.41C1075.51,307.82,1073.83,307.82,1073.79,308.9Z"/><path class="cls-2" d="M1097.91,320.42c-1.19-.27-2.74,3.52-3.55,4.29a11.42,11.42,0,0,1-7.1,2.93c-9.54.46-11.73-11.58-12-18.73,0-1.08-1.72-1.09-1.68,0,.29,8.29,3.06,20.73,13.66,20.42,3.85-.11,8.55-2.46,10.36-6C1097.94,322.72,1099.09,320.69,1097.91,320.42Z"/><path class="cls-2" d="M1137.58,103.74c-1.59,5.53-5.17,9.06-9.19,13.36a111.92,111.92,0,0,0-15.77,20.67,117.77,117.77,0,0,0-15.49,46.65,129.74,129.74,0,0,0,.38,28.83q.1.85.21,1.71c28.28-17.32,46.72-47.36,49.77-79,1.14-11.85,4.08-22.45-1.29-34.23C1142.6,93.82,1139.25,97.92,1137.58,103.74Z"/><path class="cls-2" d="M1011.65,100.23c-2.06-7.94-6.82-1.38-8.18,2.88-2.23,7-2.53,16.27-2.16,23.54,1.75,34.17,20.55,69.75,51.16,88q.1-.86.19-1.71c3.34-32.06-4.83-64-26-89.46C1020.33,115.9,1014.18,110,1011.65,100.23Z"/><path class="cls-4" d="M1052.87,202.1a10.74,10.74,0,0,0-.84-2.8,4.08,4.08,0,0,0-.71,2.88c-.09-1.22-1.22-2.33-1.53-3.52a20.76,20.76,0,0,1-.17-4.27c-2.42,1-1.46,7.22-.22,8.7-.85-1-2.2-2.12-2.48-3.41-1.17,1-1.16,4.33,0,5.4-1.54-1.38-2-3.58-3.65-4.9a6,6,0,0,0-5.77-.79c.59-.26,4.13,1.9,4.66,2.31,1,.78,2.47,4.24-.11,3.13-1-.42-1.34-1.52-1.84-2.31-.31-.49-.62,1.64-.59,1.8a7.1,7.1,0,0,0,1.54,2.72c1.64,2,2.4,3.38,2.16,6,0,.41-.65,4.47-1,4.46l5.66.1c5.45-1.59,6.11-4.24,5.71-8.58C1053.53,207.22,1053.09,203.79,1052.87,202.1Z"/><path class="cls-4" d="M1106.57,198.2c-1.89,1.92-2.08,5-4.07,6.88.58-1.83,1.56-4.09,0-5.43-.07.56-.24,4.2-1.38,3.77-2.17-.84.45-6.5.72-7.95,0-.23-2.25,1.36-3,4-.27,1-.59,2-.91,3-.2-1.52-.06-3.3-.13-4.43-.71,1.69-.76,3.6-1.31,5.36a8.25,8.25,0,0,0-.16,4.85c-.71,4.26.62,7.92,5.19,9.35l5.29-.1c2.92-10,2.24-11.53,2.13-16-.84.34-1.17,3.41-3.31,3.9.41-.09,1.05-3,1.22-3.47.81-2.13,2.36-3.23,4.17-1.08C1111.49,198.17,1108.77,196,1106.57,198.2Z"/><path class="cls-2" d="M1078.06,295.36a22.32,22.32,0,0,0-3.43.87,22.32,22.32,0,0,0-3.43-.87c-3.41-.33-7.28.16-7.83,4.42-.48,3.73,8.5,11.2,11.26,12.25,2.76-1,11.74-8.52,11.26-12.25C1085.35,295.52,1081.48,295,1078.06,295.36Z"/><path class="cls-4" d="M982.14,428c.2,0,2-.35,2.1-.14-1.28-5.06-5.66-8.61-6.82-13.9.19-.09,1.61-.54,1.73-.32-1.26-2.32-2.75-4.59-4-6.84a4.62,4.62,0,0,0,3.08,1.29c-1.36-4.5-11.5-14.15-7.28-11.83,4.75,2.62-5-8.46-5.31-10.93.87.31,1.77.08,2.81.61-4-7.26-9.22-11.7-8.34-20.4,1.68-16.59,5.62-28.7-4-32.18-2-.74.66-19.94,1.12-27.76.2-3.36,1.62-15.07-2.75-17-7.29-3.24-7.9,14.16-8.48,17.79-.55,3.43-2.61,20.94-3.49,24.59-.7-1.17-9.71-37.32-14.94-39.6-4-1.76-7.09-.08-7.73,3.77-1.07,6.42,13.93,35.59,11.38,39.44-3.16-4.55-7.34-2.89-8.82.38-1.53,2.08.73,5.06.46,5.83.3-.85-9-2.5-4.11,11.76,1.85,5.44,5.94,10.65,9.47,15.19,1.51,1.95,4.11,3.79,5.34,5.8,2.15,3.55.27,9,.41,12.88.53-.15,1.28.06,1.83-.08,1.09,4.61-1.42,13.28-.51,14.66.71-.36,1.93.1,2.33-.6-.41,3.85-1.44,7.75-1.28,11.49a19.43,19.43,0,0,1,3.41-1.11c.23,3.81-2.24,7.44-1.7,11.33a17.07,17.07,0,0,1,2.7-1.06c.59,3.1.14,7.71-.34,10.77.48-.33,1.73-.59,2.25-1-.34.25-.55,1.45-.69,2.89h43.72s0-.1,0-.15C985,431.47,983.13,429.93,982.14,428Z"/><path class="cls-2" d="M1010.18,374.82c-5-4.11-10.25.2-12.25,5.17-1.87,4.66.47,11.49,2.42,15.86,2.58,5.78,8.07,11.81,6.85,18.6-.43,2.37-2,6.66-4.77,7a2.75,2.75,0,0,1-2.72-1.1c-1.21-1.53-1.64-4.17-3.55-5s-3.63-.71-4.88,1.09c-2.23,3.2-1.8,8.78,1.38,11.21a10.63,10.63,0,0,0,10.75,1c10.11-4.82,12.08-18.18,6.84-27.41-2.24-4-5.1-7.58-6.66-11.88-1-2.68-2.63-10.58,2.32-10.79,4-.18-.67,4,1.16,5.22s5.34-.78,6.26-2.4C1014.73,378.91,1012.05,376.36,1010.18,374.82Z"/><path class="cls-2" d="M1014.61,367c-2.09-.34-5.87-1.59-7.82-.29-2.34,1.57-1,3.66,1.06,4.27,3.23,1,7.75,1,11.12,1.06h.32q.08,4.37,1.06,24c.27,5.36.41,10.72.47,16.08.06,4.81-.79,10.43,0,15.11.39,2.19,2.66,5.21,4.51,2,1.64-2.81.59-6.52.48-9.55-.29-8.16-.07-16.8-1.46-24.74-1.23-7-1-22.75-.95-22.78s10.15,1.8,11.52.25c.66-.75,1-4.07.38-4.88C1033.29,364.81,1018,367.55,1014.61,367Z"/><path class="cls-2" d="M1049.52,407.75c-1.23-8.74-1.67-17.77-2.71-26.48-.4-3.34-.54-6.66-1.05-10-.25-1.6-.07-7.5-2.81-6.25-1.16.53-1,1.83-1.22,2.8-1.27,6.54-3.17,12.79-4.65,19.26-.78,3.38-1.89,6.68-2.51,10.11-.52,2.84-5.85,23-.77,24,5.46,1.14,1.62-9.45,4.81-10.57,1.12-.4,4.17.08,5.28.56,2.38,1,2.3,3.07,2.34,5.23,0,2.49-.16,10.25,3.84,10.25,1.73,0,3.07-2.84,3.1-4.25.05-3.23-2.3-6.8-2.89-10.06Q1049.85,410.1,1049.52,407.75Zm-5.15-1.51a5.72,5.72,0,0,1-.46,1.23c-.54,1-1.42,1.39-3,.57-3.32-1.68-1.88-5.45-1.24-8.07a99.43,99.43,0,0,0,1.56-11c.14-1.08.6-6.49,1.68-6.79.53-.14,1.5,12.59,1.54,13.47C1044.62,399.1,1045.29,402.8,1044.37,406.24Z"/><path class="cls-2" d="M1072.08,348.19c-7.31-2.82-10.26,17.19-11,21.25-.23,1.27-.47,9.47-2.82,5.23-1.1-2-1-4.82-1.57-7a48.17,48.17,0,0,0-7.84-16.39c-1.94-2.54-9-5.87-8.24.16.25,2.13,2.4,3.46,3.93,4.61,7.14,5.39,9,18,11.72,26.07a22.34,22.34,0,0,0,1.57,2.9c2.26,4.86,1.44,35,.77,37.15-.76,2.5-3,6-.9,8.19a4.12,4.12,0,0,0,7.12-3,113.86,113.86,0,0,0-.55-11.58c-.4-4.69-.89-9.37-1-14.08s-.06-9.45,0-14.17c0-5.92,2.13-12.12,3.82-17.73,1.25-4.15,1.41-9,3.84-12.6C1072.47,355,1076.43,349.86,1072.08,348.19Z"/><path class="cls-2" d="M1091.71,421.37c-1.73,1.05-1.46,3-4.14,2.55-7.91-1.38-7.06-15.3-7.46-21.35-.6-9,.09-18.57,3.56-26.89.57-1.36,1.79-3.67,3.43-3.64,2.06,0,4.17,4.69,6.61,2,2.92-3.18,1.11-8.24-2.57-9.45-3.16-1-7.78-.31-10.29,2-4,3.73-5.24,10.3-6.25,15.39-1.6,8-.94,16.37-.52,24.47.11,2.08.43,4.13.54,6.18,1.15,21.11,18.58,20.43,21.12,16.86C1097.55,427,1095.74,418.92,1091.71,421.37Z"/><path class="cls-2" d="M1102.69,373c-4.52.48-5.89,2.78-7,6.66-1.89,6.62-2.06,13.7-1.61,20.66.37,5.68,2.9,35.24,15.57,23.17,4.4-4.18,4.31-12.5,4.75-18a92.09,92.09,0,0,0-.45-21.15C1113,378.49,1110.1,372.17,1102.69,373Zm7.22,33.44a24.16,24.16,0,0,1-1.87,10.85c-2.16,5.07-7.08,1.46-8.16-2.4-1.27-4.55-1.36-9.33-1.38-14,0-3.47-.48-7-.36-10.5a24.33,24.33,0,0,1,.35-3.46c.32-1.81.46-5.59,2-6.83,2.37-1.85,6.69-1.47,8.26,1.07,1.35,2.18.54,5.33.48,7.71-.05,2,1.08,3.73,1.2,5.75C1110.72,398.54,1109.71,402.43,1109.91,406.39Z"/><path class="cls-2" d="M1132.71,372.07c-3.43-4.18-12-5.83-14.41.37-2.15,5.58-1.61,12.42-.94,18.17.07.61.91,8.3.75,8.3.07,0,.1.14.1.42l-.07,3.27c-.11,6.14-.47,12.65,1,18.69.84,3.52,1.74,7.88,5.85,9.21a8,8,0,0,0,9-3.12c2.93-4.44,2.3-10.69,2.69-15.67.65-8.3-.62-16.39-.86-24.65C1135.63,382.13,1136.14,376.25,1132.71,372.07Zm-.93,41.79c-.52,2.57.07,7.4-1.77,9.49s-4.61.13-5.63-1.86c-1.7-3.31-1.73-7.25-1.93-10.84-.25-4.64-1.12-9.84-.56-14.42.21-1.71.38-3.43.52-5.16.28-3.32.5-6.65.84-10,.21-2,.18-5.29,3.11-5.09,2.42.17,4.28,3.37,5.06,5.18,1.72,3.93.68,9.72,1,14C1132.81,400.95,1132.94,408.1,1131.77,413.86Z"/><path class="cls-2" d="M1155,419.3c-4.58.2-8.91.24-8.94-5.43-.06-10.69.87-21.58-.06-32.21-.66-7.53-2.45-15.71-6.6-22.15-1.88-2.91-4.54-6.15-8-7.17-2.8-.82-10.6.65-11.88,3.7s.61,6.85,4.44,6.61,6.13-5.74,10.33-2.3c3.09,2.53,4.19,7.83,5,11.48,2.92,12.45-.46,25.13.83,37.82.39,3.8-1,12.15,1.48,15.41s9.87,1.18,13.36,1.29c3.1.1,7.6,1,6.85-4C1161.24,418.44,1158,419.17,1155,419.3Z"/><path class="cls-4" d="M1043.34,290.9c-.16,0-.3.18-.46.15v.2c.22,0,.41.26.55,0A.29.29,0,0,1,1043.34,290.9Z"/><path class="cls-4" d="M1097.59,281.88a.3.3,0,0,1,.27.33c.15-.12.26-.32.44-.37l-.09-.2C1098,281.76,1097.66,281.58,1097.59,281.88Z"/><path class="cls-2" d="M1082.92,243.87a.53.53,0,0,1-.68.21c.09.3.33.56.28.85h.37C1082.87,244.49,1083.36,244.13,1082.92,243.87Z"/><path class="cls-2" d="M1122.56,202.27a.3.3,0,0,1,.27.33c.15-.13.26-.32.44-.37l-.09-.2C1122.93,202.15,1122.62,202,1122.56,202.27Z"/><path class="cls-2" d="M1055.29,218.37c-.21.06-.39.23-.6.2v.27c.29,0,.53.33.72,0A.38.38,0,0,1,1055.29,218.37Z"/><path class="cls-2" d="M1048.49,212.35a.46.46,0,0,1-.49.42c.19.23.47.37.55.64l.3-.14C1048.68,212.91,1048.95,212.43,1048.49,212.35Z"/><path class="cls-2" d="M1036.73,209.2a.45.45,0,0,1,.55.32c.13-.27.15-.6.36-.77l-.24-.24C1037.16,208.8,1036.63,208.72,1036.73,209.2Z"/><path class="cls-2" d="M1039.25,217.17a.45.45,0,0,1,.55.32c.13-.27.15-.6.36-.77l-.24-.24C1039.67,216.78,1039.15,216.7,1039.25,217.17Z"/><path class="cls-2" d="M1035.59,220.18c-.21.06-.39.23-.6.2v.27c.29,0,.53.33.72,0A.37.37,0,0,1,1035.59,220.18Z"/><path class="cls-2" d="M1033.77,223.33a.46.46,0,0,1,.56.31c.15-.25.18-.57.41-.74l-.24-.23C1034.22,223,1033.68,222.88,1033.77,223.33Z"/><path class="cls-2" d="M1055.06,203.62l-.09.21c.25.09.33.44.59.27a.31.31,0,0,1,.06-.43C1055.43,203.65,1055.22,203.72,1055.06,203.62Z"/><path class="cls-2" d="M1061.65,195.47a.39.39,0,0,1,.35.44c.2-.16.33-.42.57-.48l-.12-.27C1062.14,195.31,1061.73,195.07,1061.65,195.47Z"/><path class="cls-2" d="M1064.14,186.6c.87,0,1.49,1,2.12.16a6.37,6.37,0,0,0-2.07-.89Z"/><path class="cls-2" d="M1001.32,89.3a.43.43,0,0,1-.55.17c.08.24.26.45.23.69h.3C1001.28,89.8,1001.67,89.51,1001.32,89.3Z"/><path class="cls-2" d="M1014.5,90.2a.42.42,0,0,1-.55.17c.07.24.26.45.23.69h.3C1014.46,90.7,1014.85,90.41,1014.5,90.2Z"/><path class="cls-2" d="M1003.92,96.14a.42.42,0,0,1-.55.17c.07.24.26.45.23.69h.3C1003.88,96.64,1004.27,96.35,1003.92,96.14Z"/><path class="cls-2" d="M997.38,99.25a.69.69,0,0,1-.89.27c.12.39.42.73.37,1.11l.49,0C997.31,100.06,997.95,99.6,997.38,99.25Z"/><path class="cls-2" d="M1007.23,83a.68.68,0,0,1-.89.27c.12.39.43.73.37,1.11l.49,0C1007.17,83.76,1007.8,83.3,1007.23,83Z"/><path class="cls-2" d="M1059.7,184.46a.43.43,0,0,1-.55.17c.08.24.26.45.23.69h.3C1059.66,185,1060.05,184.68,1059.7,184.46Z"/><path class="cls-2" d="M1057.49,187.32a.39.39,0,0,1,.35.44c.2-.16.34-.42.57-.48l-.12-.27C1058,187.16,1057.57,186.91,1057.49,187.32Z"/><path class="cls-2" d="M1011.57,86.53a.39.39,0,0,1,.35.44c.2-.16.34-.42.57-.48l-.12-.27C1012.06,86.37,1011.65,86.12,1011.57,86.53Z"/><path class="cls-2" d="M1048.05,202.69a.39.39,0,0,1,.35.43c.2-.16.34-.42.57-.48l-.12-.27C1048.54,202.53,1048.13,202.28,1048.05,202.69Z"/><path class="cls-2" d="M1110.4,250a.43.43,0,0,1,.06.61c.38.28.52-.21.89-.3l-.12-.31C1111,250.14,1110.69,250,1110.4,250Z"/><path class="cls-2" d="M1106.19,239.89a.22.22,0,0,1,.24-.2,1.62,1.62,0,0,0-.43-.22C1106.09,239.64,1106,239.86,1106.19,239.89Z"/><path class="cls-2" d="M1099.74,206.21a.22.22,0,0,1,.24-.2,1.62,1.62,0,0,0-.43-.22C1099.63,206,1099.51,206.19,1099.74,206.21Z"/><path class="cls-2" d="M1109.5,239.21l-.19.09c.12.2,0,.49.25.52a.28.28,0,0,1,.3-.25C1109.74,239.44,1109.55,239.36,1109.5,239.21Z"/><path class="cls-2" d="M1094.15,250.24l-.29.14c.19.32-.06.77.39.82a.44.44,0,0,1,.47-.4C1094.52,250.61,1094.24,250.48,1094.15,250.24Z"/><path class="cls-2" d="M1112.39,234.14l-.15.07c.09.16,0,.39.2.42a.22.22,0,0,1,.24-.2C1112.58,234.33,1112.43,234.27,1112.39,234.14Z"/><path class="cls-2" d="M1118.2,247.1l-.15.07c.09.16,0,.39.2.42a.22.22,0,0,1,.24-.2C1118.39,247.28,1118.24,247.22,1118.2,247.1Z"/><path class="cls-2" d="M1103.87,239.82c-.07.16-.07.36-.2.48l.17.13c.15-.19.5-.17.41-.44A.3.3,0,0,1,1103.87,239.82Z"/><path class="cls-2" d="M1100,236.09c-.07.16-.07.36-.2.48l.17.13c.15-.19.5-.17.41-.44A.3.3,0,0,1,1100,236.09Z"/><path class="cls-2" d="M1103.36,206.41c-.07.16-.07.36-.2.48l.17.13c.15-.19.5-.17.41-.44A.3.3,0,0,1,1103.36,206.41Z"/><path class="cls-2" d="M1093.1,205.49c-.07.16-.07.36-.2.48l.17.13c.15-.19.5-.17.41-.44A.3.3,0,0,1,1093.1,205.49Z"/><path class="cls-2" d="M1096.61,237.84c-.07.16-.07.36-.2.48l.17.13c.15-.19.5-.17.41-.44A.31.31,0,0,1,1096.61,237.84Z"/><path class="cls-2" d="M1104.72,235.78c-.07.16-.07.36-.2.48l.17.13c.15-.19.5-.16.41-.44A.3.3,0,0,1,1104.72,235.78Z"/><path class="cls-2" d="M1127,298.08c-.07.16-.07.36-.2.48l.17.13c.15-.19.5-.17.41-.44A.31.31,0,0,1,1127,298.08Z"/><path class="cls-2" d="M1115.87,244.25a.28.28,0,0,1,0,.4c.19,0,.38-.07.54,0l.06-.2C1116.21,244.39,1116.11,244.07,1115.87,244.25Z"/><path class="cls-2" d="M1109,229.12a.28.28,0,0,1,0,.4c.19,0,.38-.07.54,0l.06-.2C1109.3,229.26,1109.19,228.94,1109,229.12Z"/><path class="cls-2" d="M1113.56,237.7a1.2,1.2,0,0,1-.06,1.7c.8,0,1.63-.31,2.31,0l.27-.85C1115,238.3,1114.57,236.92,1113.56,237.7Z"/><path class="cls-2" d="M1097.16,208.77a1.2,1.2,0,0,1-.06,1.7c.8,0,1.63-.31,2.31,0l.27-.85C1098.64,209.37,1098.17,208,1097.16,208.77Z"/><path class="cls-2" d="M1107.75,244.75a.28.28,0,0,1,0,.4c.19,0,.38-.07.54,0l.06-.2C1108.09,244.89,1108,244.57,1107.75,244.75Z"/><path class="cls-2" d="M1115.33,216.81a.28.28,0,0,1,0,.4c.19,0,.38-.07.54,0l.06-.2C1115.68,216.95,1115.57,216.63,1115.33,216.81Z"/><path class="cls-2" d="M1102.2,231l-.15.07c.09.16,0,.39.2.42a.22.22,0,0,1,.23-.2C1102.39,231.23,1102.24,231.16,1102.2,231Z"/><path class="cls-2" d="M1093.45,233.62a4.31,4.31,0,0,0-.39,1.53l.53-.06C1093.48,234.5,1094.12,233.95,1093.45,233.62Z"/><path class="cls-2" d="M1104.9,229.18a9,9,0,0,1,0,1.82s1,.22.69-1C1105.35,230.15,1105.12,229.84,1104.9,229.18Z"/><path class="cls-2" d="M1107.12,204.88a9,9,0,0,1,0,1.82s1,.22.69-1C1107.56,205.85,1107.34,205.53,1107.12,204.88Z"/><path class="cls-2" d="M1117.74,250.78c0,.29.06.6-.09.83l.32.13c.15-.37.7-.48.43-.87A.49.49,0,0,1,1117.74,250.78Z"/><path class="cls-2" d="M1105.75,247.34c-.12.26-.11.59-.32.77l.27.21c.24-.31.81-.27.66-.72A.49.49,0,0,1,1105.75,247.34Z"/><path class="cls-4" d="M1099.76,288c0,.13.11.24.08.36l.15,0c0-.17.21-.29,0-.42A.2.2,0,0,1,1099.76,288Z"/><path class="cls-4" d="M1096.74,282.55a.28.28,0,0,1,.05.37c.16,0,.32-.12.47-.07l0-.19C1097.06,282.63,1096.92,282.34,1096.74,282.55Z"/><path class="cls-4" d="M1055,368.34a.28.28,0,0,1,.05.37c.16,0,.32-.12.47-.07l0-.19C1055.35,368.42,1055.2,368.14,1055,368.34Z"/><path class="cls-2" d="M1062.87,315.56a.56.56,0,0,1,.1.75c.33,0,.64-.24.94-.15l0-.39C1063.51,315.72,1063.21,315.15,1062.87,315.56Z"/><path class="cls-4" d="M1086.84,300a.28.28,0,0,1,.05.37c.16,0,.32-.12.47-.07l0-.19C1087.16,300.06,1087,299.78,1086.84,300Z"/><path class="cls-4" d="M1087.92,268.49a.28.28,0,0,1,.05.37c.16,0,.32-.12.47-.07l0-.19C1088.24,268.57,1088.09,268.29,1087.92,268.49Z"/><path class="cls-2" d="M1111.31,307.94a.28.28,0,0,1,.05.37c.16,0,.32-.12.47-.07l0-.19C1111.63,308,1111.48,307.74,1111.31,307.94Z"/><path class="cls-2" d="M1115.62,315.28a.28.28,0,0,1,.05.37c.16,0,.32-.12.47-.07l0-.19C1115.94,315.36,1115.79,315.08,1115.62,315.28Z"/><path class="cls-2" d="M1096.56,340.09a.28.28,0,0,1,.05.37c.16,0,.32-.12.47-.07l0-.19C1096.87,340.17,1096.73,339.89,1096.56,340.09Z"/><path class="cls-2" d="M1086.81,295.39a.28.28,0,0,1,.05.37c.16,0,.32-.12.47-.07l0-.19C1087.12,295.47,1087,295.19,1086.81,295.39Z"/><path class="cls-2" d="M1108.67,332a.28.28,0,0,1,.05.37c.16,0,.32-.12.47-.07l0-.19C1109,332.1,1108.84,331.82,1108.67,332Z"/><path class="cls-2" d="M1108.13,325.38a.28.28,0,0,1,.05.37c.16,0,.32-.12.47-.07l0-.19C1108.45,325.46,1108.3,325.17,1108.13,325.38Z"/><path class="cls-2" d="M1115.35,339.87a.28.28,0,0,1,.05.37c.16,0,.32-.12.47-.07l0-.19C1115.67,340,1115.52,339.67,1115.35,339.87Z"/><path class="cls-2" d="M1096.83,314.58a.28.28,0,0,1,.05.37c.16,0,.32-.12.47-.07l0-.19C1097.15,314.66,1097,314.38,1096.83,314.58Z"/><path class="cls-2" d="M1110.69,376.94a.35.35,0,0,1-.37.32c.14.17.36.28.42.49l.23-.11C1110.83,377.36,1111,377,1110.69,376.94Z"/><path class="cls-2" d="M1118.27,351.54a1.53,1.53,0,0,1,.22,1.18c.27,0,.51-.26.78-.07l0-.59C1118.84,351.9,1118.49,351,1118.27,351.54Z"/><path class="cls-2" d="M1110.53,347.71a.28.28,0,0,1,.05.37c.16,0,.32-.12.47-.07l0-.19C1110.84,347.79,1110.7,347.51,1110.53,347.71Z"/><path class="cls-2" d="M1041.25,240a1,1,0,0,1,.8,1.18c.52-.35.88-.95,1.47-1l-.26-.7C1042.47,239.77,1041.49,239.06,1041.25,240Z"/><path class="cls-4" d="M1110.89,291.14l-.14.12c.16.17.09.47.36.44a.25.25,0,0,1,.2-.3C1111.17,291.31,1111,291.27,1110.89,291.14Z"/><path class="cls-2" d="M947.92,292.85l-.06.29c.24,0,.42.27.65.41a.39.39,0,0,1,.25-.5C948.6,292.65,948.26,293,947.92,292.85Z"/><path class="cls-2" d="M946.62,303.49c0,.13.11.24.08.36l.15,0c0-.17.21-.29,0-.42A.2.2,0,0,1,946.62,303.49Z"/><path class="cls-2" d="M945.55,300.29c0,.13.11.24.08.36l.15,0c0-.17.21-.29,0-.42A.2.2,0,0,1,945.55,300.29Z"/><path class="cls-2" d="M965.7,296.78a.28.28,0,0,1,.21.31c.14-.09.23-.25.39-.27l-.07-.18C966,296.71,965.77,296.53,965.7,296.78Z"/><path class="cls-2" d="M953.13,309.35a.28.28,0,0,1,.22.31c.13-.09.23-.25.38-.27l-.07-.18C953.45,309.28,953.19,309.09,953.13,309.35Z"/><path class="cls-2" d="M945.85,307a.28.28,0,0,1,.21.31c.14-.09.23-.25.39-.27l-.07-.18C946.17,307,945.91,306.78,945.85,307Z"/><path class="cls-2" d="M941.87,303.84a.28.28,0,0,1,.21.31c.13-.09.23-.25.38-.27l-.07-.18C942.19,303.77,941.93,303.58,941.87,303.84Z"/><path class="cls-2" d="M943.88,304.1l-.14.12c.16.17.09.47.36.44a.26.26,0,0,1,.2-.3C944.15,304.27,944,304.23,943.88,304.1Z"/><path class="cls-2" d="M939.34,309.91l-.14.12c.16.17.09.47.36.44a.25.25,0,0,1,.2-.3C939.62,310.08,939.43,310,939.34,309.91Z"/><path class="cls-2" d="M943.92,309l-.14.12c.16.17.09.47.36.44a.25.25,0,0,1,.2-.3C944.19,309.16,944,309.12,943.92,309Z"/><path class="cls-2" d="M959.32,301.66l-.14.12c.16.17.09.47.36.44a.25.25,0,0,1,.2-.3C959.59,301.83,959.4,301.79,959.32,301.66Z"/><path class="cls-2" d="M945.65,311.88c0,.13.11.24.08.36l.15,0c0-.17.21-.29,0-.42A.2.2,0,0,1,945.65,311.88Z"/><path class="cls-2" d="M953.77,314.46a3.93,3.93,0,0,0,1-1l-.44-.21C954.16,313.76,953.41,313.88,953.77,314.46Z"/><path class="cls-2" d="M942.63,311.38c.23,0,.25.39.11,1a8.27,8.27,0,0,1,.89-1.41S943,310.32,942.63,311.38Z"/><path class="cls-2" d="M942.13,337.89c.23,0,.25.39.11,1a8.27,8.27,0,0,1,.89-1.41S942.46,336.83,942.13,337.89Z"/><path class="cls-2" d="M947.81,299.38a.45.45,0,0,1,.35.5c.22-.15.37-.4.62-.44l-.11-.3C948.33,299.27,947.92,299,947.81,299.38Z"/><path class="cls-2" d="M950.48,297.37a.45.45,0,0,1,.35.5c.22-.15.37-.4.62-.44l-.11-.3C951,297.26,950.58,297,950.48,297.37Z"/><path class="cls-2" d="M995.11,430.4a.28.28,0,0,1,.05.37c.16,0,.32-.12.47-.07l0-.19C995.43,430.48,995.28,430.2,995.11,430.4Z"/><path class="cls-2" d="M971.78,399.78c-.16,0-.3.18-.46.15v.2c.23,0,.41.26.55,0A.29.29,0,0,1,971.78,399.78Z"/><path class="cls-2" d="M975.78,398c-.16,0-.3.18-.46.15v.2c.23,0,.41.26.55,0A.29.29,0,0,1,975.78,398Z"/><path class="cls-2" d="M968.91,403.45a.35.35,0,0,1-.37.32c.14.17.36.28.42.49l.23-.11C969.05,403.88,969.26,403.51,968.91,403.45Z"/><path class="cls-2" d="M954.41,413.54a.35.35,0,0,1-.37.32c.14.17.36.28.42.49l.23-.11C954.56,414,954.76,413.6,954.41,413.54Z"/><path class="cls-2" d="M967,399.12a.35.35,0,0,1-.37.32c.14.17.36.28.42.49l.23-.11C967.18,399.55,967.39,399.18,967,399.12Z"/><path class="cls-2" d="M960.7,399.37c-.16,0-.3.18-.46.15v.2c.23,0,.41.26.55,0A.29.29,0,0,1,960.7,399.37Z"/><path class="cls-2" d="M960.88,395.23c0,.31-.47.38-1.29.26a11.24,11.24,0,0,1,2,1S962.31,395.56,960.88,395.23Z"/><path class="cls-2" d="M962.1,405.67a.57.57,0,0,1-.6.52c.23.28.58.46.67.8l.37-.18C962.33,406.36,962.66,405.76,962.1,405.67Z"/><path class="cls-2" d="M945.84,382.79a.57.57,0,0,1-.6.52c.23.28.58.46.67.8l.37-.18C946.07,383.48,946.4,382.88,945.84,382.79Z"/><path class="cls-2" d="M954.92,402.4c-.25.12-.46.36-.72.36l.05.34c.37-.07.73.33.92-.1A.48.48,0,0,1,954.92,402.4Z"/><path class="cls-2" d="M952.75,426a.57.57,0,0,1,.57.55c.25-.26.4-.63.72-.76l-.21-.35C953.41,425.72,952.79,425.44,952.75,426Z"/><path class="cls-2" d="M957.35,414.44l-.25-.06c0,.3-.43.45-.18.72a.34.34,0,0,1,.49,0C957.39,414.87,957.27,414.64,957.35,414.44Z"/><path class="cls-2" d="M990.31,395.74c.08.06,0,.21-.18.41a3.9,3.9,0,0,1,.68-.36S990.69,395.4,990.31,395.74Z"/><path class="cls-2" d="M995.49,410.09c-.14.13-.23.33-.41.39l.11.2c.24-.13.57,0,.6-.27A.31.31,0,0,1,995.49,410.09Z"/><path class="cls-2" d="M986.12,397.65c-.14.13-.23.33-.41.39l.11.2c.23-.13.56,0,.6-.27A.31.31,0,0,1,986.12,397.65Z"/><path class="cls-2" d="M1045.91,417.62c-.14.13-.23.33-.41.39l.11.2c.23-.13.56,0,.6-.27A.31.31,0,0,1,1045.91,417.62Z"/><path class="cls-2" d="M990.3,407c-.14.13-.23.33-.41.39l.11.2c.23-.13.57,0,.6-.27A.31.31,0,0,1,990.3,407Z"/><path class="cls-2" d="M971.74,426a.31.31,0,0,1-.19.39c.18.08.4.08.53.22l.15-.17C972,426.3,972,425.94,971.74,426Z"/><path class="cls-2" d="M988,402.94l.55.15c.16-.63,1-.92.52-1.51A4.88,4.88,0,0,0,988,402.94Z"/><path class="cls-2" d="M980.33,406.72c-.14.13-.23.33-.41.39l.11.2c.23-.13.57,0,.6-.27A.31.31,0,0,1,980.33,406.72Z"/><path class="cls-2" d="M995,420.1c-.23.21-.37.53-.66.63l.17.32c.38-.21.91.06,1-.44A.5.5,0,0,1,995,420.1Z"/><path class="cls-2" d="M993.09,404c-.23.21-.38.54-.66.63l.17.32c.38-.21.91.06,1-.44A.5.5,0,0,1,993.09,404Z"/><path class="cls-2" d="M928.53,307.62c-.23.21-.37.54-.66.63l.17.32c.38-.21.91.06,1-.44A.5.5,0,0,1,928.53,307.62Z"/><path class="cls-2" d="M985.92,413a.31.31,0,0,1-.19.39c.18.08.4.08.53.22l.15-.17C986.2,413.28,986.23,412.92,985.92,413Z"/><path class="cls-2" d="M1037.35,327.77c-.22.1-.39.3-.62.31l.05.27c.32-.07.64.25.79-.1A.37.37,0,0,1,1037.35,327.77Z"/><path class="cls-2" d="M1033.77,326.43l-.18,0c0,.22-.3.36-.11.54a.25.25,0,0,1,.35,0C1033.82,326.74,1033.73,326.58,1033.77,326.43Z"/><path class="cls-2" d="M1026.31,313c-.14.08-.25.23-.4.25l0,.18c.21-.06.42.13.52-.12A.25.25,0,0,1,1026.31,313Z"/><path class="cls-2" d="M1028.23,315.88a.21.21,0,0,1-.09.27c.11,0,.25,0,.33.09l.08-.12C1028.41,316,1028.41,315.8,1028.23,315.88Z"/><path class="cls-2" d="M1031.59,314.55l-.18,0c0,.22-.3.37-.11.54a.25.25,0,0,1,.35-.05C1031.63,314.85,1031.54,314.7,1031.59,314.55Z"/><path class="cls-2" d="M1037.23,327.61c.33.41.1,1.14.73,1.07a4,4,0,0,0-.37-1.37Z"/><path class="cls-2" d="M1022.72,318.38a3.67,3.67,0,0,0,1.13.78l.11-.46C1023.45,318.61,1023.19,317.91,1022.72,318.38Z"/><path class="cls-2" d="M1032,311.57c.13-.19.43,0,.87.36a8.25,8.25,0,0,1-.77-1.42S1031.26,310.8,1032,311.57Z"/><path class="cls-2" d="M1029.91,314.38l-.18,0c0,.22-.3.36-.11.54a.25.25,0,0,1,.35,0C1030,314.68,1029.86,314.53,1029.91,314.38Z"/><path class="cls-2" d="M1038.77,319.84l-.18,0c0,.22-.3.37-.11.54a.25.25,0,0,1,.35,0C1038.8,320.14,1038.72,320,1038.77,319.84Z"/><path class="cls-2" d="M1031,317.91l-.18,0c0,.22-.3.36-.11.54a.25.25,0,0,1,.35,0C1031.06,318.22,1031,318.06,1031,317.91Z"/><path class="cls-2" d="M1038,315.19l-.18,0c0,.22-.3.36-.11.54a.25.25,0,0,1,.35-.05C1038,315.49,1038,315.34,1038,315.19Z"/><path class="cls-2" d="M1034,314.13l-.29,0c0,.36-.48.59-.18.87a.4.4,0,0,1,.56-.08C1034.05,314.62,1033.91,314.37,1034,314.13Z"/><path class="cls-2" d="M1034.68,323l-.29,0c0,.36-.48.59-.18.87a.4.4,0,0,1,.56-.08C1034.75,323.47,1034.61,323.22,1034.68,323Z"/><path class="cls-2" d="M1026.65,320l-.18,0c0,.22-.3.37-.11.54a.25.25,0,0,1,.35,0C1026.69,320.31,1026.6,320.15,1026.65,320Z"/><path class="cls-2" d="M1027.85,318.6c-.14.09-.25.24-.4.25l0,.18c.21-.06.42.13.52-.12A.25.25,0,0,1,1027.85,318.6Z"/><path class="cls-2" d="M1031.88,320.77c-.14.09-.25.23-.4.25l0,.18c.21-.07.42.13.52-.12A.25.25,0,0,1,1031.88,320.77Z"/><path class="cls-2" d="M1029.13,313.6c-.14.08-.25.23-.4.25l0,.18c.21-.07.42.13.52-.12A.25.25,0,0,1,1029.13,313.6Z"/><path class="cls-2" d="M1126.69,330.47a.37.37,0,0,1-.35.39c.18.16.43.25.52.46l.23-.15C1126.9,330.89,1127.07,330.48,1126.69,330.47Z"/><path class="cls-2" d="M1126.86,334.44c-.14.08-.25.22-.41.23l0,.18c.21-.06.45.14.54-.1A.25.25,0,0,1,1126.86,334.44Z"/><path class="cls-2" d="M1119.5,348.35a.25.25,0,0,1-.23.27c.13.1.31.14.38.27l.15-.11C1119.66,348.62,1119.76,348.34,1119.5,348.35Z"/><path class="cls-2" d="M1119,343.43l-.14,0c0,.16-.24.25-.09.39a.21.21,0,0,1,.28,0C1119,343.65,1119,343.53,1119,343.43Z"/><path class="cls-2" d="M1126.46,342.68l-.14,0c0,.16-.24.25-.09.39a.21.21,0,0,1,.28,0C1126.49,342.91,1126.42,342.79,1126.46,342.68Z"/><path class="cls-2" d="M1128.25,340.79l-.14,0c0,.16-.24.25-.09.39a.21.21,0,0,1,.28,0C1128.28,341,1128.21,340.89,1128.25,340.79Z"/><path class="cls-2" d="M1134.19,349.56c-.14.08-.25.22-.41.23l0,.17c.22-.05.45.14.54-.1A.25.25,0,0,1,1134.19,349.56Z"/><path class="cls-2" d="M1126.42,339.75l.41.22c.25-.46,1-.52.72-1.08A4,4,0,0,0,1126.42,339.75Z"/><path class="cls-2" d="M1123.16,347.95a3.66,3.66,0,0,0,.29-1.34l-.47.07C1123.09,347.19,1122.55,347.69,1123.16,347.95Z"/><path class="cls-2" d="M1127.1,349.14s.59.66,1-.31c-.22,0-.2-.38,0-.94A8.22,8.22,0,0,1,1127.1,349.14Z"/><path class="cls-2" d="M1133.9,361.85c-.14.08-.25.22-.41.23l0,.18c.21-.06.45.14.54-.1A.25.25,0,0,1,1133.9,361.85Z"/><path class="cls-2" d="M1118.87,332.31c-.14.08-.25.22-.41.23l0,.18c.21-.06.45.14.54-.1A.25.25,0,0,1,1118.87,332.31Z"/><path class="cls-2" d="M1139.3,356.21c-.14.08-.25.21-.41.23l0,.17c.21-.06.45.14.54-.1A.25.25,0,0,1,1139.3,356.21Z"/><path class="cls-2" d="M1114.85,334.76c-.14.08-.25.22-.41.23l0,.18c.21-.06.45.14.54-.1A.25.25,0,0,1,1114.85,334.76Z"/><path class="cls-2" d="M1131.36,340.61c-.23.12-.41.35-.66.37l.08.28c.35-.09.73.22.87-.16A.4.4,0,0,1,1131.36,340.61Z"/><path class="cls-2" d="M1130.89,347.29c-.23.12-.41.35-.66.37l.08.28c.35-.09.73.22.87-.16A.4.4,0,0,1,1130.89,347.29Z"/><path class="cls-2" d="M1123.59,343.46c-.14.08-.25.22-.41.23l0,.18c.22-.06.45.14.54-.1A.25.25,0,0,1,1123.59,343.46Z"/><path class="cls-2" d="M1121.66,342.85a.25.25,0,0,1-.23.27c.13.1.31.14.38.27l.16-.11C1121.83,343.12,1121.93,342.84,1121.66,342.85Z"/><path class="cls-2" d="M1125.44,335.19a.25.25,0,0,1-.23.27c.13.1.31.14.38.27l.16-.11C1125.61,335.46,1125.71,335.18,1125.44,335.19Z"/><path class="cls-2" d="M1136.77,351.86a.25.25,0,0,1-.23.27c.13.1.31.14.38.27l.16-.11C1136.94,352.13,1137,351.85,1136.77,351.86Z"/><path class="cls-2" d="M1122.14,338.3a.25.25,0,0,1-.23.27c.13.1.31.14.38.27l.16-.1C1122.31,338.56,1122.41,338.29,1122.14,338.3Z"/><path class="cls-2" d="M1127.06,348.08a.25.25,0,0,1-.23.27c.13.1.31.14.38.27l.15-.11C1127.23,348.35,1127.33,348.07,1127.06,348.08Z"/><path class="cls-4" d="M1038.66,285.23c-.22.1-.39.3-.62.31l.05.27c.32-.07.64.25.79-.1A.37.37,0,0,1,1038.66,285.23Z"/><path class="cls-4" d="M1035.08,283.9l-.18,0c0,.22-.3.36-.11.54a.25.25,0,0,1,.35,0C1035.12,284.2,1035,284,1035.08,283.9Z"/><path class="cls-4" d="M1027.62,270.41c-.14.08-.25.23-.4.25l0,.18c.21-.06.42.13.52-.12A.25.25,0,0,1,1027.62,270.41Z"/><path class="cls-4" d="M1029.54,273.35a.21.21,0,0,1-.09.27c.11,0,.25,0,.33.09l.08-.12C1029.72,273.5,1029.72,273.26,1029.54,273.35Z"/><path class="cls-4" d="M1032.9,272l-.18,0c0,.22-.3.37-.11.54a.25.25,0,0,1,.35-.05C1032.94,272.31,1032.85,272.16,1032.9,272Z"/><path class="cls-4" d="M1038.54,285.07c.33.41.1,1.14.73,1.07a4,4,0,0,0-.37-1.37Z"/><path class="cls-4" d="M1024,275.84a3.67,3.67,0,0,0,1.13.78l.11-.46C1024.76,276.07,1024.5,275.38,1024,275.84Z"/><path class="cls-4" d="M1033.3,269c.13-.19.43,0,.87.36a8.26,8.26,0,0,1-.77-1.42S1032.57,268.26,1033.3,269Z"/><path class="cls-4" d="M1031.22,271.84l-.18,0c0,.22-.3.36-.11.54a.25.25,0,0,1,.35,0C1031.26,272.15,1031.17,272,1031.22,271.84Z"/><path class="cls-4" d="M1031.22,267.72l-.18,0c0,.22-.3.37-.11.54a.25.25,0,0,1,.35,0C1031.26,268,1031.17,267.87,1031.22,267.72Z"/><path class="cls-4" d="M1116.92,285.9l-.18,0c0,.22-.3.37-.11.54a.25.25,0,0,1,.35,0C1117,286.2,1116.87,286,1116.92,285.9Z"/><path class="cls-4" d="M1032.32,275.38l-.18,0c0,.22-.3.36-.11.54a.25.25,0,0,1,.35,0C1032.36,275.68,1032.28,275.53,1032.32,275.38Z"/><path class="cls-4" d="M1039.32,272.65l-.18,0c0,.22-.3.36-.11.54a.25.25,0,0,1,.35-.05C1039.36,273,1039.27,272.8,1039.32,272.65Z"/><path class="cls-4" d="M1035.29,271.59l-.29,0c0,.36-.48.59-.18.87a.4.4,0,0,1,.56-.08C1035.36,272.08,1035.22,271.83,1035.29,271.59Z"/><path class="cls-4" d="M1107.58,291.3l-.29,0c0,.36-.48.59-.18.87a.4.4,0,0,1,.56-.08C1107.64,291.8,1107.5,291.55,1107.58,291.3Z"/><path class="cls-4" d="M1036,280.45l-.29,0c0,.36-.48.59-.18.87a.4.4,0,0,1,.56-.08C1036.06,280.93,1035.92,280.69,1036,280.45Z"/><path class="cls-4" d="M1028,277.47l-.18,0c0,.22-.3.37-.11.54a.25.25,0,0,1,.35,0C1028,277.77,1027.91,277.62,1028,277.47Z"/><path class="cls-4" d="M1029.16,276.06c-.14.09-.25.24-.4.25l0,.18c.21-.06.42.13.52-.12A.25.25,0,0,1,1029.16,276.06Z"/><path class="cls-4" d="M1033.19,278.23c-.14.09-.25.23-.4.25l0,.18c.21-.07.42.13.52-.12A.25.25,0,0,1,1033.19,278.23Z"/><path class="cls-4" d="M1030.43,271.07c-.14.08-.25.23-.4.25l0,.18c.21-.07.42.13.52-.12A.25.25,0,0,1,1030.43,271.07Z"/><path class="cls-4" d="M1034,400.18c-.14.08-.25.23-.4.25l0,.18c.21-.06.42.13.52-.12A.25.25,0,0,1,1034,400.18Z"/><path class="cls-4" d="M1035.94,403.12a.21.21,0,0,1-.09.27c.11,0,.25,0,.33.09l.08-.12C1036.12,403.27,1036.12,403,1035.94,403.12Z"/><path class="cls-4" d="M1039.29,401.78l-.18,0c0,.22-.3.37-.11.54a.25.25,0,0,1,.35-.05C1039.33,402.08,1039.25,401.93,1039.29,401.78Z"/><path class="cls-4" d="M1022.87,411l-.18,0c0,.22-.3.37-.11.54a.25.25,0,0,1,.35-.05C1022.91,411.35,1022.82,411.2,1022.87,411Z"/><path class="cls-4" d="M1039.7,398.8c.13-.19.43,0,.87.36a8.25,8.25,0,0,1-.77-1.42S1039,398,1039.7,398.8Z"/><path class="cls-4" d="M1020.33,371.82c.13-.19.43,0,.87.36a8.25,8.25,0,0,1-.77-1.42S1019.6,371.06,1020.33,371.82Z"/><path class="cls-4" d="M1025,426.36c.13-.19.43,0,.87.36a8.25,8.25,0,0,1-.77-1.42S1024.26,425.6,1025,426.36Z"/><path class="cls-4" d="M1037.62,401.61l-.18,0c0,.22-.3.36-.11.54a.25.25,0,0,1,.35,0C1037.66,401.92,1037.57,401.76,1037.62,401.61Z"/><path class="cls-4" d="M1037.62,397.49l-.18,0c0,.22-.3.37-.11.54a.25.25,0,0,1,.35,0C1037.66,397.79,1037.57,397.64,1037.62,397.49Z"/><path class="cls-4" d="M1038.72,405.15l-.18,0c0,.22-.3.36-.11.54a.25.25,0,0,1,.35,0C1038.76,405.45,1038.68,405.3,1038.72,405.15Z"/><path class="cls-4" d="M1067.35,363.91l-.18,0c0,.22-.3.36-.11.54a.25.25,0,0,1,.35-.05C1067.39,364.21,1067.3,364.06,1067.35,363.91Z"/><path class="cls-4" d="M1058.92,380.54l-.29,0c0,.36-.48.59-.18.87a.4.4,0,0,1,.56-.08C1059,381,1058.84,380.78,1058.92,380.54Z"/><path class="cls-4" d="M1034.36,407.24l-.18,0c0,.22-.3.37-.11.54a.25.25,0,0,1,.35,0C1034.4,407.54,1034.31,407.39,1034.36,407.24Z"/><path class="cls-4" d="M1035.55,405.83c-.14.09-.25.24-.4.25l0,.18c.21-.06.42.13.52-.12A.25.25,0,0,1,1035.55,405.83Z"/><path class="cls-4" d="M1039.59,408c-.14.09-.25.23-.4.25l0,.18c.21-.07.42.13.52-.12A.25.25,0,0,1,1039.59,408Z"/><path class="cls-4" d="M1126.91,371.85c-.14.09-.25.23-.4.25l0,.18c.21-.07.42.13.52-.12A.25.25,0,0,1,1126.91,371.85Z"/><path class="cls-4" d="M1144.58,421.05c-.14.09-.25.23-.4.25l0,.18c.21-.07.42.13.52-.12A.25.25,0,0,1,1144.58,421.05Z"/><path class="cls-4" d="M1036.83,400.83c-.14.08-.25.23-.4.25l0,.18c.21-.07.42.13.52-.12A.25.25,0,0,1,1036.83,400.83Z"/><path class="cls-4" d="M1103.87,420.83c-.14.08-.25.23-.4.25l0,.18c.21-.07.42.13.52-.12A.25.25,0,0,1,1103.87,420.83Z"/><path class="cls-4" d="M1107.88,287.77c-.14.08-.25.23-.4.25l0,.18c.21-.07.42.13.52-.12A.25.25,0,0,1,1107.88,287.77Z"/><path class="cls-4" d="M1144.89,389.31l-.18,0c0,.22-.3.37-.11.54a.25.25,0,0,1,.35,0C1144.93,389.61,1144.84,389.46,1144.89,389.31Z"/><path class="cls-4" d="M1143.72,390.89l-.29,0c0,.36-.48.59-.18.87a.4.4,0,0,1,.56-.08C1143.78,391.38,1143.64,391.13,1143.72,390.89Z"/><path class="cls-4" d="M1144,387.35c-.14.08-.25.23-.4.25l0,.18c.21-.07.42.13.52-.12A.25.25,0,0,1,1144,387.35Z"/><path class="cls-2" d="M1098.7,150l-.22.14c.17.25,0,.62.38.63a.35.35,0,0,1,.34-.35C1099,150.23,1098.78,150.15,1098.7,150Z"/><path class="cls-2" d="M1092.83,164a.28.28,0,0,1-.08.37c.16,0,.34,0,.47.09l.09-.17C1093.1,164.17,1093.06,163.86,1092.83,164Z"/><path class="cls-2" d="M1098.52,156.7a.28.28,0,0,1,.1.36c.16,0,.3-.15.46-.13v-.19C1098.85,156.75,1098.67,156.48,1098.52,156.7Z"/><path class="cls-2" d="M1102.19,139.1c.09.21-.08.47.19.53a.25.25,0,0,1,.29-.21c-.1-.14-.27-.23-.3-.39Z"/><path class="cls-2" d="M1097.5,166.41a.45.45,0,0,1,.15.59c.25-.06.49-.25.74-.2v-.32C1098,166.48,1097.74,166.06,1097.5,166.41Z"/><path class="cls-2" d="M1093.18,149.85a.57.57,0,0,1,.77.21c.11-.34.06-.74.29-1l-.36-.21C1093.63,149.28,1092.94,149.33,1093.18,149.85Z"/><path class="cls-2" d="M1102.76,148.12l-.17.18c.17.22.07.65.37.59a.4.4,0,0,1,.25-.43C1103.06,148.34,1102.85,148.31,1102.76,148.12Z"/><path class="cls-4" d="M1118.92,277.24l-.24,0c-.07.27-.46.44-.23.65a.38.38,0,0,1,.48-.06C1118.93,277.61,1118.83,277.42,1118.92,277.24Z"/><path class="cls-2" d="M1158.63,409.63a3.42,3.42,0,0,0,.39-1.15l-.4,0C1158.66,409,1158.15,409.37,1158.63,409.63Z"/><path class="cls-2" d="M1158.55,415.52c-.23.09-.43.28-.66.26l0,.28c.33,0,.62.32.82,0A.39.39,0,0,1,1158.55,415.52Z"/><path class="cls-2" d="M1162.56,409.73c.31.22.3.74.72.6a.44.44,0,0,1,.22-.57c-.26-.1-.56-.09-.75-.28Z"/><path class="cls-2" d="M1153.25,410.45l-.31-.06c-.07.37-.55.59-.25.9a.44.44,0,0,1,.61,0C1153.29,411,1153.15,410.7,1153.25,410.45Z"/><path class="cls-2" d="M1166,401.32c0,.1,0,.18-.12.25.12,0,.26,0,.34.09l.1-.12C1166.14,401.47,1166.16,401.25,1166,401.32Z"/><path class="cls-2" d="M1162.32,396.74l-.19,0c-.05.21-.35.34-.18.5a.29.29,0,0,1,.37,0C1162.33,397,1162.25,396.88,1162.32,396.74Z"/><path class="cls-2" d="M1147.21,396.79l-.19,0c-.05.21-.35.34-.18.5a.29.29,0,0,1,.37,0C1147.22,397.07,1147.14,396.93,1147.21,396.79Z"/><path class="cls-2" d="M1156.52,412.74l-.19,0c-.05.21-.35.34-.18.5a.29.29,0,0,1,.37,0C1156.52,413,1156.45,412.88,1156.52,412.74Z"/><path class="cls-2" d="M1159.23,403l-.19,0c-.05.21-.35.34-.18.5a.29.29,0,0,1,.37,0C1159.24,403.29,1159.16,403.14,1159.23,403Z"/><path class="cls-2" d="M1148.58,402.81c-.16.08-.29.22-.45.23l0,.17c.23-.06.43.13.56-.11A.21.21,0,0,1,1148.58,402.81Z"/><path class="cls-2" d="M1144.33,391.67c-.16.08-.29.22-.45.23l0,.17c.23-.06.43.13.56-.11A.21.21,0,0,1,1144.33,391.67Z"/><path class="cls-2" d="M1151.58,402.62c0,.1,0,.18-.12.25.12,0,.26,0,.34.09l.1-.12C1151.76,402.76,1151.78,402.54,1151.58,402.62Z"/><path class="cls-2" d="M1169.55,383.87c.3.39,0,1.07.65,1a3.24,3.24,0,0,0-.24-1.29Z"/><path class="cls-2" d="M1170.91,381.94l-.3,0c-.09.33-.57.55-.29.82a.47.47,0,0,1,.6-.07C1170.92,382.4,1170.8,382.16,1170.91,381.94Z"/><path class="cls-2" d="M1141,408.66c-.16.08-.29.22-.45.23l0,.17c.23-.06.43.13.56-.11A.21.21,0,0,1,1141,408.66Z"/><path class="cls-2" d="M1159.18,395.45c-.15.08-.29.22-.45.23l0,.17c.23-.06.43.13.56-.11A.21.21,0,0,1,1159.18,395.45Z"/><path class="cls-2" d="M1170.15,401.26c-.1.21-.1.47-.27.61l.21.19c.2-.24.63-.17.53-.54A.39.39,0,0,1,1170.15,401.26Z"/><path class="cls-2" d="M1172,408.89c.06.42-.38.76.06,1a.46.46,0,0,1,.63-.2c-.11-.29-.35-.55-.34-.84Z"/><path class="cls-2" d="M1167.68,412.69c-.11.18-.14.42-.3.53l.17.18c.2-.21.59-.13.53-.46A.33.33,0,0,1,1167.68,412.69Z"/><path class="cls-2" d="M1165.69,424.26A5.34,5.34,0,0,0,1165,426h.6C1165.59,425.29,1166.38,424.73,1165.69,424.26Z"/><path class="cls-2" d="M1164.37,417c0,.06,0,.14,0,.19l.07,0c0-.08.17-.09.13-.18A.11.11,0,0,1,1164.37,417Z"/><path class="cls-2" d="M1160.74,417.3c0,.06,0,.14,0,.19l.07,0c0-.08.18-.09.13-.18A.11.11,0,0,1,1160.74,417.3Z"/><path class="cls-2" d="M1162.81,417.33c0,.1,0,.22-.08.3l.11.07c.07-.13.28-.14.21-.3A.18.18,0,0,1,1162.81,417.33Z"/><path class="cls-2" d="M1166.31,416.07c-.08,0-.16,0-.23,0l0,.09c.1,0,.16.17.25.09A.12.12,0,0,1,1166.31,416.07Z"/><path class="cls-4" d="M1108.89,378.3c0-.07.07-.14,0-.21s-.24-.06-.35-.11a1.93,1.93,0,0,0-.77-.79c.08.53-.55.75,0,1-.77.11,1.07.46,1,.51.14.23.12.09.15.4l.2.06.23,0C1109.39,378.84,1109.37,378.41,1108.89,378.3Z"/><path class="cls-2" d="M1140.5,84.55a.56.56,0,0,1,.69.39c.18-.31.23-.71.51-.91l-.3-.29C1141.06,84.09,1140.39,84,1140.5,84.55Z"/><path class="cls-2" d="M1031,341.3c0,.22.17.43.12.64l.25,0c0-.3.38-.52.11-.74A.35.35,0,0,1,1031,341.3Z"/><path class="cls-2" d="M1032,342.54a.35.35,0,0,1,.25.42c.19-.12.33-.34.53-.37l-.07-.25C1032.42,342.45,1032.1,342.19,1032,342.54Z"/><path class="cls-2" d="M1043.25,327.43l-.1.18c.2.11.23.43.47.3a.28.28,0,0,1,.1-.37C1043.56,327.5,1043.38,327.53,1043.25,327.43Z"/><path class="cls-2" d="M1026.54,360.46c0,.22.17.43.12.64l.25,0c0-.31.38-.52.11-.75A.35.35,0,0,1,1026.54,360.46Z"/><path class="cls-2" d="M1028.89,360.59c0,.22.17.43.12.64l.25,0c0-.3.38-.52.11-.74A.35.35,0,0,1,1028.89,360.59Z"/><path class="cls-2" d="M1016,353.54c0,.22.18.43.12.64l.26,0c0-.31.38-.52.11-.75A.35.35,0,0,1,1016,353.54Z"/><path class="cls-2" d="M1037.64,343.25a.56.56,0,0,1-.78.14c.06.36.28.69.19,1l.41,0C1037.5,344,1038.08,343.61,1037.64,343.25Z"/><path class="cls-2" d="M1044.93,352a.56.56,0,0,1-.78.14c.06.36.28.69.19,1l.41,0C1044.79,352.73,1045.38,352.38,1044.93,352Z"/><path class="cls-2" d="M1023.93,360.63a.56.56,0,0,1-.78.14c.06.35.28.69.19,1l.41,0C1023.78,361.34,1024.37,361,1023.93,360.63Z"/><path class="cls-2" d="M1033,352.67c0,.22.17.43.12.64l.25,0c0-.3.38-.52.11-.75A.35.35,0,0,1,1033,352.67Z"/><path class="cls-2" d="M1031.3,354.88a.35.35,0,0,1,.25.42c.19-.12.33-.34.53-.37l-.07-.25C1031.73,354.79,1031.41,354.53,1031.3,354.88Z"/><path class="cls-2" d="M1029.93,361.83a.35.35,0,0,1,.25.42c.19-.12.33-.34.53-.37l-.07-.25C1030.36,361.74,1030,361.48,1029.93,361.83Z"/><path class="cls-4" d="M1125.89,357.27a2.56,2.56,0,0,0,.31-.85l-.3,0C1125.93,356.78,1125.54,357.07,1125.89,357.27Z"/><path class="cls-2" d="M1089.37,328.51a.28.28,0,0,1,.05.37c.16,0,.32-.12.47-.07l0-.19C1089.69,328.59,1089.54,328.31,1089.37,328.51Z"/><path class="cls-2" d="M1089.18,408.58l-.27.19c.23.33,0,.86.5.86a.46.46,0,0,1,.41-.5C1089.6,408.94,1089.29,408.84,1089.18,408.58Z"/><path class="cls-2" d="M1077.28,407.91a.57.57,0,0,1,.71.41c.17-.34.19-.78.46-1l-.31-.31C1077.82,407.4,1077.14,407.29,1077.28,407.91Z"/><path class="cls-2" d="M1079.09,362.06c-.05.17,0,.38-.15.51l.17.12c.12-.21.45-.21.35-.49A.28.28,0,0,1,1079.09,362.06Z"/><path class="cls-2" d="M1104.26,359.51c0-.25.33-.36,1-.37a9.11,9.11,0,0,1-1.71-.58S1103.07,359.43,1104.26,359.51Z"/><path class="cls-2" d="M1102.29,385a.35.35,0,0,1-.37.33c.14.18.36.29.42.5l.23-.11C1102.43,385.47,1102.64,385.09,1102.29,385Z"/><path class="cls-2" d="M1106.5,382.14a5.54,5.54,0,0,0,1.47,1.31l.2-.63C1107.47,382.6,1107.19,381.58,1106.5,382.14Z"/><path class="cls-2" d="M1070,387.94c-.16.05-.3.18-.46.15v.21c.23,0,.41.26.55,0A.29.29,0,0,1,1070,387.94Z"/><path class="cls-2" d="M1087.38,376.24a.57.57,0,0,1,.57.55c.25-.26.4-.63.72-.76l-.21-.35C1088,375.94,1087.42,375.66,1087.38,376.24Z"/><path class="cls-2" d="M1095.24,404.14a.57.57,0,0,1,.58.55c.25-.26.4-.64.72-.76l-.21-.36C1095.9,403.84,1095.28,403.56,1095.24,404.14Z"/><path class="cls-2" d="M1092.81,381.2c.25.17.23.58.57.47a.35.35,0,0,1,.2-.45c-.21-.08-.46-.07-.61-.22Z"/><path class="cls-2" d="M1085.66,392a.35.35,0,0,1,.36.34c.16-.16.24-.39.45-.47l-.13-.22C1086.07,391.79,1085.68,391.62,1085.66,392Z"/><path class="cls-2" d="M1057.46,399.1c.31,0,.42.44.38,1.27a11.5,11.5,0,0,1,.84-2.09S1057.64,397.63,1057.46,399.1Z"/><path class="cls-2" d="M1055.13,392c.25.17.23.58.57.47a.35.35,0,0,1,.2-.45c-.21-.08-.46-.07-.61-.22Z"/><path class="cls-2" d="M1048.75,388.59a.28.28,0,0,1-.31.22c.1.13.27.22.3.38l.19-.07C1048.83,388.91,1049,388.65,1048.75,388.59Z"/><path class="cls-2" d="M1075.11,387.93a.35.35,0,0,1,.43.24c.11-.2.14-.44.32-.57l-.18-.18C1075.46,387.65,1075,387.58,1075.11,387.93Z"/><path class="cls-2" d="M1059,375.83a.35.35,0,0,1,.43.24c.11-.19.14-.44.32-.57l-.18-.18C1059.37,375.55,1059,375.48,1059,375.83Z"/><path class="cls-2" d="M1057.37,380.7a.35.35,0,0,1,.43.24c.11-.19.14-.44.32-.56l-.18-.18C1057.72,380.42,1057.31,380.35,1057.37,380.7Z"/><path class="cls-2" d="M1056.11,384.22l-.11.24c.28.1.36.51.67.31a.35.35,0,0,1,.08-.49C1056.53,384.25,1056.29,384.33,1056.11,384.22Z"/><path class="cls-2" d="M1058.88,373.91l-.11.24c.28.1.36.51.67.31a.35.35,0,0,1,.08-.49C1059.31,374,1059.06,374,1058.88,373.91Z"/><path class="cls-2" d="M1070.59,362.23a.28.28,0,0,1-.31.22c.1.13.27.22.3.38l.19-.07C1070.68,362.55,1070.86,362.29,1070.59,362.23Z"/><path class="cls-2" d="M1074.67,363.93a.35.35,0,0,1,.43.24c.11-.19.14-.44.31-.56l-.18-.18C1075,363.64,1074.6,363.58,1074.67,363.93Z"/><path class="cls-2" d="M1043.47,411.87a5.67,5.67,0,0,0,.71-1.85l-.65,0C1043.57,410.79,1042.72,411.41,1043.47,411.87Z"/><path class="cls-2" d="M1070.82,410a5.29,5.29,0,0,0,.62,1.83l.5-.41C1071.44,410.91,1071.72,409.92,1070.82,410Z"/><path class="cls-2" d="M1062.44,415.35c.29-.1.51.32.68,1.14a11.56,11.56,0,0,1,.3-2.24S1062.25,413.87,1062.44,415.35Z"/><path class="cls-2" d="M1092.72,361.42c.29-.1.51.32.68,1.14a11.59,11.59,0,0,1,.3-2.24S1092.53,360,1092.72,361.42Z"/><path class="cls-2" d="M1072.94,362.32a.35.35,0,0,1,.43.24c.11-.19.14-.44.31-.57l-.18-.18C1073.29,362,1072.88,362,1072.94,362.32Z"/><path class="cls-2" d="M1078.35,376a.35.35,0,0,1,.43.24c.11-.2.14-.45.32-.57l-.18-.18C1078.7,375.7,1078.29,375.63,1078.35,376Z"/><path class="cls-2" d="M1101.37,411.08a.35.35,0,0,1,.43.24c.11-.19.14-.44.32-.57l-.18-.18C1101.72,410.79,1101.31,410.73,1101.37,411.08Z"/><path class="cls-2" d="M1087.12,372.29a.56.56,0,0,1,.69.39c.18-.31.23-.72.51-.92l-.3-.29C1087.68,371.83,1087,371.72,1087.12,372.29Z"/><path class="cls-2" d="M1055.56,370.3a.56.56,0,0,1,.69.39c.18-.31.23-.71.51-.91l-.3-.29C1056.12,369.85,1055.45,369.74,1055.56,370.3Z"/><path class="cls-2" d="M1055.56,358.9a.56.56,0,0,1,.69.39c.18-.31.23-.71.51-.91l-.29-.29C1056.12,358.44,1055.45,358.33,1055.56,358.9Z"/><path class="cls-2" d="M1077.22,365.7a.56.56,0,0,1,.69.39c.18-.31.23-.71.51-.91l-.3-.29C1077.78,365.25,1077.11,365.14,1077.22,365.7Z"/><path class="cls-2" d="M1061.82,382.63a.56.56,0,0,1,.69.39c.18-.32.23-.72.51-.92l-.3-.29C1062.39,382.17,1061.72,382.06,1061.82,382.63Z"/><path class="cls-2" d="M1064.74,365.79a.35.35,0,0,1,.43.24c.11-.19.14-.44.31-.57l-.18-.18C1065.09,365.51,1064.68,365.44,1064.74,365.79Z"/><path class="cls-2" d="M1067.31,364.87l-.11.24c.28.1.36.51.67.31a.35.35,0,0,1,.08-.49C1067.73,364.9,1067.49,365,1067.31,364.87Z"/><path class="cls-2" d="M1072.8,360.4l-.11.24c.28.1.36.51.67.31a.35.35,0,0,1,.08-.49C1073.22,360.44,1073,360.51,1072.8,360.4Z"/><path class="cls-2" d="M1100.68,414.51c-.05.17,0,.38-.15.51l.17.12c.13-.21.45-.21.35-.49A.28.28,0,0,1,1100.68,414.51Z"/><path class="cls-2" d="M1092.18,414.68a.28.28,0,0,1-.31.22c.1.13.27.22.3.38l.19-.07C1092.27,415,1092.45,414.74,1092.18,414.68Z"/><path class="cls-2" d="M1074.67,416a.35.35,0,0,1,.43.24c.11-.19.14-.44.31-.56l-.18-.18C1075,415.67,1074.6,415.6,1074.67,416Z"/><path class="cls-2" d="M1094.54,414.77a.35.35,0,0,1,.43.24c.11-.19.14-.44.31-.57l-.18-.18C1094.89,414.48,1094.47,414.42,1094.54,414.77Z"/><path class="cls-2" d="M1088.9,417.32l-.11.24c.28.1.36.51.67.31a.35.35,0,0,1,.08-.49C1089.32,417.35,1089.08,417.42,1088.9,417.32Z"/><path class="cls-2" d="M1094.39,412.85l-.11.24c.28.1.36.51.67.31a.35.35,0,0,1,.08-.49C1094.82,412.89,1094.57,413,1094.39,412.85Z"/><path class="cls-2" d="M1082.78,361.29l-.11.24c.28.1.36.51.67.31a.35.35,0,0,1,.08-.49C1083.2,361.33,1083,361.4,1082.78,361.29Z"/><path class="cls-4" d="M1090.94,425.14c-.05.17,0,.38-.15.51l.17.12c.12-.21.45-.21.35-.49A.28.28,0,0,1,1090.94,425.14Z"/><path class="cls-4" d="M1042.76,375.92c-.05.17,0,.38-.15.51l.17.12c.12-.21.45-.21.35-.49A.28.28,0,0,1,1042.76,375.92Z"/><path class="cls-4" d="M1086.52,427a.35.35,0,0,1,.43.24c.11-.19.14-.44.31-.56l-.18-.18C1086.87,426.72,1086.46,426.65,1086.52,427Z"/><path class="cls-4" d="M1084.8,425.39a.35.35,0,0,1,.43.24c.11-.19.14-.44.31-.57l-.18-.18C1085.15,425.11,1084.73,425,1084.8,425.39Z"/><path class="cls-4" d="M995.42,424.2a.35.35,0,0,1,.43.24c.11-.19.14-.44.31-.57l-.18-.18C995.77,423.92,995.36,423.86,995.42,424.2Z"/><path class="cls-4" d="M1089.07,428.78a.56.56,0,0,1,.69.39c.18-.31.23-.71.51-.91l-.3-.29C1089.63,428.32,1089,428.21,1089.07,428.78Z"/><path class="cls-4" d="M1111.86,394a.56.56,0,0,1,.69.39c.18-.31.23-.71.51-.91l-.3-.29C1112.43,393.54,1111.76,393.43,1111.86,394Z"/><path class="cls-4" d="M1084.65,423.48l-.11.24c.28.1.36.51.67.31a.35.35,0,0,1,.08-.49C1085.08,423.51,1084.83,423.58,1084.65,423.48Z"/><path class="cls-4" d="M1094.63,424.37l-.11.24c.28.1.36.51.67.31a.35.35,0,0,1,.08-.49C1095.05,424.41,1094.81,424.48,1094.63,424.37Z"/><path class="cls-4" d="M1061.54,418l-.11.24c.28.1.36.51.67.31a.35.35,0,0,1,.08-.49C1062,418.08,1061.72,418.15,1061.54,418Z"/><path class="cls-2" d="M1101.47,360.63l-.11.24c.28.1.36.51.67.31a.35.35,0,0,1,.08-.49C1101.89,360.67,1101.65,360.74,1101.47,360.63Z"/><path class="cls-2" d="M1055.16,411.9a.57.57,0,0,1-.25.76c.34.12.73.1,1,.34l.23-.35C1055.71,412.38,1055.7,411.7,1055.16,411.9Z"/><path class="cls-2" d="M1073.65,384.78a.39.39,0,0,1-.14.47c.18.08.4.06.53.21l.12-.21C1073.94,385.08,1073.93,384.65,1073.65,384.78Z"/><path class="cls-2" d="M1089.05,406.87a.24.24,0,0,1-.25.22c.1.12.25.19.29.33l.16-.08C1089.15,407.16,1089.29,406.91,1089.05,406.87Z"/><path class="cls-2" d="M1088.84,409.41c-.1,0-.18.12-.28.11l0,.12c.14,0,.27.12.35,0A.16.16,0,0,1,1088.84,409.41Z"/><path class="cls-2" d="M1074.26,344.67l.24.18c.2-.27.68-.25.54-.63A2.56,2.56,0,0,0,1074.26,344.67Z"/><path class="cls-2" d="M1084,407.4c-.1,0-.18.12-.28.11l0,.12c.14,0,.27.12.35,0A.16.16,0,0,1,1084,407.4Z"/><path class="cls-2" d="M1081.25,408.63c-.1,0-.18.12-.28.11l0,.12c.14,0,.27.12.35,0A.16.16,0,0,1,1081.25,408.63Z"/><path class="cls-2" d="M1070.27,393.78c-.16.06-.29.19-.45.18l0,.19c.23,0,.44.2.56,0A.26.26,0,0,1,1070.27,393.78Z"/><path class="cls-7" d="M102.08,20.85a.93.93,0,0,0,0,1.48.89.89,0,0,0,1.48,0,1,1,0,0,0-1.48-1.48m2.59,5a.93.93,0,0,0,0,1.48,1,1,0,0,0,1.54,0,.93.93,0,0,0,0-1.48A1,1,0,0,0,104.68,25.82Zm-2.59-2.49a1,1,0,1,0,1.48,0A.93.93,0,0,0,102.08,23.33Zm2.59,5a.93.93,0,0,0,0,1.48.94.94,0,0,0,1.54,0,.93.93,0,0,0,0-1.48A1,1,0,0,0,104.68,28.31Zm-2.59-2.49a1,1,0,1,0,1.48,0A.93.93,0,0,0,102.08,25.82Zm0,2.49a.93.93,0,0,0,0,1.48.89.89,0,0,0,1.48,0,1,1,0,0,0-1.48-1.48Zm-7.89-7.47a.93.93,0,0,0,0,1.48.89.89,0,0,0,1.48,0,1,1,0,0,0-1.48-1.48Zm7.89,10a1,1,0,0,0,0,1.54.93.93,0,0,0,1.48,0,1,1,0,0,0,0-1.54A.93.93,0,0,0,102.08,30.8Zm-2.65-2.49a.93.93,0,0,0,0,1.48,1,1,0,1,0,1.48-1.48A.93.93,0,0,0,99.43,28.31Zm-5.24-5a1,1,0,1,0,1.48,0A.93.93,0,0,0,94.19,23.33Zm5.24,7.47a1,1,0,0,0,0,1.54.93.93,0,0,0,1.48,0,.94.94,0,0,0,0-1.54A.93.93,0,0,0,99.43,30.8Zm-2.59-2.49a.93.93,0,0,0,0,1.48.89.89,0,0,0,1.48,0,1,1,0,0,0-1.48-1.48Zm-2.65-2.49a1,1,0,1,0,1.48,0A.93.93,0,0,0,94.19,25.82Zm5.24,7.47a1,1,0,0,0,0,1.54.93.93,0,0,0,1.48,0,1,1,0,0,0,0-1.54A.93.93,0,0,0,99.43,33.29ZM96.84,30.8a1,1,0,0,0,0,1.54.93.93,0,0,0,1.48,0,1,1,0,0,0,0-1.54A.93.93,0,0,0,96.84,30.8Zm-2.65-2.49a.93.93,0,0,0,0,1.48.89.89,0,0,0,1.48,0,1,1,0,0,0-1.48-1.48Zm-2.6-2.49a.89.89,0,0,0,0,1.48,1,1,0,0,0,1.48-1.48A.93.93,0,0,0,91.6,25.82Zm7.84,10a1,1,0,0,0,0,1.54.93.93,0,0,0,1.48,0,1,1,0,0,0,0-1.54A.93.93,0,0,0,99.43,35.78Zm-2.59-2.49a1,1,0,0,0,0,1.54.93.93,0,0,0,1.48,0,1,1,0,0,0,0-1.54A.93.93,0,0,0,96.84,33.29ZM94.19,30.8a1,1,0,0,0,0,1.54.93.93,0,0,0,1.48,0,1,1,0,0,0,0-1.54A.93.93,0,0,0,94.19,30.8Zm-2.6-2.49a1,1,0,1,0,1.48,1.48,1,1,0,0,0-1.48-1.48Zm15.73,17.47a1,1,0,1,0,1.48,0A.93.93,0,0,0,107.32,45.79Zm-2.65-2.49a.93.93,0,0,0,0,1.48,1,1,0,0,0,1.54,0,.93.93,0,0,0,0-1.48A1,1,0,0,0,104.68,43.3Zm-2.59-2.49a1,1,0,1,0,1.48,0A.89.89,0,0,0,102.08,40.81Zm-2.65-2.49a1,1,0,0,0,1.48,1.48,1,1,0,1,0-1.48-1.48Zm-2.59-2.54a1,1,0,0,0,0,1.54.93.93,0,0,0,1.48,0,1,1,0,0,0,0-1.54A.93.93,0,0,0,96.84,35.78Zm13.08,15a1,1,0,0,0,0,1.48.94.94,0,0,0,1.54,0,.93.93,0,0,0,0-1.48A.94.94,0,0,0,109.92,50.76Zm-2.59-2.49a1,1,0,1,0,1.48,0A.93.93,0,0,0,107.32,48.27Zm-2.65-2.49a.93.93,0,0,0,0,1.48,1,1,0,0,0,1.54,0,.93.93,0,0,0,0-1.48A1,1,0,0,0,104.68,45.79Zm-2.59-2.49a1,1,0,1,0,1.48,0A.93.93,0,0,0,102.08,43.3Zm-2.65-2.49a1,1,0,0,0,1.48,1.48,1,1,0,1,0-1.48-1.48Zm-2.59-2.49a1,1,0,1,0,1.48,0A.89.89,0,0,0,96.84,38.32Zm13.08,14.93a1,1,0,0,0,0,1.48.94.94,0,0,0,1.54,0,.93.93,0,0,0,0-1.48A1,1,0,0,0,109.92,53.25Zm-2.59-2.49a.93.93,0,0,0,0,1.48.89.89,0,0,0,1.48,0,.93.93,0,0,0,0-1.48A.89.89,0,0,0,107.32,50.76Zm-5.24-5a1,1,0,1,0,1.48,0A.93.93,0,0,0,102.08,45.79ZM99.43,43.3a1,1,0,0,0,1.48,1.48.89.89,0,0,0,0-1.48A.93.93,0,0,0,99.43,43.3Zm-2.59-2.49a1,1,0,1,0,1.48,0A.89.89,0,0,0,96.84,40.81Zm13.08,14.93a1.07,1.07,0,0,0,1.54,1.48.93.93,0,0,0,0-1.48A1,1,0,0,0,109.92,55.74Zm-2.59-2.49a.93.93,0,0,0,0,1.48.89.89,0,0,0,1.48,0,1,1,0,1,0-1.48-1.48Zm-2.65-2.49a1,1,0,0,0,0,1.48.94.94,0,0,0,1.54,0,1,1,0,0,0,0-1.48A.94.94,0,0,0,104.68,50.76Zm-2.59-2.49a1,1,0,1,0,1.48,0A.93.93,0,0,0,102.08,48.27Zm-5.24-5a1,1,0,1,0,1.48,0A.93.93,0,0,0,96.84,43.3Zm-2.65-2.49a1,1,0,1,0,1.48,0A.89.89,0,0,0,94.19,40.81Zm15.73,17.42a1.07,1.07,0,0,0,1.54,1.48.93.93,0,0,0,0-1.48A1,1,0,0,0,109.92,58.23Zm-2.59-2.49a1,1,0,1,0,1.48,0A.93.93,0,0,0,107.32,55.74Zm-2.65-2.49a1,1,0,0,0,0,1.48.94.94,0,0,0,1.54,0,1.07,1.07,0,1,0-1.54-1.48Zm-5.24-5a1,1,0,0,0,1.48,1.48.89.89,0,0,0,0-1.48A.93.93,0,0,0,99.43,48.27Zm-5.24-5a1,1,0,1,0,1.48,0A.93.93,0,0,0,94.19,43.3Zm15.73,17.42a1,1,0,0,0,0,1.48.94.94,0,0,0,1.54,0,.93.93,0,0,0,0-1.48A1,1,0,0,0,109.92,60.72Zm-2.59-2.49a1,1,0,1,0,1.48,0A.93.93,0,0,0,107.32,58.23Zm-2.65-2.49a.93.93,0,0,0,0,1.48,1,1,0,0,0,1.54,0,.93.93,0,0,0,0-1.48A1,1,0,0,0,104.68,55.74Zm-2.59-2.49a.93.93,0,0,0,0,1.48.89.89,0,0,0,1.48,0,1,1,0,0,0-1.48-1.48Zm-2.65-2.49a1,1,0,0,0,0,1.48.89.89,0,0,0,1.48,0,.93.93,0,0,0,0-1.48A.89.89,0,0,0,99.43,50.76Zm-2.59-2.49a1,1,0,1,0,1.48,0A.93.93,0,0,0,96.84,48.27Zm-2.65-2.49a1,1,0,1,0,1.48,0A.93.93,0,0,0,94.19,45.79ZM91.6,43.3a.89.89,0,0,0,0,1.48,1,1,0,1,0,0-1.48Zm18.32,19.91a1,1,0,0,0,0,1.54,1.09,1.09,0,1,0,0-1.54Zm-2.59-2.49a.93.93,0,0,0,0,1.48.89.89,0,0,0,1.48,0,1,1,0,1,0-1.48-1.48Zm-2.65-2.49a.93.93,0,0,0,0,1.48,1,1,0,0,0,1.54,0,.93.93,0,0,0,0-1.48A1,1,0,0,0,104.68,58.23Zm-5.24-5a1,1,0,0,0,0,1.48.89.89,0,0,0,1.48,0,1,1,0,1,0-1.48-1.48Zm-2.59-2.49a.93.93,0,0,0,0,1.48.89.89,0,0,0,1.48,0,.93.93,0,0,0,0-1.48A.89.89,0,0,0,96.84,50.76Zm-2.65-2.49a1,1,0,1,0,1.48,0A.93.93,0,0,0,94.19,48.27Zm-2.6-2.49a.89.89,0,0,0,0,1.48,1,1,0,1,0,0-1.48Zm18.32,19.91a1,1,0,0,0,0,1.54,1.09,1.09,0,1,0,0-1.54Zm-2.59-2.49a1,1,0,0,0,0,1.54.93.93,0,0,0,1.48,0,1,1,0,0,0,0-1.54A.93.93,0,0,0,107.32,63.21Zm-2.65-2.49a.93.93,0,0,0,0,1.48.94.94,0,0,0,1.54,0,.93.93,0,0,0,0-1.48A1,1,0,0,0,104.68,60.72Zm-5.24-5a1,1,0,0,0,1.48,1.48.89.89,0,0,0,0-1.48A.93.93,0,0,0,99.43,55.74Zm-2.59-2.49a.93.93,0,0,0,0,1.48.89.89,0,0,0,1.48,0,1,1,0,0,0-1.48-1.48ZM89,45.79a1,1,0,1,0,1.48,0A.93.93,0,0,0,89,45.79Zm13.13,14.93a.93.93,0,0,0,0,1.48.89.89,0,0,0,1.48,0,1,1,0,0,0-1.48-1.48Zm-2.65-2.49a1,1,0,0,0,1.48,1.48.89.89,0,0,0,0-1.48A.93.93,0,0,0,99.43,58.23Zm-2.59-2.49a1,1,0,1,0,1.48,0A.93.93,0,0,0,96.84,55.74Zm-2.65-2.49a.93.93,0,0,0,0,1.48.89.89,0,0,0,1.48,0,1,1,0,0,0-1.48-1.48Zm-2.6-2.49a.93.93,0,0,0,0,1.48.89.89,0,0,0,1.48,0,1,1,0,0,0,0-1.48A.89.89,0,0,0,91.6,50.76ZM89,48.27a1,1,0,1,0,1.48,0A.93.93,0,0,0,89,48.27Zm13.13,14.93a1,1,0,0,0,0,1.54.93.93,0,0,0,1.48,0,1,1,0,0,0,0-1.54A.93.93,0,0,0,102.08,63.21Zm-2.65-2.49a.93.93,0,0,0,0,1.48,1,1,0,1,0,1.48-1.48A.93.93,0,0,0,99.43,60.72Zm-2.59-2.49a1,1,0,1,0,1.48,0A.93.93,0,0,0,96.84,58.23Zm-5.24-5a.93.93,0,0,0,0,1.48.89.89,0,0,0,1.48,0,1,1,0,0,0,0-1.48A.93.93,0,0,0,91.6,53.25ZM89,50.76a.93.93,0,0,0,0,1.48.89.89,0,0,0,1.48,0,.93.93,0,0,0,0-1.48A.89.89,0,0,0,89,50.76Zm18.74,19.8a.8.8,0,0,0-.42.79.76.76,0,0,0,.42.74.71.71,0,0,0,.74,0,.78.78,0,0,0,.37-.74.83.83,0,0,0-.37-.79A.91.91,0,0,0,107.69,70.57ZM96.84,60.72a.93.93,0,0,0,0,1.48.89.89,0,0,0,1.48,0,1,1,0,0,0-1.48-1.48Zm-5.24-5a.89.89,0,0,0,0,1.48,1,1,0,1,0,0-1.48ZM89,53.25a.93.93,0,0,0,0,1.48.89.89,0,0,0,1.48,0A1,1,0,0,0,89,53.25ZM86.3,50.76a1,1,0,0,0,0,1.48.94.94,0,0,0,1.54,0,1,1,0,0,0,0-1.48A.94.94,0,0,0,86.3,50.76Zm7.89,10a.93.93,0,0,0,0,1.48.89.89,0,0,0,1.48,0,1,1,0,0,0-1.48-1.48Zm-2.6-2.49a.89.89,0,0,0,0,1.48,1,1,0,1,0,0-1.48ZM89,55.74a1,1,0,1,0,1.48,0A.93.93,0,0,0,89,55.74ZM86.3,53.25a1,1,0,0,0,0,1.48.94.94,0,0,0,1.54,0,1.07,1.07,0,0,0-1.54-1.48Zm21.39,21.92a.8.8,0,0,0-.42.79.76.76,0,0,0,.42.74.71.71,0,0,0,.74,0,.78.78,0,0,0,.37-.74.83.83,0,0,0-.37-.79A.9.9,0,0,0,107.69,75.17Zm-5.24-4.61a.8.8,0,0,0-.42.79.76.76,0,0,0,.42.74.71.71,0,0,0,.74,0,.78.78,0,0,0,.37-.74.83.83,0,0,0-.37-.79A.91.91,0,0,0,102.45,70.57Zm-8.26-7.36a1,1,0,0,0,0,1.54.93.93,0,0,0,1.48,0,1,1,0,0,0,0-1.54A.93.93,0,0,0,94.19,63.21Zm-2.6-2.49a1,1,0,1,0,1.48,1.48,1,1,0,0,0-1.48-1.48ZM89,58.23a1,1,0,1,0,1.48,0A.93.93,0,0,0,89,58.23ZM86.3,55.74a.93.93,0,0,0,0,1.48,1,1,0,0,0,1.54,0,.93.93,0,0,0,0-1.48A1,1,0,0,0,86.3,55.74Zm2.65,5a.93.93,0,0,0,0,1.48.89.89,0,0,0,1.48,0A1,1,0,0,0,89,60.72ZM86.3,58.23a.93.93,0,0,0,0,1.48,1,1,0,0,0,1.54,0,.93.93,0,0,0,0-1.48A1,1,0,0,0,86.3,58.23Zm21.39,21.55a.8.8,0,0,0-.42.79.76.76,0,0,0,.42.74.91.91,0,0,0,.74,0,.78.78,0,0,0,.37-.74.83.83,0,0,0-.37-.79A.9.9,0,0,0,107.69,79.78Zm-5.24-4.61A.8.8,0,0,0,102,76a.76.76,0,0,0,.42.74.71.71,0,0,0,.74,0,.78.78,0,0,0,.37-.74.83.83,0,0,0-.37-.79A.9.9,0,0,0,102.45,75.17ZM89,63.21a1,1,0,0,0,0,1.54.93.93,0,0,0,1.48,0,1,1,0,0,0,0-1.54A.93.93,0,0,0,89,63.21ZM86.3,60.72a.93.93,0,0,0,0,1.48.94.94,0,0,0,1.54,0,.93.93,0,0,0,0-1.48A1,1,0,0,0,86.3,60.72Zm8.26,9.85a.83.83,0,0,0-.37.79.78.78,0,0,0,.37.74.71.71,0,0,0,.74,0,.76.76,0,0,0,.42-.74.8.8,0,0,0-.42-.79A.91.91,0,0,0,94.56,70.57ZM86.3,63.21a1.09,1.09,0,1,0,1.54,0A1,1,0,0,0,86.3,63.21Zm16.15,16.57a.8.8,0,0,0-.42.79.76.76,0,0,0,.42.74.91.91,0,0,0,.74,0,.78.78,0,0,0,.37-.74.83.83,0,0,0-.37-.79A.9.9,0,0,0,102.45,79.78ZM86.3,65.69a1,1,0,0,0,0,1.54,1,1,0,0,0,1.54,0,1,1,0,0,0,0-1.54A1,1,0,0,0,86.3,65.69Zm8.26,9.48a.83.83,0,0,0-.37.79.78.78,0,0,0,.37.74.71.71,0,0,0,.74,0,.76.76,0,0,0,.42-.74.8.8,0,0,0-.42-.79A.7.7,0,0,0,94.56,75.17Zm-5.24-4.61a.83.83,0,0,0-.37.79.78.78,0,0,0,.37.74.71.71,0,0,0,.74,0,.76.76,0,0,0,.42-.74.8.8,0,0,0-.42-.79A.91.91,0,0,0,89.32,70.57Zm5.24,9.21a.83.83,0,0,0-.37.79.78.78,0,0,0,.37.74.71.71,0,0,0,.74,0,.76.76,0,0,0,.42-.74.8.8,0,0,0-.42-.79A.7.7,0,0,0,94.56,79.78Zm-5.24-4.61A.83.83,0,0,0,89,76a.78.78,0,0,0,.37.74.71.71,0,0,0,.74,0,.76.76,0,0,0,.42-.74.8.8,0,0,0-.42-.79A.9.9,0,0,0,89.32,75.17Zm0,4.61a.83.83,0,0,0-.37.79.78.78,0,0,0,.37.74.91.91,0,0,0,.74,0,.76.76,0,0,0,.42-.74.8.8,0,0,0-.42-.79A.9.9,0,0,0,89.32,79.78Z"/><path class="cls-7" d="M63.71,19.89a1.07,1.07,0,0,0,1.54,1.48.93.93,0,0,0,0-1.48,1,1,0,0,0-1.54,0m-2.6-2.49a.93.93,0,0,0,0,1.48.89.89,0,0,0,1.48,0,.93.93,0,0,0,0-1.48A.93.93,0,0,0,61.11,17.4Zm2.6,5a1.07,1.07,0,0,0,1.54,1.48.93.93,0,0,0,0-1.48A1,1,0,0,0,63.71,22.38Zm-2.6-2.49a1,1,0,1,0,1.48,0A.93.93,0,0,0,61.11,19.89ZM58.46,17.4a1,1,0,0,0,0,1.48.94.94,0,0,0,1.54,0,1,1,0,0,0,0-1.48A1,1,0,0,0,58.46,17.4Zm5.24,7.47a1,1,0,0,0,0,1.48.94.94,0,0,0,1.54,0,.93.93,0,0,0,0-1.48A1,1,0,0,0,63.71,24.87Zm-2.6-2.49a1,1,0,1,0,1.48,0A.93.93,0,0,0,61.11,22.38Zm-5.24-5a.93.93,0,0,0,0,1.48.89.89,0,0,0,1.48,0,.93.93,0,0,0,0-1.48A.93.93,0,0,0,55.87,17.4Zm7.84,10a1,1,0,0,0,0,1.54,1.09,1.09,0,1,0,1.54-1.54A1,1,0,0,0,63.71,27.36Zm-5.24-5a.93.93,0,0,0,0,1.48,1,1,0,0,0,1.54,0,.93.93,0,0,0,0-1.48A1,1,0,0,0,58.46,22.38Zm5.24,7.47a1,1,0,0,0,0,1.54,1.09,1.09,0,1,0,1.54-1.54A1,1,0,0,0,63.71,29.85Zm-5.24-5a.93.93,0,0,0,0,1.48.94.94,0,0,0,1.54,0,.93.93,0,0,0,0-1.48A1,1,0,0,0,58.46,24.87Zm-2.6-2.49a1,1,0,1,0,1.48,0A.93.93,0,0,0,55.87,22.38Zm-2.65-2.49a1,1,0,1,0,1.48,1.48.89.89,0,0,0,0-1.48A.93.93,0,0,0,53.22,19.89ZM50.63,17.4a.93.93,0,0,0,0,1.48.89.89,0,0,0,1.48,0,.93.93,0,0,0,0-1.48A.93.93,0,0,0,50.63,17.4ZM63.71,32.34a1,1,0,0,0,0,1.54,1.09,1.09,0,1,0,0-1.54Zm-5.24-5a1.09,1.09,0,1,0,1.54,0A1,1,0,0,0,58.46,27.36Zm-2.6-2.49a.93.93,0,0,0,0,1.48.89.89,0,0,0,1.48,0,1,1,0,1,0-1.48-1.48Zm-5.24-5a1,1,0,1,0,1.48,0A.93.93,0,0,0,50.63,19.89ZM48,17.4a.93.93,0,0,0,0,1.48.89.89,0,0,0,1.48,0,.93.93,0,0,0,0-1.48A.93.93,0,0,0,48,17.4ZM63.71,34.82a1,1,0,0,0,0,1.54,1.09,1.09,0,1,0,0-1.54Zm-2.6-2.49a1,1,0,0,0,0,1.54.93.93,0,0,0,1.48,0,1,1,0,0,0,0-1.54A.93.93,0,0,0,61.11,32.34Zm-2.65-2.49a1,1,0,0,0,0,1.54,1,1,0,0,0,1.54,0,1,1,0,0,0,0-1.54A1,1,0,0,0,58.46,29.85Zm-2.6-2.49a1,1,0,0,0,0,1.54.93.93,0,0,0,1.48,0,1,1,0,0,0,0-1.54A.93.93,0,0,0,55.87,27.36Zm-2.65-2.49a.93.93,0,0,0,0,1.48,1,1,0,0,0,1.48-1.48A.93.93,0,0,0,53.22,24.87Zm-2.59-2.49a1,1,0,1,0,1.48,0A.93.93,0,0,0,50.63,22.38ZM48,19.89a1,1,0,1,0,1.48,0A.93.93,0,0,0,48,19.89ZM45.39,17.4a.93.93,0,0,0,0,1.48.89.89,0,0,0,1.48,0,1,1,0,0,0,0-1.48A.93.93,0,0,0,45.39,17.4ZM61.11,34.82a1,1,0,0,0,0,1.54.93.93,0,0,0,1.48,0,1,1,0,0,0,0-1.54A.93.93,0,0,0,61.11,34.82Zm-2.65-2.49a1,1,0,0,0,0,1.54,1,1,0,0,0,1.54,0,1,1,0,0,0,0-1.54A1,1,0,0,0,58.46,32.34Zm-2.6-2.49a1,1,0,0,0,0,1.54.93.93,0,0,0,1.48,0,1,1,0,0,0,0-1.54A.93.93,0,0,0,55.87,29.85Zm-2.65-2.49a1,1,0,0,0,0,1.54.93.93,0,0,0,1.48,0,.94.94,0,0,0,0-1.54A.93.93,0,0,0,53.22,27.36Zm-5.24-5a1,1,0,1,0,1.48,0A.93.93,0,0,0,48,22.38Zm-2.59-2.49a.89.89,0,0,0,0,1.48,1,1,0,0,0,1.48-1.48A.93.93,0,0,0,45.39,19.89ZM42.74,17.4a.93.93,0,0,0,0,1.48.89.89,0,0,0,1.48,0,.93.93,0,0,0,0-1.48A.93.93,0,0,0,42.74,17.4Zm18.37,20a1,1,0,1,0,1.48,0A.89.89,0,0,0,61.11,37.37Zm-2.65-2.54a1.09,1.09,0,1,0,1.54,0A1,1,0,0,0,58.46,34.82Zm-2.6-2.49a1,1,0,0,0,0,1.54.93.93,0,0,0,1.48,0,1,1,0,0,0,0-1.54A.93.93,0,0,0,55.87,32.34Zm-2.65-2.49a1,1,0,0,0,0,1.54.93.93,0,0,0,1.48,0,1,1,0,0,0,0-1.54A.93.93,0,0,0,53.22,29.85Zm-2.59-2.49a1,1,0,0,0,0,1.54.93.93,0,0,0,1.48,0,1,1,0,0,0,0-1.54A.93.93,0,0,0,50.63,27.36Zm-5.24-5a.89.89,0,0,0,0,1.48,1,1,0,1,0,1.48-1.48A.93.93,0,0,0,45.39,22.38Zm-2.65-2.49a1,1,0,1,0,1.48,0A.93.93,0,0,0,42.74,19.89ZM40.09,17.4a1,1,0,0,0,0,1.48.94.94,0,0,0,1.54,0,1,1,0,0,0,0-1.48A1,1,0,0,0,40.09,17.4Zm21,22.45a1,1,0,1,0,1.48,0A.93.93,0,0,0,61.11,39.85Zm-5.24-5a1,1,0,0,0,0,1.54.93.93,0,0,0,1.48,0,1,1,0,0,0,0-1.54A.93.93,0,0,0,55.87,34.82Zm-2.65-2.49a1,1,0,0,0,0,1.54.93.93,0,0,0,1.48,0,1,1,0,0,0,0-1.54A.93.93,0,0,0,53.22,32.34Zm-2.59-2.49a1,1,0,0,0,0,1.54.93.93,0,0,0,1.48,0,1,1,0,0,0,0-1.54A.93.93,0,0,0,50.63,29.85ZM48,27.36a1,1,0,0,0,0,1.54.93.93,0,0,0,1.48,0,1,1,0,0,0,0-1.54A.93.93,0,0,0,48,27.36Zm-2.59-2.49a1,1,0,0,0,1.48,1.48,1,1,0,1,0-1.48-1.48Zm-2.65-2.49a1,1,0,1,0,1.48,0A.93.93,0,0,0,42.74,22.38Zm-2.65-2.49a.93.93,0,0,0,0,1.48,1,1,0,0,0,1.54,0,.93.93,0,0,0,0-1.48A1,1,0,0,0,40.09,19.89ZM37.5,17.4a.93.93,0,0,0,0,1.48.89.89,0,0,0,1.48,0,.93.93,0,0,0,0-1.48A.93.93,0,0,0,37.5,17.4ZM61.11,42.34a1,1,0,1,0,1.48,0A.93.93,0,0,0,61.11,42.34Zm-5.24-5a1,1,0,1,0,1.48,0A.89.89,0,0,0,55.87,37.37Zm-2.65-2.54a1,1,0,0,0,0,1.54.93.93,0,0,0,1.48,0,.94.94,0,0,0,0-1.54A.93.93,0,0,0,53.22,34.82Zm-5.24-5a1,1,0,0,0,0,1.54.93.93,0,0,0,1.48,0,1,1,0,0,0,0-1.54A.93.93,0,0,0,48,29.85Zm-5.24-5a.93.93,0,0,0,0,1.48.89.89,0,0,0,1.48,0,1,1,0,1,0-1.48-1.48Zm-2.65-2.49a.93.93,0,0,0,0,1.48,1,1,0,0,0,1.54,0,.93.93,0,0,0,0-1.48A1,1,0,0,0,40.09,22.38Zm-2.6-2.49a1,1,0,1,0,1.48,0A.93.93,0,0,0,37.5,19.89Zm18.37,20a1,1,0,1,0,1.48,0A.93.93,0,0,0,55.87,39.85Zm-2.65-2.49a1,1,0,1,0,1.48,1.48,1,1,0,0,0-1.48-1.48Zm-5.24-5a1,1,0,0,0,0,1.54.93.93,0,0,0,1.48,0,1,1,0,0,0,0-1.54A.93.93,0,0,0,48,32.34Zm-2.59-2.49a1,1,0,0,0,0,1.54.93.93,0,0,0,1.48,0,1,1,0,0,0,0-1.54A.93.93,0,0,0,45.39,29.85ZM37.5,22.38a1,1,0,1,0,1.48,0A.93.93,0,0,0,37.5,22.38Zm-2.65-2.49a.93.93,0,0,0,0,1.48,1.07,1.07,0,1,0,1.54-1.48A1,1,0,0,0,34.85,19.89Zm-2.6-2.49a.93.93,0,0,0,0,1.48.93.93,0,0,0,1.48,0,.93.93,0,0,0,0-1.48A.93.93,0,0,0,32.25,17.4ZM58.46,44.83a1,1,0,0,0,0,1.48,1,1,0,0,0,1.54,0,1,1,0,0,0,0-1.48A.94.94,0,0,0,58.46,44.83Zm-2.6-2.49a1,1,0,1,0,1.48,0A.93.93,0,0,0,55.87,42.34Zm-2.65-2.49a1,1,0,1,0,1.48,1.48.89.89,0,0,0,0-1.48A.93.93,0,0,0,53.22,39.85Zm-5.24-5a1,1,0,0,0,0,1.54.93.93,0,0,0,1.48,0,1,1,0,0,0,0-1.54A.93.93,0,0,0,48,34.82Zm-2.59-2.49a1,1,0,0,0,0,1.54.93.93,0,0,0,1.48,0,1,1,0,0,0,0-1.54A.93.93,0,0,0,45.39,32.34Zm-2.65-2.49a1,1,0,0,0,0,1.54.93.93,0,0,0,1.48,0,1,1,0,0,0,0-1.54A.93.93,0,0,0,42.74,29.85Zm-2.65-2.49a1.09,1.09,0,1,0,1.54,0A1,1,0,0,0,40.09,27.36Zm-10.48-10a.93.93,0,0,0,0,1.48.93.93,0,0,0,1.48,0,.89.89,0,0,0,0-1.48A.93.93,0,0,0,29.61,17.4ZM58.46,47.32a1,1,0,0,0,0,1.48.94.94,0,0,0,1.54,0,1,1,0,0,0,0-1.48A.94.94,0,0,0,58.46,47.32Zm-2.6-2.49a1,1,0,1,0,1.48,0A.89.89,0,0,0,55.87,44.83Zm-2.65-2.49a1,1,0,0,0,1.48,1.48.89.89,0,0,0,0-1.48A.93.93,0,0,0,53.22,42.34Zm-5.24-5a1,1,0,1,0,1.48,0A.89.89,0,0,0,48,37.37Zm-2.59-2.54a.94.94,0,0,0,0,1.54.93.93,0,0,0,1.48,0,1,1,0,0,0,0-1.54A.93.93,0,0,0,45.39,34.82Zm-2.65-2.49a1,1,0,0,0,0,1.54.93.93,0,0,0,1.48,0,1,1,0,0,0,0-1.54A.93.93,0,0,0,42.74,32.34Zm-2.65-2.49a1,1,0,0,0,0,1.54,1,1,0,0,0,1.54,0,1,1,0,0,0,0-1.54A1,1,0,0,0,40.09,29.85Zm-2.6-2.49a1,1,0,0,0,0,1.54.93.93,0,0,0,1.48,0,1,1,0,0,0,0-1.54A.93.93,0,0,0,37.5,27.36Zm-2.65-2.49a.93.93,0,0,0,0,1.48.94.94,0,0,0,1.54,0,1,1,0,0,0,0-1.48A1,1,0,0,0,34.85,24.87Zm-2.6-2.49a.89.89,0,0,0,0,1.48.93.93,0,0,0,1.48,0,.89.89,0,0,0,0-1.48A.93.93,0,0,0,32.25,22.38Zm-4.5-5.29a1,1,0,0,0-.74.32.93.93,0,0,0,0,1.48.91.91,0,0,0,.74.32,1,1,0,0,0,.74-.32.93.93,0,0,0,0-1.48A1,1,0,0,0,27.75,17.09ZM58.46,49.81a.93.93,0,0,0,0,1.48,1,1,0,0,0,1.54,0,.93.93,0,0,0,0-1.48A1,1,0,0,0,58.46,49.81Zm-2.6-2.49a.93.93,0,0,0,0,1.48.89.89,0,0,0,1.48,0,.93.93,0,0,0,0-1.48A.89.89,0,0,0,55.87,47.32Zm-2.65-2.49a1,1,0,0,0,0,1.48,1,1,0,0,0,1.48-1.48A.89.89,0,0,0,53.22,44.83Zm-5.24-5a1,1,0,1,0,1.48,0A.93.93,0,0,0,48,39.85Zm-2.59-2.49a.89.89,0,0,0,0,1.48,1,1,0,0,0,1.48-1.48A.89.89,0,0,0,45.39,37.37Zm-2.65-2.54a1,1,0,0,0,0,1.54.93.93,0,0,0,1.48,0,1,1,0,0,0,0-1.54A.93.93,0,0,0,42.74,34.82Zm-2.65-2.49a1,1,0,0,0,0,1.54,1,1,0,0,0,1.54,0,1,1,0,0,0,0-1.54A1,1,0,0,0,40.09,32.34Zm-2.6-2.49a1,1,0,0,0,0,1.54.93.93,0,0,0,1.48,0,1,1,0,0,0,0-1.54A.93.93,0,0,0,37.5,29.85Zm-2.65-2.49a1.09,1.09,0,0,0,1.54,1.54,1,1,0,0,0,0-1.54A1,1,0,0,0,34.85,27.36Zm-2.6-2.49a.89.89,0,0,0,0,1.48.93.93,0,0,0,1.48,0,.89.89,0,0,0,0-1.48A1,1,0,0,0,32.25,24.87Zm-2.65-2.49a1,1,0,0,0,1.48,1.48.89.89,0,0,0,0-1.48A.93.93,0,0,0,29.61,22.38Zm-1.85-2.81a1,1,0,0,0-.74.32.89.89,0,0,0,0,1.48,1,1,0,0,0,1.48,0,.93.93,0,0,0,0-1.48A1,1,0,0,0,27.75,19.57ZM55.87,49.81a1,1,0,1,0,1.48,0A.93.93,0,0,0,55.87,49.81Zm-2.65-2.49a1,1,0,0,0,0,1.48.89.89,0,0,0,1.48,0,.93.93,0,0,0,0-1.48A.89.89,0,0,0,53.22,47.32Zm-2.59-2.49a1,1,0,1,0,1.48,0A.89.89,0,0,0,50.63,44.83ZM48,42.34a1,1,0,1,0,1.48,0A.93.93,0,0,0,48,42.34Zm-5.24-5a1,1,0,1,0,1.48,0A.89.89,0,0,0,42.74,37.37Zm-2.65-2.54a1.09,1.09,0,1,0,1.54,0A1,1,0,0,0,40.09,34.82Zm-5.24-5a1.09,1.09,0,0,0,1.54,1.54,1,1,0,0,0,0-1.54A1,1,0,0,0,34.85,29.85Zm-2.6-2.49a.94.94,0,0,0,0,1.54,1,1,0,0,0,1.48,0,.94.94,0,0,0,0-1.54A1,1,0,0,0,32.25,27.36Zm-2.65-2.49a1,1,0,0,0,1.48,1.48.89.89,0,0,0,0-1.48A1,1,0,0,0,29.61,24.87Zm-1.85-2.81a1,1,0,0,0-.74.32.89.89,0,0,0,0,1.48,1,1,0,0,0,1.48,0,.93.93,0,0,0,0-1.48A1,1,0,0,0,27.75,22.06Zm-3.39-2.17a1,1,0,0,0,1.48,1.48.89.89,0,0,0,0-1.48A.93.93,0,0,0,24.36,19.89ZM55.87,52.3a1,1,0,1,0,1.48,0A.93.93,0,0,0,55.87,52.3Zm-2.65-2.49a1,1,0,1,0,1.48,1.48.89.89,0,0,0,0-1.48A.93.93,0,0,0,53.22,49.81Zm-2.59-2.49a.93.93,0,0,0,0,1.48.89.89,0,0,0,1.48,0,.93.93,0,0,0,0-1.48A.89.89,0,0,0,50.63,47.32Zm-5.24-5a.89.89,0,0,0,0,1.48,1,1,0,1,0,0-1.48Zm-5.29-5a.93.93,0,0,0,0,1.48,1,1,0,0,0,1.54,0,.93.93,0,0,0,0-1.48A.94.94,0,0,0,40.09,37.37Zm-5.24-5a1.09,1.09,0,0,0,1.54,1.54,1,1,0,0,0,0-1.54A1,1,0,0,0,34.85,32.34Zm-2.6-2.49a1,1,0,0,0,0,1.54.93.93,0,0,0,1.48,0,1,1,0,0,0,0-1.54A.93.93,0,0,0,32.25,29.85Zm-2.65-2.49a1.07,1.07,0,0,0,1.48,1.54.94.94,0,0,0,0-1.54A1,1,0,0,0,29.61,27.36Zm-5.24-5a1,1,0,0,0,1.48,1.48.89.89,0,0,0,0-1.48A.93.93,0,0,0,24.36,22.38ZM55.87,54.79a1,1,0,1,0,1.48,0A.93.93,0,0,0,55.87,54.79ZM53.22,52.3a1,1,0,0,0,1.48,1.48.89.89,0,0,0,0-1.48A.93.93,0,0,0,53.22,52.3Zm-2.59-2.49a1,1,0,1,0,1.48,0A.93.93,0,0,0,50.63,49.81ZM48,47.32a.93.93,0,0,0,0,1.48.89.89,0,0,0,1.48,0,.93.93,0,0,0,0-1.48A.89.89,0,0,0,48,47.32Zm-2.59-2.49a1,1,0,1,0,1.48,1.48,1,1,0,0,0,0-1.48A.89.89,0,0,0,45.39,44.83Zm-2.65-2.49a1,1,0,1,0,1.48,0A.93.93,0,0,0,42.74,42.34Zm-2.65-2.49a.93.93,0,0,0,0,1.48,1,1,0,0,0,1.54,0,.93.93,0,0,0,0-1.48A1,1,0,0,0,40.09,39.85Zm-5.24-5a1.09,1.09,0,0,0,1.54,1.54,1,1,0,0,0,0-1.54A1,1,0,0,0,34.85,34.82Zm-2.6-2.49a1,1,0,0,0,0,1.54.93.93,0,0,0,1.48,0,1,1,0,0,0,0-1.54A.93.93,0,0,0,32.25,32.34Zm-2.65-2.49a1,1,0,0,0,0,1.54.93.93,0,0,0,1.48,0,.94.94,0,0,0,0-1.54A.93.93,0,0,0,29.61,29.85Zm-5.24-5a1,1,0,0,0,1.48,1.48.89.89,0,0,0,0-1.48A1,1,0,0,0,24.36,24.87ZM55.87,57.28a.93.93,0,0,0,0,1.48.89.89,0,0,0,1.48,0,1,1,0,1,0-1.48-1.48Zm-2.65-2.49a1,1,0,1,0,1.48,1.48.89.89,0,0,0,0-1.48A.93.93,0,0,0,53.22,54.79ZM50.63,52.3a1,1,0,1,0,1.48,0A.93.93,0,0,0,50.63,52.3Zm-7.89-7.47a1,1,0,1,0,1.48,0A.89.89,0,0,0,42.74,44.83Zm-2.65-2.49a.93.93,0,0,0,0,1.48,1,1,0,0,0,1.54,0,.93.93,0,0,0,0-1.48A1,1,0,0,0,40.09,42.34Zm-5.24-5a.93.93,0,0,0,0,1.48,1,1,0,0,0,1.54,0,1,1,0,0,0,0-1.48A.94.94,0,0,0,34.85,37.37Zm-2.6-2.54a.94.94,0,0,0,0,1.54,1,1,0,0,0,1.48,0,.94.94,0,0,0,0-1.54A1,1,0,0,0,32.25,34.82Zm-2.65-2.49a1,1,0,0,0,0,1.54.93.93,0,0,0,1.48,0,.94.94,0,0,0,0-1.54A.93.93,0,0,0,29.61,32.34Zm-5.24-5a1,1,0,0,0,0,1.54,1,1,0,0,0,1.48,0,.94.94,0,0,0,0-1.54A1,1,0,0,0,24.36,27.36ZM53.22,57.28a.93.93,0,0,0,0,1.48,1,1,0,0,0,1.48-1.48A.93.93,0,0,0,53.22,57.28Zm-2.59-2.49a1,1,0,1,0,1.48,0A.93.93,0,0,0,50.63,54.79Zm-5.24-5a.89.89,0,0,0,0,1.48,1,1,0,1,0,0-1.48Zm-10.54-10a.93.93,0,0,0,0,1.48,1,1,0,0,0,1.54,0,1.07,1.07,0,1,0-1.54-1.48Zm-2.6-2.49a.89.89,0,0,0,0,1.48,1,1,0,0,0,1.48,0,.89.89,0,0,0,0-1.48A.93.93,0,0,0,32.25,37.37Zm-2.65-2.54a1.07,1.07,0,0,0,1.48,1.54.94.94,0,0,0,0-1.54A1,1,0,0,0,29.61,34.82Zm-1.85-2.75a1.12,1.12,0,0,0-.74.26,1,1,0,0,0,0,1.54,1,1,0,0,0,1.48,0,1,1,0,0,0,0-1.54A1.12,1.12,0,0,0,27.75,32.07Zm-3.39-2.22a1,1,0,0,0,0,1.54.93.93,0,0,0,1.48,0,1,1,0,0,0,0-1.54A.93.93,0,0,0,24.36,29.85ZM53.22,59.76a.93.93,0,0,0,0,1.48,1,1,0,1,0,1.48-1.48A.93.93,0,0,0,53.22,59.76Zm-5.24-5a1,1,0,1,0,1.48,0A.93.93,0,0,0,48,54.79ZM45.39,52.3a.89.89,0,0,0,0,1.48,1,1,0,1,0,0-1.48Zm-2.65-2.49a1,1,0,1,0,1.48,0A.93.93,0,0,0,42.74,49.81Zm-2.65-2.49a1,1,0,0,0,0,1.48.94.94,0,0,0,1.54,0,1,1,0,0,0,0-1.48A.94.94,0,0,0,40.09,47.32Zm-2.6-2.49a1,1,0,1,0,1.48,0A.89.89,0,0,0,37.5,44.83Zm-2.65-2.49a.93.93,0,0,0,0,1.48,1,1,0,0,0,1.54,0,1,1,0,0,0,0-1.48A1,1,0,0,0,34.85,42.34Zm-2.6-2.49a.89.89,0,0,0,0,1.48.93.93,0,0,0,1.48,0,.89.89,0,0,0,0-1.48A.93.93,0,0,0,32.25,39.85Zm-4.5-5.29a1.12,1.12,0,0,0-.74.27.94.94,0,0,0,0,1.54,1.17,1.17,0,0,0,1.48,0,1,1,0,0,0,0-1.54A1.12,1.12,0,0,0,27.75,34.56Zm-3.39-2.22a1,1,0,0,0,0,1.54.93.93,0,0,0,1.48,0,1,1,0,0,0,0-1.54A.93.93,0,0,0,24.36,32.34ZM53.22,62.25a1,1,0,0,0,0,1.54.93.93,0,0,0,1.48,0,1,1,0,0,0,0-1.54A.93.93,0,0,0,53.22,62.25Zm-2.59-2.49a.93.93,0,0,0,0,1.48.89.89,0,0,0,1.48,0,1,1,0,0,0-1.48-1.48ZM48,57.28a.93.93,0,0,0,0,1.48.89.89,0,0,0,1.48,0A1,1,0,1,0,48,57.28Zm-5.24-5a1,1,0,1,0,1.48,0A.93.93,0,0,0,42.74,52.3Zm-5.24-5a.93.93,0,0,0,0,1.48.89.89,0,0,0,1.48,0,.93.93,0,0,0,0-1.48A.89.89,0,0,0,37.5,47.32Zm-2.65-2.49a.93.93,0,0,0,0,1.48,1,1,0,0,0,1.54,0,1,1,0,0,0,0-1.48A.94.94,0,0,0,34.85,44.83Zm-2.6-2.49a.89.89,0,0,0,0,1.48.93.93,0,0,0,1.48,0,.89.89,0,0,0,0-1.48A.93.93,0,0,0,32.25,42.34ZM27.75,37a1,1,0,0,0-.74.32.89.89,0,0,0,0,1.48,1,1,0,0,0,1.48,0,.93.93,0,0,0,0-1.48A1,1,0,0,0,27.75,37Zm-3.39-2.22a1,1,0,0,0,0,1.54,1,1,0,0,0,1.48,0,.94.94,0,0,0,0-1.54A1,1,0,0,0,24.36,34.82ZM53.22,64.74a1,1,0,0,0,0,1.54.93.93,0,0,0,1.48,0,1,1,0,0,0,0-1.54A.93.93,0,0,0,53.22,64.74Zm-2.59-2.49a1,1,0,0,0,0,1.54.93.93,0,0,0,1.48,0,1,1,0,0,0,0-1.54A.93.93,0,0,0,50.63,62.25ZM48,59.76a.93.93,0,0,0,0,1.48.89.89,0,0,0,1.48,0A1,1,0,0,0,48,59.76Zm-2.59-2.49a1,1,0,0,0,1.48,1.48,1,1,0,1,0-1.48-1.48ZM37.5,49.81a1,1,0,1,0,1.48,0A.93.93,0,0,0,37.5,49.81Zm-2.65-2.49a.93.93,0,0,0,0,1.48.94.94,0,0,0,1.54,0,1,1,0,0,0,0-1.48A.94.94,0,0,0,34.85,47.32Zm-2.6-2.49a1,1,0,1,0,1.48,1.48,1,1,0,0,0-1.48-1.48Zm-4.5-5.3a1,1,0,0,0-.74.32.89.89,0,0,0,0,1.48,1,1,0,0,0,1.48,0,.93.93,0,0,0,0-1.48A1,1,0,0,0,27.75,39.54Zm15,17.74a.93.93,0,0,0,0,1.48.89.89,0,0,0,1.48,0,1,1,0,1,0-1.48-1.48Zm-2.65-2.49a.93.93,0,0,0,0,1.48,1,1,0,0,0,1.54,0,.93.93,0,0,0,0-1.48A1,1,0,0,0,40.09,54.79ZM37.5,52.3a1,1,0,1,0,1.48,0A.93.93,0,0,0,37.5,52.3Zm-2.65-2.49a.93.93,0,0,0,0,1.48,1,1,0,0,0,1.54,0,1.07,1.07,0,1,0-1.54-1.48Zm-2.6-2.49a1,1,0,0,0,1.48,1.48,1,1,0,1,0-1.48-1.48Zm-2.65-2.49a1,1,0,1,0,1.48,1.48.89.89,0,0,0,0-1.48A.93.93,0,0,0,29.61,44.83ZM27.75,42a1,1,0,0,0-.74.32.89.89,0,0,0,0,1.48,1,1,0,0,0,1.48,0,.93.93,0,0,0,0-1.48A1,1,0,0,0,27.75,42ZM40.09,57.28a.93.93,0,0,0,0,1.48.94.94,0,0,0,1.54,0,.93.93,0,0,0,0-1.48A1,1,0,0,0,40.09,57.28Zm-2.6-2.49a1,1,0,1,0,1.48,0A.93.93,0,0,0,37.5,54.79ZM34.85,52.3a.93.93,0,0,0,0,1.48,1,1,0,0,0,1.54,0,1.07,1.07,0,1,0-1.54-1.48Zm-2.6-2.49a.89.89,0,0,0,0,1.48.93.93,0,0,0,1.48,0,.89.89,0,0,0,0-1.48A.93.93,0,0,0,32.25,49.81Zm21.34,21a.93.93,0,0,0,0,1.48.8.8,0,0,0,.79,0,.93.93,0,0,0,0-1.48A.79.79,0,0,0,53.59,70.83Zm-24-23.51a1,1,0,0,0,1.48,1.48.89.89,0,0,0,0-1.48A.93.93,0,0,0,29.61,47.32ZM40.09,59.76a.93.93,0,0,0,0,1.48.94.94,0,0,0,1.54,0,.93.93,0,0,0,0-1.48A1,1,0,0,0,40.09,59.76Zm-5.24-5a.93.93,0,0,0,0,1.48,1,1,0,0,0,1.54,0,1,1,0,0,0,0-1.48A1,1,0,0,0,34.85,54.79Zm-2.6-2.49a.89.89,0,0,0,0,1.48.93.93,0,0,0,1.48,0,.89.89,0,0,0,0-1.48A.93.93,0,0,0,32.25,52.3Zm-2.65-2.49a1,1,0,0,0,1.48,1.48.89.89,0,0,0,0-1.48A.93.93,0,0,0,29.61,49.81ZM51,70.83a.7.7,0,0,0-.42.74.76.76,0,0,0,.42.74.71.71,0,0,0,.74,0,.93.93,0,0,0,0-1.48A.7.7,0,0,0,51,70.83Zm2.59,4.5a.93.93,0,0,0,0,1.48.8.8,0,0,0,.79,0,.93.93,0,0,0,0-1.48A.79.79,0,0,0,53.59,75.33ZM37.5,59.76a.93.93,0,0,0,0,1.48.89.89,0,0,0,1.48,0,1,1,0,0,0-1.48-1.48Zm-2.65-2.49a.93.93,0,0,0,0,1.48.94.94,0,0,0,1.54,0,1.07,1.07,0,1,0-1.54-1.48Zm-2.6-2.49a.89.89,0,0,0,0,1.48.93.93,0,0,0,1.48,0,.89.89,0,0,0,0-1.48A.93.93,0,0,0,32.25,54.79ZM51,75.33a.86.86,0,0,0,0,1.48.7.7,0,0,0,.74,0,.93.93,0,0,0,0-1.48A.7.7,0,0,0,51,75.33ZM37.5,62.25a1,1,0,0,0,0,1.54.93.93,0,0,0,1.48,0,1,1,0,0,0,0-1.54A.93.93,0,0,0,37.5,62.25Zm-2.65-2.49a.93.93,0,0,0,0,1.48.94.94,0,0,0,1.54,0,1.07,1.07,0,0,0-1.54-1.48Zm-2.6-2.49a.89.89,0,0,0,0,1.48.93.93,0,0,0,1.48,0,.89.89,0,0,0,0-1.48A1,1,0,0,0,32.25,57.28ZM53.59,79.83c-.25.11-.37.35-.37.74a.78.78,0,0,0,.37.74.8.8,0,0,0,.79,0,.93.93,0,0,0,0-1.48A.79.79,0,0,0,53.59,79.83ZM34.85,62.25a1.09,1.09,0,0,0,1.54,1.54,1,1,0,0,0,0-1.54A1,1,0,0,0,34.85,62.25ZM51,79.83a.7.7,0,0,0-.42.74.76.76,0,0,0,.42.74.7.7,0,0,0,.74,0,.93.93,0,0,0,0-1.48A.7.7,0,0,0,51,79.83ZM34.85,64.74a1.09,1.09,0,0,0,1.54,1.54,1,1,0,0,0,0-1.54A1,1,0,0,0,34.85,64.74Zm3,6.09a.93.93,0,0,0,0,1.48.7.7,0,0,0,.74,0,.86.86,0,0,0,0-1.48A.7.7,0,0,0,37.87,70.83Zm-2.65,0a.93.93,0,0,0,0,1.48.8.8,0,0,0,.79,0,.93.93,0,0,0,0-1.48A.79.79,0,0,0,35.22,70.83Zm2.65,4.5a.93.93,0,0,0,0,1.48.7.7,0,0,0,.74,0,.86.86,0,0,0,0-1.48A.7.7,0,0,0,37.87,75.33Zm-2.65,0a.93.93,0,0,0,0,1.48.8.8,0,0,0,.79,0,.93.93,0,0,0,0-1.48A.79.79,0,0,0,35.22,75.33Zm2.65,4.5a.93.93,0,0,0,0,1.48.7.7,0,0,0,.74,0,.76.76,0,0,0,.42-.74.8.8,0,0,0-1.16-.74Zm-2.65,0a.93.93,0,0,0,0,1.48.8.8,0,0,0,.79,0,.78.78,0,0,0,.37-.74c0-.39-.12-.64-.37-.74A.79.79,0,0,0,35.22,79.83Z"/><path class="cls-7" d="M173.17,31.54a1,1,0,0,0,0,1.48.94.94,0,0,0,1.54,0,.93.93,0,0,0,0-1.48,1,1,0,0,0-1.54,0m0,2.49a1.07,1.07,0,0,0,1.54,1.48.93.93,0,0,0,0-1.48A1,1,0,0,0,173.17,34Zm0,2.49A1.07,1.07,0,0,0,174.7,38a.93.93,0,0,0,0-1.48A1,1,0,0,0,173.17,36.52ZM170.57,34a1,1,0,1,0,1.48,0A.93.93,0,0,0,170.57,34Zm2.59,5a1,1,0,0,0,0,1.48.94.94,0,0,0,1.54,0,.93.93,0,0,0,0-1.48A1,1,0,0,0,173.17,39Zm-2.59-2.49a1,1,0,1,0,1.48,0A.93.93,0,0,0,170.57,36.52Zm0,2.49a.93.93,0,0,0,0,1.48.89.89,0,0,0,1.48,0A1,1,0,1,0,170.57,39Zm-2.65-2.49a.93.93,0,0,0,0,1.48,1,1,0,0,0,1.54,0,.93.93,0,0,0,0-1.48A1,1,0,0,0,167.93,36.52Zm2.65,5a1,1,0,0,0,0,1.54.93.93,0,0,0,1.48,0,1,1,0,0,0,0-1.54A.93.93,0,0,0,170.57,41.5ZM167.93,39a.93.93,0,0,0,0,1.48.94.94,0,0,0,1.54,0,.93.93,0,0,0,0-1.48A1,1,0,0,0,167.93,39Zm-2.6-2.49a1,1,0,1,0,1.48,0A.93.93,0,0,0,165.33,36.52ZM162.68,34a1,1,0,0,0,1.48,1.48.89.89,0,0,0,0-1.48A.93.93,0,0,0,162.68,34Zm-2.6-2.49a.93.93,0,0,0,0,1.48.89.89,0,0,0,1.48,0,1,1,0,1,0-1.48-1.48Zm7.84,10a1.09,1.09,0,1,0,1.54,0A1,1,0,0,0,167.93,41.5ZM165.33,39a.93.93,0,0,0,0,1.48.89.89,0,0,0,1.48,0A1,1,0,0,0,165.33,39Zm-2.65-2.49A1,1,0,0,0,164.17,38a.89.89,0,0,0,0-1.48A.93.93,0,0,0,162.68,36.52ZM160.09,34a1,1,0,1,0,1.48,0A.93.93,0,0,0,160.09,34Zm7.84,10a1,1,0,0,0,0,1.54,1,1,0,0,0,1.54,0,1,1,0,0,0,0-1.54A1,1,0,0,0,167.93,44Zm-5.24-5a.93.93,0,0,0,0,1.48A1,1,0,1,0,164.17,39,.93.93,0,0,0,162.68,39Zm-2.6-2.49a1,1,0,1,0,1.48,0A.93.93,0,0,0,160.09,36.52ZM157.44,34a1,1,0,1,0,1.48,0A.93.93,0,0,0,157.44,34Zm7.89,10a1,1,0,0,0,0,1.54.93.93,0,0,0,1.48,0,1,1,0,0,0,0-1.54A.93.93,0,0,0,165.33,44Zm-2.65-2.49a1,1,0,0,0,0,1.54.93.93,0,0,0,1.48,0,.94.94,0,0,0,0-1.54A.93.93,0,0,0,162.68,41.5ZM160.09,39a.93.93,0,0,0,0,1.48.89.89,0,0,0,1.48,0A1,1,0,0,0,160.09,39Zm-2.65-2.49a1,1,0,1,0,1.48,0A.93.93,0,0,0,157.44,36.52Zm7.89,10a1,1,0,0,0,0,1.54.93.93,0,0,0,1.48,0,1,1,0,0,0,0-1.54A.93.93,0,0,0,165.33,46.47ZM162.68,44a1,1,0,0,0,0,1.54.93.93,0,0,0,1.48,0,1,1,0,0,0,0-1.54A.93.93,0,0,0,162.68,44Zm-2.6-2.49a1,1,0,0,0,0,1.54.93.93,0,0,0,1.48,0,1,1,0,0,0,0-1.54A.93.93,0,0,0,160.09,41.5ZM157.44,39a.93.93,0,0,0,0,1.48.89.89,0,0,0,1.48,0A1,1,0,1,0,157.44,39Zm-2.59-2.49a.89.89,0,0,0,0,1.48,1,1,0,1,0,0-1.48ZM165.33,49a1,1,0,1,0,1.48,0A.89.89,0,0,0,165.33,49Zm-5.24-5a1,1,0,0,0,0,1.54.93.93,0,0,0,1.48,0,1,1,0,0,0,0-1.54A.93.93,0,0,0,160.09,44Zm-2.65-2.49a1,1,0,0,0,0,1.54.93.93,0,0,0,1.48,0,1,1,0,0,0,0-1.54A.93.93,0,0,0,157.44,41.5ZM154.85,39a1,1,0,0,0,1.48,1.48A1,1,0,1,0,154.85,39Zm5.24,7.47a1,1,0,0,0,0,1.54.93.93,0,0,0,1.48,0,1,1,0,0,0,0-1.54A.93.93,0,0,0,160.09,46.47ZM157.44,44a1,1,0,0,0,0,1.54.93.93,0,0,0,1.48,0,1,1,0,0,0,0-1.54A.93.93,0,0,0,157.44,44Zm-2.59-2.49a.94.94,0,0,0,0,1.54.93.93,0,0,0,1.48,0,1,1,0,0,0,0-1.54A.93.93,0,0,0,154.85,41.5ZM152.2,39a.93.93,0,0,0,0,1.48.89.89,0,0,0,1.48,0A1,1,0,1,0,152.2,39Zm-2.65-2.49a.93.93,0,0,0,0,1.48,1,1,0,0,0,1.54,0,.93.93,0,0,0,0-1.48A1,1,0,0,0,149.55,36.52ZM147,34a1,1,0,1,0,1.48,0A.93.93,0,0,0,147,34Zm-2.65-2.49a.93.93,0,0,0,0,1.48.94.94,0,0,0,1.54,0,1,1,0,0,0,0-1.48A1,1,0,0,0,144.31,31.54ZM160.09,49a1,1,0,1,0,1.48,0A.89.89,0,0,0,160.09,49Zm-2.65-2.54a1,1,0,0,0,0,1.54.93.93,0,0,0,1.48,0,1,1,0,0,0,0-1.54A.93.93,0,0,0,157.44,46.47ZM154.85,44a1,1,0,0,0,0,1.54.93.93,0,0,0,1.48,0,1,1,0,0,0,0-1.54A.93.93,0,0,0,154.85,44ZM152.2,41.5a1,1,0,0,0,0,1.54.93.93,0,0,0,1.48,0,1,1,0,0,0,0-1.54A.93.93,0,0,0,152.2,41.5ZM149.55,39a.93.93,0,0,0,0,1.48.94.94,0,0,0,1.54,0,.93.93,0,0,0,0-1.48A1,1,0,0,0,149.55,39ZM147,36.52a1,1,0,1,0,1.48,0A.93.93,0,0,0,147,36.52ZM144.31,34a.93.93,0,0,0,0,1.48,1.07,1.07,0,1,0,0-1.48Zm13.13,15a1,1,0,1,0,1.48,0A.89.89,0,0,0,157.44,49Zm-2.59-2.54a1,1,0,0,0,0,1.54.93.93,0,0,0,1.48,0,1,1,0,0,0,0-1.54A.93.93,0,0,0,154.85,46.47ZM152.2,44a1,1,0,0,0,0,1.54.93.93,0,0,0,1.48,0,1,1,0,0,0,0-1.54A.93.93,0,0,0,152.2,44Zm-2.65-2.49a1.09,1.09,0,1,0,1.54,0A1,1,0,0,0,149.55,41.5ZM147,39a.93.93,0,0,0,0,1.48.89.89,0,0,0,1.48,0A1,1,0,0,0,147,39Zm-2.65-2.49a.93.93,0,0,0,0,1.48,1,1,0,0,0,1.54,0,1,1,0,0,0,0-1.48A1,1,0,0,0,144.31,36.52ZM141.72,34a.89.89,0,0,0,0,1.48.93.93,0,0,0,1.48,0,.89.89,0,0,0,0-1.48A.93.93,0,0,0,141.72,34ZM157.44,51.5a1,1,0,1,0,1.48,0A.89.89,0,0,0,157.44,51.5ZM154.85,49a.89.89,0,0,0,0,1.48A1,1,0,0,0,156.33,49,.89.89,0,0,0,154.85,49Zm-2.65-2.54a1,1,0,0,0,0,1.54.93.93,0,0,0,1.48,0,1,1,0,0,0,0-1.54A.93.93,0,0,0,152.2,46.47ZM149.55,44a1,1,0,0,0,0,1.54,1,1,0,0,0,1.54,0,1,1,0,0,0,0-1.54A1,1,0,0,0,149.55,44ZM147,41.5A1,1,0,0,0,147,43a.93.93,0,0,0,1.48,0,1,1,0,0,0,0-1.54A.93.93,0,0,0,147,41.5ZM144.31,39a.93.93,0,0,0,0,1.48.94.94,0,0,0,1.54,0,1,1,0,0,0,0-1.48A1,1,0,0,0,144.31,39Zm-2.6-2.49a.89.89,0,0,0,0,1.48.93.93,0,0,0,1.48,0,.89.89,0,0,0,0-1.48A.93.93,0,0,0,141.72,36.52ZM157.44,54a1,1,0,1,0,1.48,0A.93.93,0,0,0,157.44,54Zm-5.24-5a1,1,0,1,0,1.48,0A.89.89,0,0,0,152.2,49Zm-2.65-2.54a1,1,0,0,0,0,1.54,1,1,0,0,0,1.54,0,1,1,0,0,0,0-1.54A1,1,0,0,0,149.55,46.47ZM147,44a1,1,0,0,0,0,1.54.93.93,0,0,0,1.48,0,1,1,0,0,0,0-1.54A.93.93,0,0,0,147,44Zm-2.65-2.49A1.09,1.09,0,1,0,145.85,43a1,1,0,0,0,0-1.54A1,1,0,0,0,144.31,41.5ZM141.72,39a.89.89,0,0,0,0,1.48.93.93,0,0,0,1.48,0,.89.89,0,0,0,0-1.48A1,1,0,0,0,141.72,39Zm-2.65-2.49A1,1,0,0,0,140.55,38a.89.89,0,0,0,0-1.48A.93.93,0,0,0,139.07,36.52ZM165.7,63.79a.76.76,0,0,0-.42.74.8.8,0,0,0,1.16.74q.37-.16.37-.74a.78.78,0,0,0-.37-.74A.7.7,0,0,0,165.7,63.79ZM154.85,54a.89.89,0,0,0,0,1.48,1,1,0,1,0,0-1.48ZM152.2,51.5a1,1,0,1,0,1.48,0A.89.89,0,0,0,152.2,51.5ZM149.55,49a.93.93,0,0,0,0,1.48,1,1,0,0,0,1.54,0,.93.93,0,0,0,0-1.48A.94.94,0,0,0,149.55,49ZM147,46.47A1,1,0,0,0,147,48a.93.93,0,0,0,1.48,0,1,1,0,0,0,0-1.54A.93.93,0,0,0,147,46.47ZM144.31,44a1.09,1.09,0,1,0,1.54,1.54,1,1,0,0,0,0-1.54A1,1,0,0,0,144.31,44Zm-2.6-2.49a.94.94,0,0,0,0,1.54,1,1,0,0,0,1.48,0,.94.94,0,0,0,0-1.54A1,1,0,0,0,141.72,41.5ZM139.07,39a1,1,0,0,0,1.48,1.48.89.89,0,0,0,0-1.48A1,1,0,0,0,139.07,39Zm-1.85-2.81a1,1,0,0,0-.74.32.89.89,0,0,0,0,1.48A1,1,0,0,0,138,38a.93.93,0,0,0,0-1.48A1,1,0,0,0,137.21,36.2ZM133.83,34a1,1,0,1,0,1.48,1.48.89.89,0,0,0,0-1.48A.93.93,0,0,0,133.83,34Zm-2.59-2.49a.89.89,0,0,0,0,1.48,1,1,0,0,0,1.48-1.48A.93.93,0,0,0,131.23,31.54Zm23.62,24.94a.89.89,0,0,0,0,1.48,1,1,0,1,0,0-1.48ZM152.2,54a1,1,0,1,0,1.48,0A.93.93,0,0,0,152.2,54ZM147,49a1,1,0,1,0,1.48,0A.89.89,0,0,0,147,49Zm-2.65-2.54A1.09,1.09,0,1,0,145.85,48a1,1,0,0,0,0-1.54A1,1,0,0,0,144.31,46.47ZM141.72,44a1,1,0,0,0,0,1.54.93.93,0,0,0,1.48,0,1,1,0,0,0,0-1.54A.93.93,0,0,0,141.72,44Zm-4.5-5.29a1,1,0,0,0-.74.32.89.89,0,0,0,0,1.48,1,1,0,0,0,1.48,0A.93.93,0,0,0,138,39,1,1,0,0,0,137.21,38.69Zm-3.39-2.17A1,1,0,1,0,135.31,38a.89.89,0,0,0,0-1.48A.93.93,0,0,0,133.83,36.52ZM131.23,34a.89.89,0,0,0,0,1.48A1,1,0,0,0,132.71,34,.93.93,0,0,0,131.23,34ZM165.7,69.14a.76.76,0,0,0-.42.74.8.8,0,0,0,1.16.74.93.93,0,0,0,0-1.48A.7.7,0,0,0,165.7,69.14ZM152.2,56.48a1,1,0,1,0,1.48,0A.93.93,0,0,0,152.2,56.48ZM149.55,54a.93.93,0,0,0,0,1.48,1,1,0,0,0,1.54,0,.93.93,0,0,0,0-1.48A1,1,0,0,0,149.55,54ZM147,51.5a1,1,0,1,0,1.48,0A.89.89,0,0,0,147,51.5ZM144.31,49a.93.93,0,0,0,0,1.48,1,1,0,0,0,1.54,0,1,1,0,0,0,0-1.48A.94.94,0,0,0,144.31,49Zm-5.24-5a1,1,0,0,0,0,1.54.93.93,0,0,0,1.48,0,.94.94,0,0,0,0-1.54A.93.93,0,0,0,139.07,44Zm-1.85-2.75a1.12,1.12,0,0,0-.74.27.94.94,0,0,0,0,1.54A1.17,1.17,0,0,0,138,43a1,1,0,0,0,0-1.54A1.12,1.12,0,0,0,137.21,41.23ZM133.83,39a1,1,0,1,0,1.48,1.48.89.89,0,0,0,0-1.48A1,1,0,0,0,133.83,39Zm-2.59-2.49a.89.89,0,0,0,0,1.48,1,1,0,1,0,0-1.48ZM152.2,59a1,1,0,1,0,1.48,0A.93.93,0,0,0,152.2,59Zm-2.65-2.49a.93.93,0,0,0,0,1.48,1,1,0,0,0,1.54,0,.93.93,0,0,0,0-1.48A1,1,0,0,0,149.55,56.48ZM147,54a1,1,0,1,0,1.48,0A.93.93,0,0,0,147,54Zm-7.89-7.52a1,1,0,0,0,0,1.54.93.93,0,0,0,1.48,0,.94.94,0,0,0,0-1.54A.93.93,0,0,0,139.07,46.47Zm-1.85-2.75a1,1,0,0,0-.74.26,1,1,0,0,0,0,1.54,1.17,1.17,0,0,0,1.48,0A1,1,0,0,0,138,44,1.12,1.12,0,0,0,137.21,43.72Zm-3.39-2.22A1.07,1.07,0,1,0,135.31,43a.94.94,0,0,0,0-1.54A1,1,0,0,0,133.83,41.5ZM131.23,39a.89.89,0,0,0,0,1.48A1,1,0,0,0,132.71,39,1,1,0,0,0,131.23,39ZM165.7,74.48a.86.86,0,0,0,0,1.48.7.7,0,0,0,.74,0,.93.93,0,0,0,0-1.48A.7.7,0,0,0,165.7,74.48Zm-13.5-13a.93.93,0,0,0,0,1.48.89.89,0,0,0,1.48,0,.93.93,0,0,0,0-1.48A.89.89,0,0,0,152.2,61.46ZM139.07,49a.93.93,0,0,0,0,1.48,1,1,0,0,0,1.48,0,.89.89,0,0,0,0-1.48A.93.93,0,0,0,139.07,49ZM152.2,63.95a.93.93,0,0,0,0,1.48.89.89,0,0,0,1.48,0,1,1,0,1,0-1.48-1.48Zm13.5,15.89a.86.86,0,0,0,0,1.48.7.7,0,0,0,.74,0,.93.93,0,0,0,0-1.48A.7.7,0,0,0,165.7,79.83Zm-13.13-10.7a.78.78,0,0,0-.37.74.84.84,0,0,0,.37.79.91.91,0,0,0,.74,0,.81.81,0,0,0,.42-.79.76.76,0,0,0-.42-.74A.7.7,0,0,0,152.57,69.14Zm0,5.35a.93.93,0,0,0,0,1.48.71.71,0,0,0,.74,0,.7.7,0,0,0,.42-.74.76.76,0,0,0-.42-.74A.7.7,0,0,0,152.57,74.48Zm-13.13-10.7a.78.78,0,0,0-.37.74q0,.58.37.74a.8.8,0,0,0,.79,0q.37-.16.37-.74a.78.78,0,0,0-.37-.74A.8.8,0,0,0,139.44,63.79Zm13.13,16a.93.93,0,0,0,0,1.48.7.7,0,0,0,.74,0,.86.86,0,0,0,0-1.48A.7.7,0,0,0,152.57,79.83Zm-13.13-10.7a.93.93,0,0,0,0,1.48.8.8,0,0,0,.79,0c.25-.11.37-.35.37-.74a.78.78,0,0,0-.37-.74A.79.79,0,0,0,139.44,69.14Zm0,5.35a.93.93,0,0,0,0,1.48.8.8,0,0,0,.79,0,.93.93,0,0,0,0-1.48A.79.79,0,0,0,139.44,74.48Zm0,5.35a.93.93,0,0,0,0,1.48.8.8,0,0,0,.79,0,.93.93,0,0,0,0-1.48A.79.79,0,0,0,139.44,79.83Z"/><path class="cls-7" d="M188.79,38.35h2.27V36.14h-2.27Zm0,2.73h2.27V38.88h-2.27Zm0,2.73h2.27V41.61h-2.27Zm0,2.73h2.27V44.34h-2.27Zm0,2.73h2.27V47.07h-2.27Zm0,2.73h2.27V49.8h-2.27Zm0,2.73h2.27V52.53h-2.27Zm23.07-41h2.21V11.5h-2.21Zm0,2.73h2.21V14.23h-2.21Zm0,2.73h2.21V17h-2.21Zm0,2.73h2.21V19.7h-2.21ZM209,24.69h2.27V22.43H209Zm2.91,0h2.21V22.43h-2.21Zm2.91,0H217V22.43h-2.21ZM191.7,27.43h2.21V25.16H191.7Zm17.26,0h2.27V25.16H209Zm2.91,0h2.21V25.16h-2.21Zm2.91,0H217V25.16h-2.21Zm17.26,0h2.21V25.16H232ZM191.7,30.16h2.21V27.89H191.7Zm14.41,0h2.21V27.89h-2.21Zm2.85,0h2.27V27.89H209Zm2.91,0h2.21V27.89h-2.21Zm2.91,0H217V27.89h-2.21Zm2.85,0h2.21V27.89h-2.21Zm14.41,0h2.21V27.89H232ZM191.7,32.89h2.21V30.62H191.7Zm14.41,0h2.21V30.62h-2.21Zm2.85,0h2.27V30.62H209Zm2.91,0h2.21V30.62h-2.21Zm2.91,0H217V30.62h-2.21Zm2.85,0h2.21V30.62h-2.21Zm14.41,0h2.21V30.62H232ZM191.7,35.62h2.21V33.41H191.7Zm11.51,0h2.27V33.41h-2.27Zm5.75,0h2.27V33.41H209Zm2.91,0h2.21V33.41h-2.21Zm2.91,0H217V33.41h-2.21Zm5.75,0h2.21V33.41h-2.21Zm11.51,0h2.21V33.41H232ZM191.7,38.35h2.21V36.14H191.7Zm2.91,0h2.21V36.14H194.6Zm5.75,0h2.21V36.14h-2.21Zm2.85,0h2.27V36.14h-2.27Zm2.91,0h2.21V36.14h-2.21Zm5.75,0h2.21V36.14h-2.21Zm5.75,0h2.21V36.14h-2.21Zm2.91,0h2.21V36.14h-2.21Zm2.85,0h2.21V36.14h-2.21Zm5.75,0h2.27V36.14h-2.27Zm2.91,0h2.21V36.14H232Zm2.85,0h2.27V36.14h-2.27ZM191.7,41.08h2.21V38.88H191.7Zm2.91,0h2.21V38.88H194.6Zm2.85,0h2.21V38.88h-2.21Zm2.91,0h2.21V38.88h-2.21Zm2.85,0h2.27V38.88h-2.27Zm2.91,0h2.21V38.88h-2.21Zm2.85,0h2.27V38.88H209Zm5.81,0H217V38.88h-2.21Zm2.85,0h2.21V38.88h-2.21Zm2.91,0h2.21V38.88h-2.21Zm2.85,0h2.21V38.88h-2.21Zm2.91,0h2.21V38.88h-2.21Zm2.85,0h2.27V38.88h-2.27Zm2.91,0h2.21V38.88H232Zm2.85,0h2.27V38.88h-2.27ZM191.7,43.82h2.21V41.61H191.7Zm2.91,0h2.21V41.61H194.6Zm2.85,0h2.21V41.61h-2.21Zm2.91,0h2.21V41.61h-2.21Zm2.85,0h2.27V41.61h-2.27Zm2.91,0h2.21V41.61h-2.21Zm2.85,0h2.27V41.61H209Zm5.81,0H217V41.61h-2.21Zm2.85,0h2.21V41.61h-2.21Zm2.91,0h2.21V41.61h-2.21Zm2.85,0h2.21V41.61h-2.21Zm2.91,0h2.21V41.61h-2.21Zm2.85,0h2.27V41.61h-2.27Zm2.91,0h2.21V41.61H232Zm2.85,0h2.27V41.61h-2.27ZM191.7,46.55h2.21V44.34H191.7Zm2.91,0h2.21V44.34H194.6Zm2.85,0h2.21V44.34h-2.21Zm2.91,0h2.21V44.34h-2.21Zm2.85,0h2.27V44.34h-2.27Zm5.75,0h2.27V44.34H209Zm2.91,0h2.21V44.34h-2.21Zm2.91,0H217V44.34h-2.21Zm5.75,0h2.21V44.34h-2.21Zm2.85,0h2.21V44.34h-2.21Zm2.91,0h2.21V44.34h-2.21Zm2.85,0h2.27V44.34h-2.27Zm2.91,0h2.21V44.34H232Zm2.85,0h2.27V44.34h-2.27ZM191.7,49.28h2.21V47.07H191.7Zm2.91,0h2.21V47.07H194.6Zm5.75,0h2.21V47.07h-2.21Zm2.85,0h2.27V47.07h-2.27Zm5.75,0h2.27V47.07H209Zm2.91,0h2.21V47.07h-2.21Zm2.91,0H217V47.07h-2.21Zm5.75,0h2.21V47.07h-2.21Zm2.85,0h2.21V47.07h-2.21Zm5.75,0h2.27V47.07h-2.27Zm2.91,0h2.21V47.07H232Zm2.85,0h2.27V47.07h-2.27ZM194.6,52h2.21V49.8H194.6Zm8.6,0h2.27V49.8h-2.27Zm2.91,0h2.21V49.8h-2.21ZM209,52h2.27V49.8H209Zm2.91,0h2.21V49.8h-2.21Zm2.91,0H217V49.8h-2.21Zm2.85,0h2.21V49.8h-2.21Zm2.91,0h2.21V49.8h-2.21Zm8.6,0h2.27V49.8h-2.27Zm5.75,0h2.27V49.8h-2.27ZM191.7,54.74h2.21V52.53H191.7Zm2.91,0h2.21V52.53H194.6Zm8.6,0h2.27V52.53h-2.27Zm2.91,0h2.21V52.53h-2.21Zm2.85,0h2.27V52.53H209Zm2.91,0h2.21V52.53h-2.21Zm2.91,0H217V52.53h-2.21Zm2.85,0h2.21V52.53h-2.21Zm2.91,0h2.21V52.53h-2.21Zm8.6,0h2.27V52.53h-2.27Zm2.91,0h2.21V52.53H232Zm2.85,0h2.27V52.53h-2.27ZM191.7,57.48h2.21V55.27H191.7Zm14.41,0h2.21V55.27h-2.21Zm5.75,0h2.21V55.27h-2.21Zm5.75,0h2.21V55.27h-2.21Zm14.41,0h2.21V55.27H232ZM192.1,81.42h1.39V79.15H192.1Zm40.34,0h1.39V79.15h-1.39ZM192.1,76h1.39V73.75H192.1Zm40.34,0h1.39V73.75h-1.39Zm-20.17,5.46h1.39V79.21h-1.39ZM192.1,70.49h1.39V68.29H192.1Zm40.34,0h1.39V68.29h-1.39ZM212.27,76h1.39V73.81h-1.39ZM191.7,60.21h2.21V58H191.7Zm14.41,0h2.21V58h-2.21Zm2.85,0h2.27V58H209Zm2.91,0h2.21V58h-2.21Zm2.91,0H217V58h-2.21Zm2.85,0h2.21V58h-2.21Zm14.41,0h2.21V58H232ZM209,63h2.27V60.73H209Zm2.91,0h2.21V60.73h-2.21Zm2.91,0H217V60.73h-2.21Zm-2.91,2.73h2.21V63.46h-2.21Zm0,2.73h2.21V66.19h-2.21Z"/><path class="cls-2" d="M364.24,32.27A7.37,7.37,0,0,0,358,29.16a6.55,6.55,0,0,0-5.69,2.74,11.67,11.67,0,0,0-2,6.95,11.61,11.61,0,0,0,2,6.93A6.54,6.54,0,0,0,358,48.54a7.64,7.64,0,0,0,3.67-.91,7.76,7.76,0,0,0,2.76-2.45l3.47,3.18a10.87,10.87,0,0,1-4.22,3.53A12.83,12.83,0,0,1,358,53.14a12,12,0,0,1-7-2.07,12.51,12.51,0,0,1-4.41-5.26,17,17,0,0,1-1.43-7,16.63,16.63,0,0,1,1.46-7A12.46,12.46,0,0,1,351,26.6a12,12,0,0,1,6.91-2,13.07,13.07,0,0,1,5.61,1.21,11.06,11.06,0,0,1,4.26,3.47Z"/><path class="cls-2" d="M391.49,50.17a10.59,10.59,0,0,1-14.88,0A11.15,11.15,0,0,1,374,42.65a11,11,0,0,1,2.61-7.42q2.61-3,7.48-3a9.22,9.22,0,0,1,7.4,3.05,11.1,11.1,0,0,1,2.61,7.48A11,11,0,0,1,391.49,50.17Zm-3.64-11.88a4.37,4.37,0,0,0-3.73-1.77,4.52,4.52,0,0,0-3.87,1.77,7.19,7.19,0,0,0-1.32,4.41A7.15,7.15,0,0,0,380.25,47a4.47,4.47,0,0,0,3.84,1.79A4.38,4.38,0,0,0,387.85,47a7.29,7.29,0,0,0,1.32-4.41A7.06,7.06,0,0,0,387.85,38.28Z"/><path class="cls-2" d="M425.86,34.37a7,7,0,0,1,2.69,5.69V52.93h-4.72V41.3A4.61,4.61,0,0,0,422.66,38a4.07,4.07,0,0,0-3.11-1.24,7.2,7.2,0,0,0-2.89.58,9.65,9.65,0,0,1,.69,3.58v12h-4.72V41.3A4.61,4.61,0,0,0,411.47,38a4.07,4.07,0,0,0-3.11-1.24,6,6,0,0,0-2.23.4V52.93h-4.72V34.13q.37-.15,1.19-.53t1.28-.57q.46-.18,1.22-.42a8.54,8.54,0,0,1,1.63-.33,17.85,17.85,0,0,1,1.88-.09,8.9,8.9,0,0,1,4.79,1.32,15.25,15.25,0,0,1,6.4-1.32A9.37,9.37,0,0,1,425.86,34.37Z"/><path class="cls-2" d="M452.38,35.25a11.15,11.15,0,0,1,2.6,7.48,11,11,0,0,1-2.61,7.44,9.22,9.22,0,0,1-7.4,3.05,18.75,18.75,0,0,1-4-.48v8.08l-4.72.33v-27A23.53,23.53,0,0,1,445,32.2,9.2,9.2,0,0,1,452.38,35.25ZM448.67,47A7.08,7.08,0,0,0,450,42.62a6.81,6.81,0,0,0-1.37-4.3,4.55,4.55,0,0,0-3.82-1.77,8.48,8.48,0,0,0-3.91.91v10.6a10.55,10.55,0,0,0,3.91.77A4.52,4.52,0,0,0,448.67,47Z"/><path class="cls-2" d="M475.72,33.27a8,8,0,0,1,3,2.85,12.94,12.94,0,0,1,1.55,3.82,13.28,13.28,0,0,1,.29,4.17H466.13a6.29,6.29,0,0,0,1.77,3.51A5,5,0,0,0,471.57,49a10.06,10.06,0,0,0,4.53-1.13l2.3,3.44a11.73,11.73,0,0,1-7,1.94q-5,0-7.6-3.07a11.17,11.17,0,0,1-2.63-7.53,11,11,0,0,1,2.6-7.42q2.6-3,7.5-3A8.91,8.91,0,0,1,475.72,33.27Zm-.06,7.44a5,5,0,0,0-.4-1.63,4.42,4.42,0,0,0-1.5-1.75,5,5,0,0,0-6,.29,5.82,5.82,0,0,0-1.59,3.09Zm-7.09-10.49,4-3.8h4.75L472,30.22Z"/><path class="cls-2" d="M498.15,48.36v4q0,.18-.91.37a7.55,7.55,0,0,1-1.5.18,9,9,0,0,1-5.7-1.81,6.44,6.44,0,0,1-2.3-5.39V28.17l4.72-.33v4.61h5.19l-.29,3.88h-4.9v8.56a3.74,3.74,0,0,0,.93,2.76,3.43,3.43,0,0,0,2.54.93A6.6,6.6,0,0,0,498.15,48.36Z"/><path class="cls-2" d="M518.9,33.27a8,8,0,0,1,3,2.85,12.94,12.94,0,0,1,1.55,3.82,13.28,13.28,0,0,1,.29,4.17H509.3a6.29,6.29,0,0,0,1.77,3.51A5,5,0,0,0,514.75,49a10.06,10.06,0,0,0,4.53-1.13l2.3,3.44a11.73,11.73,0,0,1-7,1.94q-5,0-7.6-3.07a11.17,11.17,0,0,1-2.63-7.53,11,11,0,0,1,2.6-7.42q2.6-3,7.49-3A8.91,8.91,0,0,1,518.9,33.27Zm-.05,7.44a5,5,0,0,0-.4-1.63,4.42,4.42,0,0,0-1.5-1.75,5,5,0,0,0-6,.29,5.82,5.82,0,0,0-1.59,3.09Z"/><path class="cls-2" d="M545.74,34.37a6.87,6.87,0,0,1,2.8,5.69V52.93h-4.72V41.3a4.29,4.29,0,0,0-4.5-4.53,13.7,13.7,0,0,0-3.69.62V52.93h-4.72V34.13a23.39,23.39,0,0,1,8.66-1.94A9.81,9.81,0,0,1,545.74,34.37Z"/><path class="cls-2" d="M567,48.36v4q0,.18-.91.37a7.56,7.56,0,0,1-1.5.18,9,9,0,0,1-5.7-1.81,6.44,6.44,0,0,1-2.3-5.39V28.17l4.72-.33v4.61h5.19l-.29,3.88h-4.9v8.56a3.75,3.75,0,0,0,.93,2.76,3.44,3.44,0,0,0,2.54.93A6.6,6.6,0,0,0,567,48.36Z"/><path class="cls-2" d="M585.57,36.8a11.91,11.91,0,0,0-3.73-.77q-3.11,0-3.11,2.23,0,1.43,3.36,2.6,5.59,1.94,5.59,6.33a5,5,0,0,1-2.18,4.31,8.66,8.66,0,0,1-5.21,1.57,14.59,14.59,0,0,1-3.34-.44,7.55,7.55,0,0,1-2.72-1.1L575.62,48a8.31,8.31,0,0,0,4.68,1.13,5.27,5.27,0,0,0,2.38-.49,1.66,1.66,0,0,0,1-1.59,2,2,0,0,0-.88-1.65,13.33,13.33,0,0,0-3.4-1.5q-4.68-1.54-4.68-5.63a6.57,6.57,0,0,1,.64-3,4.33,4.33,0,0,1,1.75-1.86,8.33,8.33,0,0,1,2.28-.88,11.81,11.81,0,0,1,2.52-.26,13.89,13.89,0,0,1,4.94,1Z"/></g></g></svg>