<svg xmlns="http://www.w3.org/2000/svg" viewBox="0 0 640 433.77"><defs><style>.cls-1,.cls-5{fill:#fff;}.cls-2{fill:#414142;}.cls-3{fill:#2d2e2d;}.cls-4{fill:#393836;stroke:#fff;stroke-width:2.06px;}.cls-4,.cls-5{stroke-miterlimit:10;}.cls-5{stroke:#393836;stroke-width:0.87px;}</style></defs><title>Fichier 1</title><g id="Calque_2" data-name="Calque 2"><g id="Calque_1-2" data-name="Calque 1"><rect class="cls-1" width="640" height="433.77"/><path class="cls-2" d="M70,51.71a11,11,0,0,1-3.13,2.43,9.76,9.76,0,0,1-4.48.9A9.43,9.43,0,0,1,54.8,52a11.07,11.07,0,0,1-2.65-7.49A10.88,10.88,0,0,1,54.8,37q2.65-3,7.55-3a11,11,0,0,1,4.2.8,8,8,0,0,1,3.22,2.3L66.52,40.3a5.67,5.67,0,0,0-4.13-2,4.72,4.72,0,0,0-3.95,1.77,7.63,7.63,0,0,0,0,8.76,4.65,4.65,0,0,0,3.93,1.79,4.55,4.55,0,0,0,1.88-.4,5.83,5.83,0,0,0,1.22-.68q.33-.27,1-.93Z"/><path class="cls-2" d="M93.3,52A9.21,9.21,0,0,1,85.9,55,9.3,9.3,0,0,1,78.42,52a11.15,11.15,0,0,1-2.61-7.51A11,11,0,0,1,78.42,37Q81,34,85.9,34a9.21,9.21,0,0,1,7.4,3.05,11.1,11.1,0,0,1,2.61,7.48A11,11,0,0,1,93.3,52ZM89.66,40.1a4.37,4.37,0,0,0-3.73-1.77,4.52,4.52,0,0,0-3.88,1.77,7.19,7.19,0,0,0-1.32,4.41,7.15,7.15,0,0,0,1.32,4.35,4.47,4.47,0,0,0,3.84,1.79,4.37,4.37,0,0,0,3.77-1.81A7.29,7.29,0,0,0,91,44.43,7.06,7.06,0,0,0,89.66,40.1Z"/><path class="cls-2" d="M127.67,36.19a7,7,0,0,1,2.69,5.69V54.74h-4.72V43.12a4.6,4.6,0,0,0-1.17-3.29,4.07,4.07,0,0,0-3.11-1.24,7.2,7.2,0,0,0-2.89.58,9.66,9.66,0,0,1,.69,3.58v12h-4.72V43.12a4.61,4.61,0,0,0-1.17-3.29,4.07,4.07,0,0,0-3.11-1.24,6,6,0,0,0-2.23.4V54.74h-4.72V36q.37-.15,1.19-.53t1.28-.57q.46-.18,1.22-.42a8.56,8.56,0,0,1,1.63-.33,17.87,17.87,0,0,1,1.88-.09,8.9,8.9,0,0,1,4.79,1.32,15.24,15.24,0,0,1,6.4-1.32A9.37,9.37,0,0,1,127.67,36.19Z"/><path class="cls-2" d="M162.47,36.19a7,7,0,0,1,2.69,5.69V54.74h-4.72V43.12a4.6,4.6,0,0,0-1.17-3.29,4.07,4.07,0,0,0-3.11-1.24,7.2,7.2,0,0,0-2.89.58,9.66,9.66,0,0,1,.69,3.58v12h-4.72V43.12a4.61,4.61,0,0,0-1.17-3.29A4.07,4.07,0,0,0,145,38.58a6,6,0,0,0-2.23.4V54.74H138V36q.37-.15,1.19-.53t1.28-.57q.46-.18,1.22-.42a8.56,8.56,0,0,1,1.63-.33,17.87,17.87,0,0,1,1.88-.09A8.9,8.9,0,0,1,150,35.33a15.24,15.24,0,0,1,6.4-1.32A9.37,9.37,0,0,1,162.47,36.19Z"/><path class="cls-2" d="M190.24,53.06a23.47,23.47,0,0,1-8.7,1.94,9.73,9.73,0,0,1-6.14-2.18,6.88,6.88,0,0,1-2.78-5.69V34.6l4.72-.33V45.9a4.3,4.3,0,0,0,4.5,4.53,14,14,0,0,0,3.69-.62V34.6l4.72-.33Z"/><path class="cls-2" d="M212.74,36.19a6.87,6.87,0,0,1,2.8,5.69V54.74h-4.72V43.12a4.3,4.3,0,0,0-4.5-4.53,13.7,13.7,0,0,0-3.69.62V54.74h-4.72V36A23.4,23.4,0,0,1,206.58,34,9.81,9.81,0,0,1,212.74,36.19Z"/><path class="cls-2" d="M225.85,31.78a2.73,2.73,0,0,1-.8-2,2.71,2.71,0,0,1,5.41,0,2.73,2.73,0,0,1-.8,2,2.65,2.65,0,0,1-3.8,0Zm4.24,23h-4.72V34.27h4.72Z"/><path class="cls-2" d="M254.8,51.71a11,11,0,0,1-3.13,2.43,9.76,9.76,0,0,1-4.48.9A9.43,9.43,0,0,1,239.65,52,11.07,11.07,0,0,1,237,44.47,10.88,10.88,0,0,1,239.65,37q2.65-3,7.55-3a11,11,0,0,1,4.2.8,8,8,0,0,1,3.22,2.3l-3.25,3.18a5.67,5.67,0,0,0-4.13-2,4.72,4.72,0,0,0-3.95,1.77,7.63,7.63,0,0,0,0,8.76,4.65,4.65,0,0,0,3.93,1.79,4.55,4.55,0,0,0,1.88-.4,5.83,5.83,0,0,0,1.22-.68q.33-.27,1-.93Z"/><path class="cls-2" d="M275.64,36.21a7.22,7.22,0,0,1,2.45,5.63V53.28q-1.54.66-2.23.91a17,17,0,0,1-2.18.57,15,15,0,0,1-3.09.31q-4.64,0-7-1.85a6.32,6.32,0,0,1-2.36-5.28,5.6,5.6,0,0,1,1-3.27,5.83,5.83,0,0,1,2.49-2,14.47,14.47,0,0,1,3-1,14.85,14.85,0,0,1,2.92-.29,14,14,0,0,1,3,.29Q273.27,38,269.65,38a13.2,13.2,0,0,0-4.72.77l-1.54-3.36A14.76,14.76,0,0,1,269.87,34,8.38,8.38,0,0,1,275.64,36.21Zm-5,14.88a10.63,10.63,0,0,0,3-.44V45.27a13.8,13.8,0,0,0-3-.33q-5,0-5,3T270.6,51.09Z"/><path class="cls-2" d="M300.6,36.19a6.87,6.87,0,0,1,2.8,5.69V54.74h-4.72V43.12a4.3,4.3,0,0,0-4.5-4.53,13.7,13.7,0,0,0-3.69.62V54.74h-4.72V36A23.4,23.4,0,0,1,294.44,34,9.81,9.81,0,0,1,300.6,36.19Z"/><path class="cls-2" d="M321.85,50.17v4q0,.18-.91.37a7.56,7.56,0,0,1-1.5.18,9,9,0,0,1-5.7-1.81,6.44,6.44,0,0,1-2.3-5.39V30l4.72-.33v4.61h5.19L321,38.15h-4.9V46.7a3.75,3.75,0,0,0,.93,2.76,3.44,3.44,0,0,0,2.54.93A6.6,6.6,0,0,0,321.85,50.17Z"/></g><g id="Calque_2-2" data-name="Calque 2"><path class="cls-3" d="M508.3,73.86a11.93,11.93,0,0,0-1.36-2.07c-3.74-4.47-7.87.07-10.08,5.13-3.5,8-9.06,13.47-14.42,20.33a231.39,231.39,0,0,0-16.12,22.92,178.11,178.11,0,0,0-22.21,56.75,221.23,221.23,0,0,0-4.14,39.8c-.21,17.64-2.66,10,14,22.72,3.78,2.89,10.22,4.56,14.38,1.53,5.11-3.71,2.27-7.76,4.54-12.51,5.34-11.17,17-21.22,23.32-32.58A229,229,0,0,0,510.61,165c6.52-17.58,10-37.13,7.73-55.85C516.86,97,514.07,84.73,508.3,73.86Z"/><path class="cls-3" d="M395.22,106.57c-5.12-7.18-11.43-12.14-17.54-18.29-3.65-3.68-2.91-7.35-5.44-11.55-2-3.35-4.15-3.83-6.25-2.48-7.55,4.84-14.19,29.67-15.09,40.12-5,58.22,41.16,102.92,46.51,114.08,2.27,4.75-.57,8.79,4.54,12.51,4.16,3,10.6,1.35,14.38-1.53,16.65-12.72,14.2-5.08,14-22.71C429.84,177.23,418.23,138.82,395.22,106.57Z"/><path class="cls-3" d="M485.35,283.43c.08.33,3.6-.62,4-.76-2.1-4.61-5.36-8.4-6.93-13.28-1.69-5.26-2.07-10.82-3.21-16.2-2-9.47-1.94-17.77-8.49-25.5-5.68-6.7-12.45-11.38-21.23-12.83-14.73-2.44-31.46-2.9-44.09,6.27C392.46,230.51,387,249.49,387.65,265c.34,8.42-3.86,10.86-7.58,17.75,1.07,0,2.68.85,4.12.71-1.69,7.24-8.58,14.24-8.43,22.06,2.29-.38,4.22,0,6.29-1.39a29.8,29.8,0,0,0-2,12.51c.77-.5,2.67-.76,3.59-1.41C387,334.28,408.6,348.85,427.73,352c23.55,3.94,54.17-13.86,58.16-36.85.92.65,2.82.92,3.59,1.41a29.8,29.8,0,0,0-2-12.51c2.07,1.34,4,1,6.29,1.39C493.94,297.67,487,290.67,485.35,283.43Z"/><path class="cls-1" d="M427.21,202.58c1.79,3.61,4.83,6.48,7,9.78-5.46,0-15.27.7-18.41,5.75,3.18,1.51,7.88,1,10.63,3.07-5.71,4.74-11.36,9.76-10.52,18,3.08-2.81,5.5-6.06,9.46-7.64a13.74,13.74,0,0,0,1.38,12.94C425,242,431,232.63,432.59,230.87c3.07-3.4,9-4.48,11.52-8C449.83,214.86,434.14,203.6,427.21,202.58Z"/><path class="cls-3" d="M505.38,367.38a35.92,35.92,0,0,0,6.64.77c-5.16-11.23-15.56-17.52-23.2-25.24,1.26.23,2.82-.33,4.1-.18-2.79-6.31-9.28-10.58-13.63-14.88-3.87-3.83-8.77-10.81-13.63-11.39l-31.09-2.59v-.23l-1.38.12-1.44-.12c0,.08,0,.16,0,.25l-29.53,2.58c-4.86.58-9.76,7.56-13.63,11.39-4.34,4.3-10.84,8.57-13.63,14.88,1.27-.15,2.83.41,4.1.18-7.65,7.72-18,14-23.2,25.24a35.91,35.91,0,0,0,6.64-.77,97.86,97.86,0,0,0-21.71,31.18c-4.44,10.11-10,23.2-11.84,35.21h210c-1.85-12-7.4-25.09-11.84-35.21A97.84,97.84,0,0,0,505.38,367.38Z"/><path class="cls-3" d="M482.49,257.42A81.92,81.92,0,0,0,459.28,256c-7.14.55-14,1.13-20.86,3a32,32,0,0,1-7.92.06c-6.92-1.82-13.08-2.11-20.22-2.56a81.88,81.88,0,0,0-23.18,1.79c-4.18.89-13.58,1.29-13.5,6.12.12,7.39,3.4,3.93,4.84,7.59,1.91,4.88,2.19,14.17,5.29,18.42s7.6,6.16,12.8,7.23c5.62,1.15,13.29,1,18.41-1.5a22.84,22.84,0,0,0,10.59-10.61c2.2-4.22,4.24-8.77,4.52-13.49.29-5,9.25-4.33,9.71-.25a37.93,37.93,0,0,0,4.73,13.42,22.84,22.84,0,0,0,10.75,10.44c5.15,2.43,12.5,2.59,18.1,1.35,5.18-1.15,10-3.28,13-7.56s3.18-13.59,5-18.5c1.38-3.68,4.71-.28,4.72-7.66C496.08,258.5,486.69,258.24,482.49,257.42Z"/><path class="cls-4" d="M485.27,257.12c-1-.14-1.91-.27-2.64-.41A83.2,83.2,0,0,0,466,255c-2.21,0-4.47.09-6.74.26-6.48.5-13.82,1.07-21,3.07a21.85,21.85,0,0,1-4,.25,21.46,21.46,0,0,1-3.54-.19c-6.59-1.73-12.41-2.09-19.15-2.5l-1.22-.08c-1.83-.11-3.66-.17-5.45-.17a82.77,82.77,0,0,0-17.93,2c-.73.16-1.66.3-2.64.45-4.86.76-11.51,1.79-11.44,6.39s1.37,5.48,3.05,6.15a2.63,2.63,0,0,1,1.84,1.7,44,44,0,0,1,1.74,7.13c.82,4.3,1.67,8.75,3.65,11.45,2.86,3.9,6.94,6.22,13.24,7.52a36.76,36.76,0,0,0,7.26.71,27.21,27.21,0,0,0,11.61-2.27,23.62,23.62,0,0,0,10.92-10.92c2.22-4.26,4.31-8.88,4.6-13.79.12-2.09,2.18-2.83,3.91-2.83,2,0,4.15.92,4.35,2.62.48,4.15,2,8.5,4.81,13.69a23.63,23.63,0,0,0,11.09,10.76,27.2,27.2,0,0,0,11.23,2.18,34.5,34.5,0,0,0,7.34-.78c6.29-1.39,10.69-4,13.45-7.86,1.94-2.73,2.72-7.19,3.47-11.51a44.06,44.06,0,0,1,1.63-7.16,2.63,2.63,0,0,1,1.81-1.72c1.67-.7,3-1.59,3-6.2S490.14,257.8,485.27,257.12Zm8,11.06a4,4,0,0,0-2.62,2.56,44.89,44.89,0,0,0-1.7,7.42c-.73,4.16-1.48,8.45-3.23,10.92-2.54,3.58-6.65,6-12.57,7.27a33.07,33.07,0,0,1-7,.74,25.63,25.63,0,0,1-10.61-2,22.23,22.23,0,0,1-10.42-10.13c-2.71-5-4.19-9.2-4.64-13.16-.29-2.57-3.14-3.92-5.8-3.92s-5.2,1.3-5.37,4.21c-.27,4.63-2.29,9.08-4.44,13.2a22.23,22.23,0,0,1-10.27,10.29,25.75,25.75,0,0,1-11,2.12,35.24,35.24,0,0,1-7-.68c-5.92-1.22-9.73-3.36-12.35-6.95-1.78-2.44-2.6-6.72-3.39-10.87a44.9,44.9,0,0,0-1.81-7.39,4,4,0,0,0-2.66-2.52c-1.15-.46-2.07-.82-2.13-4.81-.05-3.33,5.87-4.25,10.2-4.92,1-.16,1.94-.3,2.72-.47a81.41,81.41,0,0,1,17.62-1.94c1.76,0,3.56.06,5.36.17l1.22.07c6.66.41,12.41.76,18.87,2.46a23.93,23.93,0,0,0,3.91.24,24.43,24.43,0,0,0,4.4-.3c7-2,14.31-2.53,20.72-3,2.23-.17,4.46-.26,6.63-.26a81.82,81.82,0,0,1,16.39,1.68c.77.15,1.72.28,2.72.42,4.34.61,10.28,1.44,10.28,4.77C495.34,267.33,494.44,267.7,493.29,268.18Z"/><path class="cls-5" d="M402.48,259.71c-8.25.39-19.9,2.23-19.71,11.6.18,8.81,1.42,22.85,17.68,24.14,14.8,1.17,19.5-7.11,19.5-7.11,4.84-5.75,7.2-15.54,5.78-20.85C423.48,259,410.19,259.35,402.48,259.71Z"/><path class="cls-5" d="M467.39,259.48c-7.71-.37-21-.68-23.25,7.77-1.41,5.31.94,15.1,5.78,20.85,0,0,4.7,8.29,19.5,7.11,16.25-1.29,17.5-15.33,17.68-24.14C487.29,261.71,475.64,259.88,467.39,259.48Z"/><path class="cls-1" d="M433.79,308.9c-.25,7.24-2.36,18.84-11.78,18.74a11.6,11.6,0,0,1-7.78-3.37c-.87-.9-1-3.51-2.62-3.69-2.26-.26-.81,2.22-.17,3.1a14.25,14.25,0,0,0,10.15,5.62c10.72.73,13.58-12.24,13.87-20.41C435.51,307.82,433.83,307.82,433.79,308.9Z"/><path class="cls-1" d="M457.91,320.42c-1.19-.27-2.74,3.52-3.55,4.29a11.42,11.42,0,0,1-7.1,2.93c-9.54.46-11.73-11.58-12-18.73,0-1.08-1.72-1.09-1.68,0,.29,8.29,3.06,20.73,13.66,20.42,3.85-.11,8.55-2.46,10.36-6C457.94,322.72,459.1,320.69,457.91,320.42Z"/><path class="cls-1" d="M497.59,103.74c-1.59,5.53-5.17,9.06-9.19,13.36a111.92,111.92,0,0,0-15.77,20.67,117.77,117.77,0,0,0-15.49,46.65,129.74,129.74,0,0,0,.38,28.83q.1.85.21,1.71c28.28-17.32,46.72-47.36,49.77-79,1.14-11.85,4.08-22.45-1.29-34.23C502.61,93.82,499.26,97.92,497.59,103.74Z"/><path class="cls-1" d="M371.65,100.23c-2.06-7.94-6.82-1.38-8.18,2.88-2.23,7-2.53,16.27-2.16,23.54,1.75,34.17,20.55,69.75,51.16,88q.1-.86.19-1.71c3.34-32.06-4.83-64-26-89.46C380.33,115.9,374.18,110,371.65,100.23Z"/><path class="cls-3" d="M412.87,202.1a10.74,10.74,0,0,0-.84-2.8,4.08,4.08,0,0,0-.71,2.88c-.09-1.22-1.22-2.33-1.53-3.52a20.76,20.76,0,0,1-.17-4.27c-2.42,1-1.46,7.22-.22,8.7-.85-1-2.2-2.12-2.48-3.41-1.17,1-1.16,4.33,0,5.4-1.54-1.38-2-3.58-3.65-4.9a6,6,0,0,0-5.77-.79c.59-.26,4.13,1.9,4.66,2.31,1,.78,2.47,4.24-.11,3.13-1-.42-1.34-1.52-1.84-2.31-.31-.49-.62,1.64-.59,1.8A7.1,7.1,0,0,0,401.2,207c1.64,2,2.4,3.38,2.16,6,0,.41-.65,4.47-1,4.46l5.66.1c5.45-1.59,6.11-4.24,5.71-8.58C413.53,207.22,413.09,203.79,412.87,202.1Z"/><path class="cls-3" d="M466.58,198.2c-1.89,1.92-2.08,5-4.07,6.88.58-1.83,1.56-4.09,0-5.43-.07.56-.24,4.2-1.38,3.77-2.17-.84.45-6.5.72-7.95,0-.23-2.25,1.36-3,4-.27,1-.59,2-.91,3-.2-1.52-.06-3.3-.13-4.43-.71,1.69-.76,3.6-1.31,5.36a8.25,8.25,0,0,0-.16,4.85c-.71,4.26.62,7.92,5.19,9.35l5.29-.1c2.92-10,2.24-11.53,2.13-16-.84.34-1.17,3.41-3.31,3.9.41-.09,1.05-3,1.22-3.47.81-2.13,2.36-3.23,4.17-1.08C471.49,198.17,468.77,196,466.58,198.2Z"/><path class="cls-1" d="M438.07,295.36a22.32,22.32,0,0,0-3.43.87,22.32,22.32,0,0,0-3.43-.87c-3.41-.33-7.28.16-7.83,4.42-.48,3.73,8.5,11.2,11.26,12.25,2.76-1,11.74-8.52,11.26-12.25C445.35,295.52,441.48,295,438.07,295.36Z"/><path class="cls-3" d="M342.15,428c.2,0,2-.35,2.1-.14-1.28-5.06-5.66-8.61-6.82-13.9.19-.09,1.61-.54,1.73-.32-1.26-2.32-2.75-4.59-4-6.84a4.62,4.62,0,0,0,3.08,1.29c-1.36-4.5-11.5-14.15-7.28-11.83,4.75,2.62-5-8.46-5.31-10.93.87.31,1.77.08,2.81.61-4-7.26-9.22-11.7-8.34-20.4,1.68-16.59,5.62-28.7-4-32.18-2-.74.66-19.94,1.12-27.76.2-3.36,1.62-15.07-2.75-17-7.29-3.24-7.9,14.16-8.48,17.79-.55,3.43-2.61,20.94-3.49,24.59-.7-1.17-9.71-37.32-14.94-39.6-4-1.76-7.09-.08-7.73,3.77-1.07,6.42,13.93,35.59,11.38,39.44-3.16-4.55-7.34-2.89-8.82.38-1.53,2.08.73,5.06.46,5.83.3-.85-9-2.5-4.11,11.76,1.85,5.44,5.94,10.65,9.47,15.19,1.51,1.95,4.11,3.79,5.34,5.8,2.15,3.55.27,9,.41,12.88.53-.15,1.28.06,1.83-.08,1.09,4.61-1.42,13.28-.51,14.66.71-.36,1.93.1,2.33-.6-.41,3.85-1.44,7.75-1.28,11.49a19.43,19.43,0,0,1,3.41-1.11c.23,3.81-2.24,7.44-1.7,11.33a17.07,17.07,0,0,1,2.7-1.06c.59,3.1.14,7.71-.34,10.77.48-.33,1.73-.59,2.25-1-.34.25-.55,1.45-.69,2.89h43.72s0-.1,0-.15C345,431.47,343.13,429.93,342.15,428Z"/><path class="cls-1" d="M370.18,374.82c-5-4.11-10.25.2-12.25,5.17-1.87,4.66.47,11.49,2.42,15.86,2.58,5.78,8.07,11.81,6.85,18.6-.43,2.37-2,6.66-4.77,7a2.75,2.75,0,0,1-2.72-1.1c-1.21-1.53-1.64-4.17-3.55-5s-3.63-.71-4.88,1.09c-2.23,3.2-1.8,8.78,1.38,11.21a10.63,10.63,0,0,0,10.75,1c10.11-4.82,12.08-18.18,6.84-27.41-2.24-4-5.1-7.58-6.66-11.88-1-2.68-2.63-10.58,2.32-10.79,4-.18-.67,4,1.16,5.22s5.34-.78,6.26-2.4C374.73,378.91,372.06,376.36,370.18,374.82Z"/><path class="cls-1" d="M374.61,367c-2.09-.34-5.87-1.59-7.82-.29-2.34,1.57-1,3.66,1.06,4.27,3.23,1,7.75,1,11.12,1.06h.32q.08,4.37,1.06,24c.27,5.36.41,10.72.47,16.08.06,4.81-.79,10.43,0,15.11.39,2.19,2.66,5.21,4.51,2,1.64-2.81.59-6.52.48-9.55-.29-8.16-.07-16.8-1.46-24.74-1.23-7-1-22.75-.95-22.78s10.15,1.8,11.52.25c.66-.75,1-4.07.38-4.88C393.29,364.81,378,367.55,374.61,367Z"/><path class="cls-1" d="M409.53,407.75c-1.23-8.74-1.67-17.77-2.71-26.48-.4-3.34-.54-6.66-1.05-10-.25-1.6-.07-7.5-2.81-6.25-1.16.53-1,1.83-1.22,2.8-1.27,6.54-3.17,12.79-4.65,19.26-.78,3.38-1.89,6.68-2.51,10.11-.52,2.84-5.85,23-.77,24,5.46,1.14,1.62-9.45,4.81-10.57,1.12-.4,4.17.08,5.28.56,2.38,1,2.3,3.07,2.34,5.23,0,2.49-.16,10.25,3.84,10.25,1.73,0,3.07-2.84,3.1-4.25.05-3.23-2.3-6.8-2.89-10.06Q409.85,410.1,409.53,407.75Zm-5.15-1.51a5.72,5.72,0,0,1-.46,1.23c-.54,1-1.42,1.39-3,.57-3.32-1.68-1.88-5.45-1.24-8.07a99.43,99.43,0,0,0,1.56-11c.14-1.08.6-6.49,1.68-6.79.53-.14,1.5,12.59,1.54,13.47C404.63,399.1,405.29,402.8,404.37,406.24Z"/><path class="cls-1" d="M432.09,348.19c-7.31-2.82-10.26,17.19-11,21.25-.23,1.27-.47,9.47-2.82,5.23-1.1-2-1-4.82-1.57-7a48.17,48.17,0,0,0-7.84-16.39c-1.94-2.54-9-5.87-8.24.16.25,2.13,2.4,3.46,3.93,4.61,7.14,5.39,9,18,11.72,26.07a22.34,22.34,0,0,0,1.57,2.9c2.26,4.86,1.44,35,.77,37.15-.76,2.5-3,6-.9,8.19a4.12,4.12,0,0,0,7.12-3,113.86,113.86,0,0,0-.55-11.58c-.4-4.69-.89-9.37-1-14.08s-.06-9.45,0-14.17c0-5.92,2.13-12.12,3.82-17.73,1.25-4.15,1.41-9,3.84-12.6C432.47,355,436.43,349.86,432.09,348.19Z"/><path class="cls-1" d="M451.71,421.37c-1.73,1.05-1.46,3-4.14,2.55-7.91-1.38-7.06-15.3-7.46-21.35-.6-9,.09-18.57,3.56-26.89.57-1.36,1.79-3.67,3.43-3.64,2.06,0,4.17,4.69,6.61,2,2.92-3.18,1.11-8.24-2.57-9.45-3.16-1-7.78-.31-10.29,2-4,3.73-5.24,10.3-6.25,15.39-1.6,8-.94,16.37-.52,24.47.11,2.08.43,4.13.54,6.18,1.15,21.11,18.58,20.43,21.12,16.86C457.55,427,455.74,418.92,451.71,421.37Z"/><path class="cls-1" d="M462.69,373c-4.52.48-5.89,2.78-7,6.66-1.89,6.62-2.06,13.7-1.61,20.66.37,5.68,2.9,35.24,15.57,23.17,4.4-4.18,4.31-12.5,4.75-18a92.09,92.09,0,0,0-.45-21.15C473,378.49,470.1,372.17,462.69,373Zm7.22,33.44A24.16,24.16,0,0,1,468,417.24c-2.16,5.07-7.08,1.46-8.16-2.4-1.27-4.55-1.36-9.33-1.38-14,0-3.47-.48-7-.36-10.5a24.33,24.33,0,0,1,.35-3.46c.32-1.81.46-5.59,2-6.83,2.37-1.85,6.69-1.47,8.26,1.07,1.35,2.18.54,5.33.48,7.71-.05,2,1.08,3.73,1.2,5.75C470.72,398.54,469.72,402.43,469.91,406.39Z"/><path class="cls-1" d="M492.71,372.07c-3.43-4.18-12-5.83-14.41.37-2.15,5.58-1.61,12.42-.94,18.17.07.61.91,8.3.75,8.3.07,0,.1.14.1.42l-.07,3.27c-.11,6.14-.47,12.65,1,18.69.84,3.52,1.74,7.88,5.85,9.21a8,8,0,0,0,9-3.12c2.93-4.44,2.3-10.69,2.69-15.67.65-8.3-.62-16.39-.86-24.65C495.63,382.13,496.14,376.25,492.71,372.07Zm-.93,41.79c-.52,2.57.07,7.4-1.77,9.49s-4.61.13-5.63-1.86c-1.7-3.31-1.73-7.25-1.93-10.84-.25-4.64-1.12-9.84-.56-14.42.21-1.71.38-3.43.52-5.16.28-3.32.5-6.65.84-10,.21-2,.18-5.29,3.11-5.09,2.42.17,4.28,3.37,5.06,5.18,1.72,3.93.68,9.72,1,14C492.82,400.95,492.95,408.1,491.78,413.86Z"/><path class="cls-1" d="M515,419.3c-4.58.2-8.91.24-8.94-5.43-.06-10.69.87-21.58-.06-32.21-.66-7.53-2.45-15.71-6.6-22.15-1.88-2.91-4.54-6.15-8-7.17-2.8-.82-10.6.65-11.88,3.7s.61,6.85,4.44,6.61,6.13-5.74,10.33-2.3c3.09,2.53,4.19,7.83,5,11.48,2.92,12.45-.46,25.13.83,37.82.39,3.8-1,12.15,1.48,15.41s9.87,1.18,13.36,1.29c3.1.1,7.6,1,6.85-4C521.24,418.44,518,419.17,515,419.3Z"/><path class="cls-3" d="M403.34,290.9c-.16,0-.3.18-.46.15v.2c.22,0,.41.26.55,0A.29.29,0,0,1,403.34,290.9Z"/><path class="cls-3" d="M457.6,281.88a.3.3,0,0,1,.27.33c.15-.12.26-.32.44-.37l-.09-.2C458,281.76,457.66,281.58,457.6,281.88Z"/><path class="cls-1" d="M442.92,243.87a.53.53,0,0,1-.68.21c.09.3.33.56.28.85h.37C442.87,244.49,443.36,244.13,442.92,243.87Z"/><path class="cls-1" d="M482.56,202.27a.3.3,0,0,1,.27.33c.15-.13.26-.32.44-.37l-.09-.2C482.93,202.15,482.62,202,482.56,202.27Z"/><path class="cls-1" d="M415.29,218.37c-.21.06-.39.23-.6.2v.27c.29,0,.53.33.72,0A.38.38,0,0,1,415.29,218.37Z"/><path class="cls-1" d="M408.49,212.35a.46.46,0,0,1-.49.42c.19.23.47.37.55.64l.3-.14C408.68,212.91,408.95,212.43,408.49,212.35Z"/><path class="cls-1" d="M396.74,209.2a.45.45,0,0,1,.55.32c.13-.27.15-.6.36-.77l-.24-.24C397.16,208.8,396.63,208.72,396.74,209.2Z"/><path class="cls-1" d="M399.25,217.17a.45.45,0,0,1,.55.32c.13-.27.15-.6.36-.77l-.24-.24C399.67,216.78,399.15,216.7,399.25,217.17Z"/><path class="cls-1" d="M395.59,220.18c-.21.06-.39.23-.6.2v.27c.29,0,.53.33.72,0A.37.37,0,0,1,395.59,220.18Z"/><path class="cls-1" d="M393.77,223.33a.46.46,0,0,1,.56.31c.15-.25.18-.57.41-.74l-.24-.23C394.23,223,393.69,222.88,393.77,223.33Z"/><path class="cls-1" d="M415.06,203.62l-.09.21c.25.09.33.44.59.27a.31.31,0,0,1,.06-.43C415.43,203.65,415.22,203.72,415.06,203.62Z"/><path class="cls-1" d="M421.65,195.47a.39.39,0,0,1,.35.44c.2-.16.33-.42.57-.48l-.12-.27C422.14,195.31,421.73,195.07,421.65,195.47Z"/><path class="cls-1" d="M424.14,186.6c.87,0,1.49,1,2.12.16a6.37,6.37,0,0,0-2.07-.89Z"/><path class="cls-1" d="M361.32,89.3a.43.43,0,0,1-.55.17c.08.24.26.45.23.69h.3C361.28,89.8,361.67,89.51,361.32,89.3Z"/><path class="cls-1" d="M374.5,90.2a.42.42,0,0,1-.55.17c.07.24.26.45.23.69h.3C374.46,90.7,374.85,90.41,374.5,90.2Z"/><path class="cls-1" d="M363.92,96.14a.42.42,0,0,1-.55.17c.07.24.26.45.23.69h.3C363.88,96.64,364.27,96.35,363.92,96.14Z"/><path class="cls-1" d="M357.38,99.25a.69.69,0,0,1-.89.27c.12.39.42.73.37,1.11l.49,0C357.32,100.06,357.95,99.6,357.38,99.25Z"/><path class="cls-1" d="M367.23,83a.68.68,0,0,1-.89.27c.12.39.43.73.37,1.11l.49,0C367.17,83.76,367.81,83.3,367.23,83Z"/><path class="cls-1" d="M419.7,184.46a.43.43,0,0,1-.55.17c.08.24.26.45.23.69h.3C419.66,185,420.05,184.68,419.7,184.46Z"/><path class="cls-1" d="M417.5,187.32a.39.39,0,0,1,.35.44c.2-.16.34-.42.57-.48l-.12-.27C418,187.16,417.58,186.91,417.5,187.32Z"/><path class="cls-1" d="M371.57,86.53a.39.39,0,0,1,.35.44c.2-.16.34-.42.57-.48l-.12-.27C372.07,86.37,371.65,86.12,371.57,86.53Z"/><path class="cls-1" d="M408.05,202.69a.39.39,0,0,1,.35.43c.2-.16.34-.42.57-.48l-.12-.27C408.54,202.53,408.13,202.28,408.05,202.69Z"/><path class="cls-1" d="M470.4,250a.43.43,0,0,1,.06.61c.38.28.52-.21.89-.3l-.12-.31C471,250.14,470.69,250,470.4,250Z"/><path class="cls-1" d="M466.19,239.89a.22.22,0,0,1,.24-.2,1.62,1.62,0,0,0-.43-.22C466.09,239.64,466,239.86,466.19,239.89Z"/><path class="cls-1" d="M459.74,206.21a.22.22,0,0,1,.24-.2,1.62,1.62,0,0,0-.43-.22C459.63,206,459.51,206.19,459.74,206.21Z"/><path class="cls-1" d="M469.5,239.21l-.19.09c.12.2,0,.49.25.52a.28.28,0,0,1,.3-.25C469.74,239.44,469.56,239.36,469.5,239.21Z"/><path class="cls-1" d="M454.15,250.24l-.29.14c.19.32-.06.77.39.82a.44.44,0,0,1,.47-.4C454.53,250.61,454.24,250.48,454.15,250.24Z"/><path class="cls-1" d="M472.39,234.14l-.15.07c.09.16,0,.39.2.42a.22.22,0,0,1,.24-.2C472.58,234.33,472.43,234.27,472.39,234.14Z"/><path class="cls-1" d="M478.2,247.1l-.15.07c.09.16,0,.39.2.42a.22.22,0,0,1,.24-.2C478.39,247.28,478.24,247.22,478.2,247.1Z"/><path class="cls-1" d="M463.87,239.82c-.07.16-.07.36-.2.48l.17.13c.15-.19.5-.17.41-.44A.3.3,0,0,1,463.87,239.82Z"/><path class="cls-1" d="M460,236.09c-.07.16-.07.36-.2.48l.17.13c.15-.19.5-.17.41-.44A.3.3,0,0,1,460,236.09Z"/><path class="cls-1" d="M463.36,206.41c-.07.16-.07.36-.2.48l.17.13c.15-.19.5-.17.41-.44A.3.3,0,0,1,463.36,206.41Z"/><path class="cls-1" d="M453.1,205.49c-.07.16-.07.36-.2.48l.17.13c.15-.19.5-.17.41-.44A.3.3,0,0,1,453.1,205.49Z"/><path class="cls-1" d="M456.62,237.84c-.07.16-.07.36-.2.48l.17.13c.15-.19.5-.17.41-.44A.31.31,0,0,1,456.62,237.84Z"/><path class="cls-1" d="M464.72,235.78c-.07.16-.07.36-.2.48l.17.13c.15-.19.5-.16.41-.44A.3.3,0,0,1,464.72,235.78Z"/><path class="cls-1" d="M487,298.08c-.07.16-.07.36-.2.48l.17.13c.15-.19.5-.17.41-.44A.31.31,0,0,1,487,298.08Z"/><path class="cls-1" d="M475.88,244.25a.28.28,0,0,1,0,.4c.19,0,.38-.07.54,0l.06-.2C476.22,244.39,476.11,244.07,475.88,244.25Z"/><path class="cls-1" d="M469,229.12a.28.28,0,0,1,0,.4c.19,0,.38-.07.54,0l.06-.2C469.31,229.26,469.2,228.94,469,229.12Z"/><path class="cls-1" d="M473.56,237.7a1.2,1.2,0,0,1-.06,1.7c.8,0,1.63-.31,2.31,0l.27-.85C475,238.3,474.57,236.92,473.56,237.7Z"/><path class="cls-1" d="M457.16,208.77a1.2,1.2,0,0,1-.06,1.7c.8,0,1.63-.31,2.31,0l.27-.85C458.64,209.37,458.17,208,457.16,208.77Z"/><path class="cls-1" d="M467.75,244.75a.28.28,0,0,1,0,.4c.19,0,.38-.07.54,0l.06-.2C468.1,244.89,468,244.57,467.75,244.75Z"/><path class="cls-1" d="M475.34,216.81a.28.28,0,0,1,0,.4c.19,0,.38-.07.54,0l.06-.2C475.68,216.95,475.57,216.63,475.34,216.81Z"/><path class="cls-1" d="M462.2,231l-.15.07c.09.16,0,.39.2.42a.22.22,0,0,1,.23-.2C462.39,231.23,462.25,231.16,462.2,231Z"/><path class="cls-1" d="M453.45,233.62a4.31,4.31,0,0,0-.39,1.53l.53-.06C453.48,234.5,454.12,233.95,453.45,233.62Z"/><path class="cls-1" d="M464.9,229.18a9,9,0,0,1,0,1.82s1,.22.69-1C465.35,230.15,465.12,229.84,464.9,229.18Z"/><path class="cls-1" d="M467.12,204.88a9,9,0,0,1,0,1.82s1,.22.69-1C467.57,205.85,467.34,205.53,467.12,204.88Z"/><path class="cls-1" d="M477.74,250.78c0,.29.06.6-.09.83l.32.13c.15-.37.7-.48.43-.87A.49.49,0,0,1,477.74,250.78Z"/><path class="cls-1" d="M465.76,247.34c-.12.26-.11.59-.32.77l.27.21c.24-.31.81-.27.66-.72A.49.49,0,0,1,465.76,247.34Z"/><path class="cls-3" d="M459.76,288c0,.13.11.24.08.36l.15,0c0-.17.21-.29,0-.42A.2.2,0,0,1,459.76,288Z"/><path class="cls-3" d="M456.75,282.55a.28.28,0,0,1,.05.37c.16,0,.32-.12.47-.07l0-.19C457.06,282.63,456.92,282.34,456.75,282.55Z"/><path class="cls-3" d="M415,368.34a.28.28,0,0,1,.05.37c.16,0,.32-.12.47-.07l0-.19C415.35,368.42,415.2,368.14,415,368.34Z"/><path class="cls-1" d="M422.87,315.56a.56.56,0,0,1,.1.75c.33,0,.64-.24.94-.15l0-.39C423.51,315.72,423.22,315.15,422.87,315.56Z"/><path class="cls-3" d="M446.84,300a.28.28,0,0,1,.05.37c.16,0,.32-.12.47-.07l0-.19C447.16,300.06,447,299.78,446.84,300Z"/><path class="cls-3" d="M447.92,268.49a.28.28,0,0,1,.05.37c.16,0,.32-.12.47-.07l0-.19C448.24,268.57,448.1,268.29,447.92,268.49Z"/><path class="cls-1" d="M471.31,307.94a.28.28,0,0,1,.05.37c.16,0,.32-.12.47-.07l0-.19C471.63,308,471.48,307.74,471.31,307.94Z"/><path class="cls-1" d="M475.62,315.28a.28.28,0,0,1,.05.37c.16,0,.32-.12.47-.07l0-.19C475.94,315.36,475.79,315.08,475.62,315.28Z"/><path class="cls-1" d="M456.56,340.09a.28.28,0,0,1,.05.37c.16,0,.32-.12.47-.07l0-.19C456.88,340.17,456.73,339.89,456.56,340.09Z"/><path class="cls-1" d="M446.81,295.39a.28.28,0,0,1,.05.37c.16,0,.32-.12.47-.07l0-.19C447.13,295.47,447,295.19,446.81,295.39Z"/><path class="cls-1" d="M468.67,332a.28.28,0,0,1,.05.37c.16,0,.32-.12.47-.07l0-.19C469,332.1,468.84,331.82,468.67,332Z"/><path class="cls-1" d="M468.13,325.38a.28.28,0,0,1,.05.37c.16,0,.32-.12.47-.07l0-.19C468.45,325.46,468.3,325.17,468.13,325.38Z"/><path class="cls-1" d="M475.35,339.87a.28.28,0,0,1,.05.37c.16,0,.32-.12.47-.07l0-.19C475.67,340,475.52,339.67,475.35,339.87Z"/><path class="cls-1" d="M456.83,314.58a.28.28,0,0,1,.05.37c.16,0,.32-.12.47-.07l0-.19C457.15,314.66,457,314.38,456.83,314.58Z"/><path class="cls-1" d="M470.69,376.94a.35.35,0,0,1-.37.32c.14.17.36.28.42.49l.23-.11C470.83,377.36,471,377,470.69,376.94Z"/><path class="cls-1" d="M478.27,351.54a1.53,1.53,0,0,1,.22,1.18c.27,0,.51-.26.78-.07l0-.59C478.85,351.9,478.49,351,478.27,351.54Z"/><path class="cls-1" d="M470.53,347.71a.28.28,0,0,1,.05.37c.16,0,.32-.12.47-.07l0-.19C470.85,347.79,470.7,347.51,470.53,347.71Z"/><path class="cls-1" d="M401.25,240a1,1,0,0,1,.8,1.18c.52-.35.88-.95,1.47-1l-.26-.7C402.47,239.77,401.49,239.06,401.25,240Z"/><path class="cls-3" d="M470.9,291.14l-.14.12c.16.17.09.47.36.44a.25.25,0,0,1,.2-.3C471.17,291.31,471,291.27,470.9,291.14Z"/><path class="cls-1" d="M307.92,292.85l-.06.29c.24,0,.42.27.65.41a.39.39,0,0,1,.25-.5C308.6,292.65,308.26,293,307.92,292.85Z"/><path class="cls-1" d="M306.62,303.49c0,.13.11.24.08.36l.15,0c0-.17.21-.29,0-.42A.2.2,0,0,1,306.62,303.49Z"/><path class="cls-1" d="M305.55,300.29c0,.13.11.24.08.36l.15,0c0-.17.21-.29,0-.42A.2.2,0,0,1,305.55,300.29Z"/><path class="cls-1" d="M325.7,296.78a.28.28,0,0,1,.21.31c.14-.09.23-.25.39-.27l-.07-.18C326,296.71,325.77,296.53,325.7,296.78Z"/><path class="cls-1" d="M313.13,309.35a.28.28,0,0,1,.22.31c.13-.09.23-.25.38-.27l-.07-.18C313.45,309.28,313.19,309.09,313.13,309.35Z"/><path class="cls-1" d="M305.85,307a.28.28,0,0,1,.21.31c.14-.09.23-.25.39-.27l-.07-.18C306.17,307,305.91,306.78,305.85,307Z"/><path class="cls-1" d="M301.87,303.84a.28.28,0,0,1,.21.31c.13-.09.23-.25.38-.27l-.07-.18C302.19,303.77,301.93,303.58,301.87,303.84Z"/><path class="cls-1" d="M303.88,304.1l-.14.12c.16.17.09.47.36.44a.26.26,0,0,1,.2-.3C304.16,304.27,304,304.23,303.88,304.1Z"/><path class="cls-1" d="M299.35,309.91l-.14.12c.16.17.09.47.36.44a.25.25,0,0,1,.2-.3C299.62,310.08,299.43,310,299.35,309.91Z"/><path class="cls-1" d="M303.92,309l-.14.12c.16.17.09.47.36.44a.25.25,0,0,1,.2-.3C304.2,309.16,304,309.12,303.92,309Z"/><path class="cls-1" d="M319.32,301.66l-.14.12c.16.17.09.47.36.44a.25.25,0,0,1,.2-.3C319.59,301.83,319.4,301.79,319.32,301.66Z"/><path class="cls-1" d="M305.65,311.88c0,.13.11.24.08.36l.15,0c0-.17.21-.29,0-.42A.2.2,0,0,1,305.65,311.88Z"/><path class="cls-1" d="M313.77,314.46a3.93,3.93,0,0,0,1-1l-.44-.21C314.17,313.76,313.41,313.88,313.77,314.46Z"/><path class="cls-1" d="M302.63,311.38c.23,0,.25.39.11,1a8.27,8.27,0,0,1,.89-1.41S303,310.32,302.63,311.38Z"/><path class="cls-1" d="M302.14,337.89c.23,0,.25.39.11,1a8.27,8.27,0,0,1,.89-1.41S302.46,336.83,302.14,337.89Z"/><path class="cls-1" d="M307.82,299.38a.45.45,0,0,1,.35.5c.22-.15.37-.4.62-.44l-.11-.3C308.34,299.27,307.92,299,307.82,299.38Z"/><path class="cls-1" d="M310.48,297.37a.45.45,0,0,1,.35.5c.22-.15.37-.4.62-.44l-.11-.3C311,297.26,310.58,297,310.48,297.37Z"/><path class="cls-1" d="M355.11,430.4a.28.28,0,0,1,.05.37c.16,0,.32-.12.47-.07l0-.19C355.43,430.48,355.28,430.2,355.11,430.4Z"/><path class="cls-1" d="M331.79,399.78c-.16,0-.3.18-.46.15v.2c.23,0,.41.26.55,0A.29.29,0,0,1,331.79,399.78Z"/><path class="cls-1" d="M335.78,398c-.16,0-.3.18-.46.15v.2c.23,0,.41.26.55,0A.29.29,0,0,1,335.78,398Z"/><path class="cls-1" d="M328.91,403.45a.35.35,0,0,1-.37.32c.14.17.36.28.42.49l.23-.11C329.05,403.88,329.26,403.51,328.91,403.45Z"/><path class="cls-1" d="M314.42,413.54a.35.35,0,0,1-.37.32c.14.17.36.28.42.49l.23-.11C314.56,414,314.76,413.6,314.42,413.54Z"/><path class="cls-1" d="M327,399.12a.35.35,0,0,1-.37.32c.14.17.36.28.42.49l.23-.11C327.18,399.55,327.39,399.18,327,399.12Z"/><path class="cls-1" d="M320.7,399.37c-.16,0-.3.18-.46.15v.2c.23,0,.41.26.55,0A.29.29,0,0,1,320.7,399.37Z"/><path class="cls-1" d="M320.88,395.23c0,.31-.47.38-1.29.26a11.24,11.24,0,0,1,2,1S322.31,395.56,320.88,395.23Z"/><path class="cls-1" d="M322.1,405.67a.57.57,0,0,1-.6.52c.23.28.58.46.67.8l.37-.18C322.33,406.36,322.66,405.76,322.1,405.67Z"/><path class="cls-1" d="M305.84,382.79a.57.57,0,0,1-.6.52c.23.28.58.46.67.8l.37-.18C306.07,383.48,306.41,382.88,305.84,382.79Z"/><path class="cls-1" d="M314.93,402.4c-.25.12-.46.36-.72.36l.05.34c.37-.07.73.33.92-.1A.48.48,0,0,1,314.93,402.4Z"/><path class="cls-1" d="M312.75,426a.57.57,0,0,1,.57.55c.25-.26.4-.63.72-.76l-.21-.35C313.41,425.72,312.79,425.44,312.75,426Z"/><path class="cls-1" d="M317.35,414.44l-.25-.06c0,.3-.43.45-.18.72a.34.34,0,0,1,.49,0C317.39,414.87,317.28,414.64,317.35,414.44Z"/><path class="cls-1" d="M350.32,395.74c.08.06,0,.21-.18.41a3.9,3.9,0,0,1,.68-.36S350.69,395.4,350.32,395.74Z"/><path class="cls-1" d="M355.49,410.09c-.14.13-.23.33-.41.39l.11.2c.24-.13.57,0,.6-.27A.31.31,0,0,1,355.49,410.09Z"/><path class="cls-1" d="M346.12,397.65c-.14.13-.23.33-.41.39l.11.2c.23-.13.56,0,.6-.27A.31.31,0,0,1,346.12,397.65Z"/><path class="cls-1" d="M405.91,417.62c-.14.13-.23.33-.41.39l.11.2c.23-.13.56,0,.6-.27A.31.31,0,0,1,405.91,417.62Z"/><path class="cls-1" d="M350.3,407c-.14.13-.23.33-.41.39l.11.2c.23-.13.57,0,.6-.27A.31.31,0,0,1,350.3,407Z"/><path class="cls-1" d="M331.74,426a.31.31,0,0,1-.19.39c.18.08.4.08.53.22l.15-.17C332,426.3,332,425.94,331.74,426Z"/><path class="cls-1" d="M348,402.94l.55.15c.16-.63,1-.92.52-1.51A4.88,4.88,0,0,0,348,402.94Z"/><path class="cls-1" d="M340.34,406.72c-.14.13-.23.33-.41.39l.11.2c.23-.13.57,0,.6-.27A.31.31,0,0,1,340.34,406.72Z"/><path class="cls-1" d="M355,420.1c-.23.21-.37.53-.66.63l.17.32c.38-.21.91.06,1-.44A.5.5,0,0,1,355,420.1Z"/><path class="cls-1" d="M353.09,404c-.23.21-.38.54-.66.63l.17.32c.38-.21.91.06,1-.44A.5.5,0,0,1,353.09,404Z"/><path class="cls-1" d="M288.53,307.62c-.23.21-.37.54-.66.63l.17.32c.38-.21.91.06,1-.44A.5.5,0,0,1,288.53,307.62Z"/><path class="cls-1" d="M345.92,413a.31.31,0,0,1-.19.39c.18.08.4.08.53.22l.15-.17C346.2,413.28,346.23,412.92,345.92,413Z"/><path class="cls-1" d="M397.35,327.77c-.22.1-.39.3-.62.31l.05.27c.32-.07.64.25.79-.1A.37.37,0,0,1,397.35,327.77Z"/><path class="cls-1" d="M393.78,326.43l-.18,0c0,.22-.3.36-.11.54a.25.25,0,0,1,.35,0C393.82,326.74,393.73,326.58,393.78,326.43Z"/><path class="cls-1" d="M386.32,313c-.14.08-.25.23-.4.25l0,.18c.21-.06.42.13.52-.12A.25.25,0,0,1,386.32,313Z"/><path class="cls-1" d="M388.23,315.88a.21.21,0,0,1-.09.27c.11,0,.25,0,.33.09l.08-.12C388.42,316,388.41,315.8,388.23,315.88Z"/><path class="cls-1" d="M391.59,314.55l-.18,0c0,.22-.3.37-.11.54a.25.25,0,0,1,.35-.05C391.63,314.85,391.54,314.7,391.59,314.55Z"/><path class="cls-1" d="M397.24,327.61c.33.41.1,1.14.73,1.07a4,4,0,0,0-.37-1.37Z"/><path class="cls-1" d="M382.72,318.38a3.67,3.67,0,0,0,1.13.78l.11-.46C383.45,318.61,383.19,317.91,382.72,318.38Z"/><path class="cls-1" d="M392,311.57c.13-.19.43,0,.87.36a8.25,8.25,0,0,1-.77-1.42S391.26,310.8,392,311.57Z"/><path class="cls-1" d="M389.91,314.38l-.18,0c0,.22-.3.36-.11.54a.25.25,0,0,1,.35,0C390,314.68,389.87,314.53,389.91,314.38Z"/><path class="cls-1" d="M398.77,319.84l-.18,0c0,.22-.3.37-.11.54a.25.25,0,0,1,.35,0C398.81,320.14,398.72,320,398.77,319.84Z"/><path class="cls-1" d="M391,317.91l-.18,0c0,.22-.3.36-.11.54a.25.25,0,0,1,.35,0C391.06,318.22,391,318.06,391,317.91Z"/><path class="cls-1" d="M398,315.19l-.18,0c0,.22-.3.36-.11.54a.25.25,0,0,1,.35-.05C398,315.49,398,315.34,398,315.19Z"/><path class="cls-1" d="M394,314.13l-.29,0c0,.36-.48.59-.18.87a.4.4,0,0,1,.56-.08C394.05,314.62,393.91,314.37,394,314.13Z"/><path class="cls-1" d="M394.69,323l-.29,0c0,.36-.48.59-.18.87a.4.4,0,0,1,.56-.08C394.75,323.47,394.61,323.22,394.69,323Z"/><path class="cls-1" d="M386.65,320l-.18,0c0,.22-.3.37-.11.54a.25.25,0,0,1,.35,0C386.69,320.31,386.61,320.15,386.65,320Z"/><path class="cls-1" d="M387.85,318.6c-.14.09-.25.24-.4.25l0,.18c.21-.06.42.13.52-.12A.25.25,0,0,1,387.85,318.6Z"/><path class="cls-1" d="M391.89,320.77c-.14.09-.25.23-.4.25l0,.18c.21-.07.42.13.52-.12A.25.25,0,0,1,391.89,320.77Z"/><path class="cls-1" d="M389.13,313.6c-.14.08-.25.23-.4.25l0,.18c.21-.07.42.13.52-.12A.25.25,0,0,1,389.13,313.6Z"/><path class="cls-1" d="M486.69,330.47a.37.37,0,0,1-.35.39c.18.16.43.25.52.46l.23-.15C486.9,330.89,487.07,330.48,486.69,330.47Z"/><path class="cls-1" d="M486.86,334.44c-.14.08-.25.22-.41.23l0,.18c.21-.06.45.14.54-.1A.25.25,0,0,1,486.86,334.44Z"/><path class="cls-1" d="M479.5,348.35a.25.25,0,0,1-.23.27c.13.1.31.14.38.27l.15-.11C479.67,348.62,479.77,348.34,479.5,348.35Z"/><path class="cls-1" d="M479,343.43l-.14,0c0,.16-.24.25-.09.39a.21.21,0,0,1,.28,0C479,343.65,479,343.53,479,343.43Z"/><path class="cls-1" d="M486.46,342.68l-.14,0c0,.16-.24.25-.09.39a.21.21,0,0,1,.28,0C486.49,342.91,486.42,342.79,486.46,342.68Z"/><path class="cls-1" d="M488.25,340.79l-.14,0c0,.16-.24.25-.09.39a.21.21,0,0,1,.28,0C488.28,341,488.21,340.89,488.25,340.79Z"/><path class="cls-1" d="M494.2,349.56c-.14.08-.25.22-.41.23l0,.17c.22-.05.45.14.54-.1A.25.25,0,0,1,494.2,349.56Z"/><path class="cls-1" d="M486.42,339.75l.41.22c.25-.46,1-.52.72-1.08A4,4,0,0,0,486.42,339.75Z"/><path class="cls-1" d="M483.16,347.95a3.66,3.66,0,0,0,.29-1.34l-.47.07C483.1,347.19,482.55,347.69,483.16,347.95Z"/><path class="cls-1" d="M487.1,349.14s.59.66,1-.31c-.22,0-.2-.38,0-.94A8.22,8.22,0,0,1,487.1,349.14Z"/><path class="cls-1" d="M493.9,361.85c-.14.08-.25.22-.41.23l0,.18c.21-.06.45.14.54-.1A.25.25,0,0,1,493.9,361.85Z"/><path class="cls-1" d="M478.87,332.31c-.14.08-.25.22-.41.23l0,.18c.21-.06.45.14.54-.1A.25.25,0,0,1,478.87,332.31Z"/><path class="cls-1" d="M499.3,356.21c-.14.08-.25.21-.41.23l0,.17c.21-.06.45.14.54-.1A.25.25,0,0,1,499.3,356.21Z"/><path class="cls-1" d="M474.85,334.76c-.14.08-.25.22-.41.23l0,.18c.21-.06.45.14.54-.1A.25.25,0,0,1,474.85,334.76Z"/><path class="cls-1" d="M491.36,340.61c-.23.12-.41.35-.66.37l.08.28c.35-.09.73.22.87-.16A.4.4,0,0,1,491.36,340.61Z"/><path class="cls-1" d="M490.89,347.29c-.23.12-.41.35-.66.37l.08.28c.35-.09.73.22.87-.16A.4.4,0,0,1,490.89,347.29Z"/><path class="cls-1" d="M483.59,343.46c-.14.08-.25.22-.41.23l0,.18c.22-.06.45.14.54-.1A.25.25,0,0,1,483.59,343.46Z"/><path class="cls-1" d="M481.66,342.85a.25.25,0,0,1-.23.27c.13.1.31.14.38.27l.16-.11C481.83,343.12,481.93,342.84,481.66,342.85Z"/><path class="cls-1" d="M485.44,335.19a.25.25,0,0,1-.23.27c.13.1.31.14.38.27l.16-.11C485.61,335.46,485.71,335.18,485.44,335.19Z"/><path class="cls-1" d="M496.77,351.86a.25.25,0,0,1-.23.27c.13.1.31.14.38.27l.16-.11C496.94,352.13,497,351.85,496.77,351.86Z"/><path class="cls-1" d="M482.15,338.3a.25.25,0,0,1-.23.27c.13.1.31.14.38.27l.16-.1C482.31,338.56,482.41,338.29,482.15,338.3Z"/><path class="cls-1" d="M487.06,348.08a.25.25,0,0,1-.23.27c.13.1.31.14.38.27l.15-.11C487.23,348.35,487.33,348.07,487.06,348.08Z"/><path class="cls-3" d="M398.66,285.23c-.22.1-.39.3-.62.31l.05.27c.32-.07.64.25.79-.1A.37.37,0,0,1,398.66,285.23Z"/><path class="cls-3" d="M395.08,283.9l-.18,0c0,.22-.3.36-.11.54a.25.25,0,0,1,.35,0C395.13,284.2,395,284,395.08,283.9Z"/><path class="cls-3" d="M387.62,270.41c-.14.08-.25.23-.4.25l0,.18c.21-.06.42.13.52-.12A.25.25,0,0,1,387.62,270.41Z"/><path class="cls-3" d="M389.54,273.35a.21.21,0,0,1-.09.27c.11,0,.25,0,.33.09l.08-.12C389.72,273.5,389.72,273.26,389.54,273.35Z"/><path class="cls-3" d="M392.9,272l-.18,0c0,.22-.3.37-.11.54a.25.25,0,0,1,.35-.05C392.94,272.31,392.85,272.16,392.9,272Z"/><path class="cls-3" d="M398.54,285.07c.33.41.1,1.14.73,1.07a4,4,0,0,0-.37-1.37Z"/><path class="cls-3" d="M384,275.84a3.67,3.67,0,0,0,1.13.78l.11-.46C384.76,276.07,384.5,275.38,384,275.84Z"/><path class="cls-3" d="M393.3,269c.13-.19.43,0,.87.36a8.26,8.26,0,0,1-.77-1.42S392.57,268.26,393.3,269Z"/><path class="cls-3" d="M391.22,271.84l-.18,0c0,.22-.3.36-.11.54a.25.25,0,0,1,.35,0C391.26,272.15,391.17,272,391.22,271.84Z"/><path class="cls-3" d="M391.22,267.72l-.18,0c0,.22-.3.37-.11.54a.25.25,0,0,1,.35,0C391.26,268,391.17,267.87,391.22,267.72Z"/><path class="cls-3" d="M476.92,285.9l-.18,0c0,.22-.3.37-.11.54a.25.25,0,0,1,.35,0C477,286.2,476.87,286,476.92,285.9Z"/><path class="cls-3" d="M392.33,275.38l-.18,0c0,.22-.3.36-.11.54a.25.25,0,0,1,.35,0C392.37,275.68,392.28,275.53,392.33,275.38Z"/><path class="cls-3" d="M399.32,272.65l-.18,0c0,.22-.3.36-.11.54a.25.25,0,0,1,.35-.05C399.36,273,399.27,272.8,399.32,272.65Z"/><path class="cls-3" d="M395.3,271.59l-.29,0c0,.36-.48.59-.18.87a.4.4,0,0,1,.56-.08C395.36,272.08,395.22,271.83,395.3,271.59Z"/><path class="cls-3" d="M467.58,291.3l-.29,0c0,.36-.48.59-.18.87a.4.4,0,0,1,.56-.08C467.64,291.8,467.5,291.55,467.58,291.3Z"/><path class="cls-3" d="M396,280.45l-.29,0c0,.36-.48.59-.18.87a.4.4,0,0,1,.56-.08C396.06,280.93,395.92,280.69,396,280.45Z"/><path class="cls-3" d="M388,277.47l-.18,0c0,.22-.3.37-.11.54a.25.25,0,0,1,.35,0C388,277.77,387.91,277.62,388,277.47Z"/><path class="cls-3" d="M389.16,276.06c-.14.09-.25.24-.4.25l0,.18c.21-.06.42.13.52-.12A.25.25,0,0,1,389.16,276.06Z"/><path class="cls-3" d="M393.19,278.23c-.14.09-.25.23-.4.25l0,.18c.21-.07.42.13.52-.12A.25.25,0,0,1,393.19,278.23Z"/><path class="cls-3" d="M390.44,271.07c-.14.08-.25.23-.4.25l0,.18c.21-.07.42.13.52-.12A.25.25,0,0,1,390.44,271.07Z"/><path class="cls-3" d="M394,400.18c-.14.08-.25.23-.4.25l0,.18c.21-.06.42.13.52-.12A.25.25,0,0,1,394,400.18Z"/><path class="cls-3" d="M395.94,403.12a.21.21,0,0,1-.09.27c.11,0,.25,0,.33.09l.08-.12C396.12,403.27,396.12,403,395.94,403.12Z"/><path class="cls-3" d="M399.3,401.78l-.18,0c0,.22-.3.37-.11.54a.25.25,0,0,1,.35-.05C399.34,402.08,399.25,401.93,399.3,401.78Z"/><path class="cls-3" d="M382.87,411l-.18,0c0,.22-.3.37-.11.54a.25.25,0,0,1,.35-.05C382.91,411.35,382.83,411.2,382.87,411Z"/><path class="cls-3" d="M399.7,398.8c.13-.19.43,0,.87.36a8.25,8.25,0,0,1-.77-1.42S399,398,399.7,398.8Z"/><path class="cls-3" d="M380.33,371.82c.13-.19.43,0,.87.36a8.25,8.25,0,0,1-.77-1.42S379.6,371.06,380.33,371.82Z"/><path class="cls-3" d="M385,426.36c.13-.19.43,0,.87.36a8.25,8.25,0,0,1-.77-1.42S384.26,425.6,385,426.36Z"/><path class="cls-3" d="M397.62,401.61l-.18,0c0,.22-.3.36-.11.54a.25.25,0,0,1,.35,0C397.66,401.92,397.57,401.76,397.62,401.61Z"/><path class="cls-3" d="M397.62,397.49l-.18,0c0,.22-.3.37-.11.54a.25.25,0,0,1,.35,0C397.66,397.79,397.57,397.64,397.62,397.49Z"/><path class="cls-3" d="M398.72,405.15l-.18,0c0,.22-.3.36-.11.54a.25.25,0,0,1,.35,0C398.76,405.45,398.68,405.3,398.72,405.15Z"/><path class="cls-3" d="M427.35,363.91l-.18,0c0,.22-.3.36-.11.54a.25.25,0,0,1,.35-.05C427.39,364.21,427.31,364.06,427.35,363.91Z"/><path class="cls-3" d="M418.92,380.54l-.29,0c0,.36-.48.59-.18.87a.4.4,0,0,1,.56-.08C419,381,418.84,380.78,418.92,380.54Z"/><path class="cls-3" d="M394.36,407.24l-.18,0c0,.22-.3.37-.11.54a.25.25,0,0,1,.35,0C394.4,407.54,394.31,407.39,394.36,407.24Z"/><path class="cls-3" d="M395.56,405.83c-.14.09-.25.24-.4.25l0,.18c.21-.06.42.13.52-.12A.25.25,0,0,1,395.56,405.83Z"/><path class="cls-3" d="M399.59,408c-.14.09-.25.23-.4.25l0,.18c.21-.07.42.13.52-.12A.25.25,0,0,1,399.59,408Z"/><path class="cls-3" d="M486.91,371.85c-.14.09-.25.23-.4.25l0,.18c.21-.07.42.13.52-.12A.25.25,0,0,1,486.91,371.85Z"/><path class="cls-3" d="M504.58,421.05c-.14.09-.25.23-.4.25l0,.18c.21-.07.42.13.52-.12A.25.25,0,0,1,504.58,421.05Z"/><path class="cls-3" d="M396.84,400.83c-.14.08-.25.23-.4.25l0,.18c.21-.07.42.13.52-.12A.25.25,0,0,1,396.84,400.83Z"/><path class="cls-3" d="M463.87,420.83c-.14.08-.25.23-.4.25l0,.18c.21-.07.42.13.52-.12A.25.25,0,0,1,463.87,420.83Z"/><path class="cls-3" d="M467.88,287.77c-.14.08-.25.23-.4.25l0,.18c.21-.07.42.13.52-.12A.25.25,0,0,1,467.88,287.77Z"/><path class="cls-3" d="M504.89,389.31l-.18,0c0,.22-.3.37-.11.54a.25.25,0,0,1,.35,0C504.93,389.61,504.84,389.46,504.89,389.31Z"/><path class="cls-3" d="M503.72,390.89l-.29,0c0,.36-.48.59-.18.87a.4.4,0,0,1,.56-.08C503.78,391.38,503.64,391.13,503.72,390.89Z"/><path class="cls-3" d="M504,387.35c-.14.08-.25.23-.4.25l0,.18c.21-.07.42.13.52-.12A.25.25,0,0,1,504,387.35Z"/><path class="cls-1" d="M458.7,150l-.22.14c.17.25,0,.62.38.63a.35.35,0,0,1,.34-.35C459,150.23,458.79,150.15,458.7,150Z"/><path class="cls-1" d="M452.83,164a.28.28,0,0,1-.08.37c.16,0,.34,0,.47.09l.09-.17C453.1,164.17,453.06,163.86,452.83,164Z"/><path class="cls-1" d="M458.52,156.7a.28.28,0,0,1,.1.36c.16,0,.3-.15.46-.13v-.19C458.85,156.75,458.67,156.48,458.52,156.7Z"/><path class="cls-1" d="M462.19,139.1c.09.21-.08.47.19.53a.25.25,0,0,1,.29-.21c-.1-.14-.27-.23-.3-.39Z"/><path class="cls-1" d="M457.5,166.41a.45.45,0,0,1,.15.59c.25-.06.49-.25.74-.2v-.32C458,166.48,457.74,166.06,457.5,166.41Z"/><path class="cls-1" d="M453.18,149.85a.57.57,0,0,1,.77.21c.11-.34.06-.74.29-1l-.36-.21C453.63,149.28,452.94,149.33,453.18,149.85Z"/><path class="cls-1" d="M462.77,148.12l-.17.18c.17.22.07.65.37.59a.4.4,0,0,1,.25-.43C463.06,148.34,462.85,148.31,462.77,148.12Z"/><path class="cls-3" d="M478.92,277.24l-.24,0c-.07.27-.46.44-.23.65a.38.38,0,0,1,.48-.06C478.93,277.61,478.83,277.42,478.92,277.24Z"/><path class="cls-1" d="M518.63,409.63a3.42,3.42,0,0,0,.39-1.15l-.4,0C518.66,409,518.15,409.37,518.63,409.63Z"/><path class="cls-1" d="M518.55,415.52c-.23.09-.43.28-.66.26l0,.28c.33,0,.62.32.82,0A.39.39,0,0,1,518.55,415.52Z"/><path class="cls-1" d="M522.56,409.73c.31.22.3.74.72.6a.44.44,0,0,1,.22-.57c-.26-.1-.56-.09-.75-.28Z"/><path class="cls-1" d="M513.25,410.45l-.31-.06c-.07.37-.55.59-.25.9a.44.44,0,0,1,.61,0C513.29,411,513.15,410.7,513.25,410.45Z"/><path class="cls-1" d="M526,401.32c0,.1,0,.18-.12.25.12,0,.26,0,.34.09l.1-.12C526.14,401.47,526.16,401.25,526,401.32Z"/><path class="cls-1" d="M522.32,396.74l-.19,0c-.05.21-.35.34-.18.5a.29.29,0,0,1,.37,0C522.33,397,522.26,396.88,522.32,396.74Z"/><path class="cls-1" d="M507.21,396.79l-.19,0c-.05.21-.35.34-.18.5a.29.29,0,0,1,.37,0C507.22,397.07,507.14,396.93,507.21,396.79Z"/><path class="cls-1" d="M516.52,412.74l-.19,0c-.05.21-.35.34-.18.5a.29.29,0,0,1,.37,0C516.53,413,516.45,412.88,516.52,412.74Z"/><path class="cls-1" d="M519.23,403l-.19,0c-.05.21-.35.34-.18.5a.29.29,0,0,1,.37,0C519.24,403.29,519.16,403.14,519.23,403Z"/><path class="cls-1" d="M508.58,402.81c-.16.08-.29.22-.45.23l0,.17c.23-.06.43.13.56-.11A.21.21,0,0,1,508.58,402.81Z"/><path class="cls-1" d="M504.33,391.67c-.16.08-.29.22-.45.23l0,.17c.23-.06.43.13.56-.11A.21.21,0,0,1,504.33,391.67Z"/><path class="cls-1" d="M511.58,402.62c0,.1,0,.18-.12.25.12,0,.26,0,.34.09l.1-.12C511.76,402.76,511.78,402.54,511.58,402.62Z"/><path class="cls-1" d="M529.55,383.87c.3.39,0,1.07.65,1a3.24,3.24,0,0,0-.24-1.29Z"/><path class="cls-1" d="M530.91,381.94l-.3,0c-.09.33-.57.55-.29.82a.47.47,0,0,1,.6-.07C530.92,382.4,530.8,382.16,530.91,381.94Z"/><path class="cls-1" d="M501,408.66c-.16.08-.29.22-.45.23l0,.17c.23-.06.43.13.56-.11A.21.21,0,0,1,501,408.66Z"/><path class="cls-1" d="M519.18,395.45c-.15.08-.29.22-.45.23l0,.17c.23-.06.43.13.56-.11A.21.21,0,0,1,519.18,395.45Z"/><path class="cls-1" d="M530.15,401.26c-.1.21-.1.47-.27.61l.21.19c.2-.24.63-.17.53-.54A.39.39,0,0,1,530.15,401.26Z"/><path class="cls-1" d="M532,408.89c.06.42-.38.76.06,1a.46.46,0,0,1,.63-.2c-.11-.29-.35-.55-.34-.84Z"/><path class="cls-1" d="M527.68,412.69c-.11.18-.14.42-.3.53l.17.18c.2-.21.59-.13.53-.46A.33.33,0,0,1,527.68,412.69Z"/><path class="cls-1" d="M525.69,424.26A5.34,5.34,0,0,0,525,426h.6C525.59,425.29,526.39,424.73,525.69,424.26Z"/><path class="cls-1" d="M524.37,417c0,.06,0,.14,0,.19l.07,0c0-.08.17-.09.13-.18A.11.11,0,0,1,524.37,417Z"/><path class="cls-1" d="M520.74,417.3c0,.06,0,.14,0,.19l.07,0c0-.08.18-.09.13-.18A.11.11,0,0,1,520.74,417.3Z"/><path class="cls-1" d="M522.81,417.33c0,.1,0,.22-.08.3l.11.07c.07-.13.28-.14.21-.3A.18.18,0,0,1,522.81,417.33Z"/><path class="cls-1" d="M526.31,416.07c-.08,0-.16,0-.23,0l0,.09c.1,0,.16.17.25.09A.12.12,0,0,1,526.31,416.07Z"/><path class="cls-3" d="M468.89,378.3c0-.07.07-.14,0-.21s-.24-.06-.35-.11a1.93,1.93,0,0,0-.77-.79c.08.53-.55.75,0,1-.77.11,1.07.46,1,.51.14.23.12.09.15.4l.2.06.23,0C469.39,378.84,469.37,378.41,468.89,378.3Z"/><path class="cls-1" d="M500.5,84.55a.56.56,0,0,1,.69.39c.18-.31.23-.71.51-.91l-.3-.29C501.06,84.09,500.39,84,500.5,84.55Z"/><path class="cls-1" d="M391,341.3c0,.22.17.43.12.64l.25,0c0-.3.38-.52.11-.74A.35.35,0,0,1,391,341.3Z"/><path class="cls-1" d="M392,342.54a.35.35,0,0,1,.25.42c.19-.12.33-.34.53-.37l-.07-.25C392.42,342.45,392.1,342.19,392,342.54Z"/><path class="cls-1" d="M403.26,327.43l-.1.18c.2.11.23.43.47.3a.28.28,0,0,1,.1-.37C403.57,327.5,403.38,327.53,403.26,327.43Z"/><path class="cls-1" d="M386.54,360.46c0,.22.17.43.12.64l.25,0c0-.31.38-.52.11-.75A.35.35,0,0,1,386.54,360.46Z"/><path class="cls-1" d="M388.9,360.59c0,.22.17.43.12.64l.25,0c0-.3.38-.52.11-.74A.35.35,0,0,1,388.9,360.59Z"/><path class="cls-1" d="M376,353.54c0,.22.18.43.12.64l.26,0c0-.31.38-.52.11-.75A.35.35,0,0,1,376,353.54Z"/><path class="cls-1" d="M397.64,343.25a.56.56,0,0,1-.78.14c.06.36.28.69.19,1l.41,0C397.5,344,398.08,343.61,397.64,343.25Z"/><path class="cls-1" d="M404.93,352a.56.56,0,0,1-.78.14c.06.36.28.69.19,1l.41,0C404.79,352.73,405.38,352.38,404.93,352Z"/><path class="cls-1" d="M383.93,360.63a.56.56,0,0,1-.78.14c.06.35.28.69.19,1l.41,0C383.79,361.34,384.37,361,383.93,360.63Z"/><path class="cls-1" d="M393,352.67c0,.22.17.43.12.64l.25,0c0-.3.38-.52.11-.75A.35.35,0,0,1,393,352.67Z"/><path class="cls-1" d="M391.3,354.88a.35.35,0,0,1,.25.42c.19-.12.33-.34.53-.37l-.07-.25C391.73,354.79,391.41,354.53,391.3,354.88Z"/><path class="cls-1" d="M389.93,361.83a.35.35,0,0,1,.25.42c.19-.12.33-.34.53-.37l-.07-.25C390.36,361.74,390,361.48,389.93,361.83Z"/><path class="cls-3" d="M485.89,357.27a2.56,2.56,0,0,0,.31-.85l-.3,0C485.93,356.78,485.54,357.07,485.89,357.27Z"/><path class="cls-1" d="M449.37,328.51a.28.28,0,0,1,.05.37c.16,0,.32-.12.47-.07l0-.19C449.69,328.59,449.54,328.31,449.37,328.51Z"/><path class="cls-1" d="M449.18,408.58l-.27.19c.23.33,0,.86.5.86a.46.46,0,0,1,.41-.5C449.6,408.94,449.3,408.84,449.18,408.58Z"/><path class="cls-1" d="M437.28,407.91a.57.57,0,0,1,.71.41c.17-.34.19-.78.46-1l-.31-.31C437.82,407.4,437.15,407.29,437.28,407.91Z"/><path class="cls-1" d="M439.09,362.06c-.05.17,0,.38-.15.51l.17.12c.12-.21.45-.21.35-.49A.28.28,0,0,1,439.09,362.06Z"/><path class="cls-1" d="M464.26,359.51c0-.25.33-.36,1-.37a9.11,9.11,0,0,1-1.71-.58S463.07,359.43,464.26,359.51Z"/><path class="cls-1" d="M462.29,385a.35.35,0,0,1-.37.33c.14.18.36.29.42.5l.23-.11C462.43,385.47,462.64,385.09,462.29,385Z"/><path class="cls-1" d="M466.5,382.14a5.54,5.54,0,0,0,1.47,1.31l.2-.63C467.47,382.6,467.19,381.58,466.5,382.14Z"/><path class="cls-1" d="M430,387.94c-.16.05-.3.18-.46.15v.21c.23,0,.41.26.55,0A.29.29,0,0,1,430,387.94Z"/><path class="cls-1" d="M447.38,376.24a.57.57,0,0,1,.57.55c.25-.26.4-.63.72-.76l-.21-.35C448,375.94,447.42,375.66,447.38,376.24Z"/><path class="cls-1" d="M455.24,404.14a.57.57,0,0,1,.58.55c.25-.26.4-.64.72-.76l-.21-.36C455.9,403.84,455.28,403.56,455.24,404.14Z"/><path class="cls-1" d="M452.81,381.2c.25.17.23.58.57.47a.35.35,0,0,1,.2-.45c-.21-.08-.46-.07-.61-.22Z"/><path class="cls-1" d="M445.66,392a.35.35,0,0,1,.36.34c.16-.16.24-.39.45-.47l-.13-.22C446.07,391.79,445.69,391.62,445.66,392Z"/><path class="cls-1" d="M417.46,399.1c.31,0,.42.44.38,1.27a11.5,11.5,0,0,1,.84-2.09S417.64,397.63,417.46,399.1Z"/><path class="cls-1" d="M415.13,392c.25.17.23.58.57.47a.35.35,0,0,1,.2-.45c-.21-.08-.46-.07-.61-.22Z"/><path class="cls-1" d="M408.75,388.59a.28.28,0,0,1-.31.22c.1.13.27.22.3.38l.19-.07C408.83,388.91,409,388.65,408.75,388.59Z"/><path class="cls-1" d="M435.11,387.93a.35.35,0,0,1,.43.24c.11-.2.14-.44.32-.57l-.18-.18C435.46,387.65,435,387.58,435.11,387.93Z"/><path class="cls-1" d="M419,375.83a.35.35,0,0,1,.43.24c.11-.19.14-.44.32-.57l-.18-.18C419.38,375.55,419,375.48,419,375.83Z"/><path class="cls-1" d="M417.37,380.7a.35.35,0,0,1,.43.24c.11-.19.14-.44.32-.56l-.18-.18C417.72,380.42,417.31,380.35,417.37,380.7Z"/><path class="cls-1" d="M416.11,384.22l-.11.24c.28.1.36.51.67.31a.35.35,0,0,1,.08-.49C416.54,384.25,416.29,384.33,416.11,384.22Z"/><path class="cls-1" d="M418.89,373.91l-.11.24c.28.1.36.51.67.31a.35.35,0,0,1,.08-.49C419.31,374,419.06,374,418.89,373.91Z"/><path class="cls-1" d="M430.59,362.23a.28.28,0,0,1-.31.22c.1.13.27.22.3.38l.19-.07C430.68,362.55,430.86,362.29,430.59,362.23Z"/><path class="cls-1" d="M434.67,363.93a.35.35,0,0,1,.43.24c.11-.19.14-.44.31-.56l-.18-.18C435,363.64,434.61,363.58,434.67,363.93Z"/><path class="cls-1" d="M403.48,411.87a5.67,5.67,0,0,0,.71-1.85l-.65,0C403.57,410.79,402.72,411.41,403.48,411.87Z"/><path class="cls-1" d="M430.82,410a5.29,5.29,0,0,0,.62,1.83l.5-.41C431.44,410.91,431.72,409.92,430.82,410Z"/><path class="cls-1" d="M422.44,415.35c.29-.1.51.32.68,1.14a11.56,11.56,0,0,1,.3-2.24S422.25,413.87,422.44,415.35Z"/><path class="cls-1" d="M452.72,361.42c.29-.1.51.32.68,1.14a11.59,11.59,0,0,1,.3-2.24S452.53,360,452.72,361.42Z"/><path class="cls-1" d="M432.95,362.32a.35.35,0,0,1,.43.24c.11-.19.14-.44.31-.57l-.18-.18C433.3,362,432.88,362,432.95,362.32Z"/><path class="cls-1" d="M438.35,376a.35.35,0,0,1,.43.24c.11-.2.14-.45.32-.57l-.18-.18C438.7,375.7,438.29,375.63,438.35,376Z"/><path class="cls-1" d="M461.38,411.08a.35.35,0,0,1,.43.24c.11-.19.14-.44.32-.57l-.18-.18C461.73,410.79,461.31,410.73,461.38,411.08Z"/><path class="cls-1" d="M447.12,372.29a.56.56,0,0,1,.69.39c.18-.31.23-.72.51-.92l-.3-.29C447.69,371.83,447,371.72,447.12,372.29Z"/><path class="cls-1" d="M415.56,370.3a.56.56,0,0,1,.69.39c.18-.31.23-.71.51-.91l-.3-.29C416.12,369.85,415.45,369.74,415.56,370.3Z"/><path class="cls-1" d="M415.56,358.9a.56.56,0,0,1,.69.39c.18-.31.23-.71.51-.91l-.29-.29C416.12,358.44,415.45,358.33,415.56,358.9Z"/><path class="cls-1" d="M437.22,365.7a.56.56,0,0,1,.69.39c.18-.31.23-.71.51-.91l-.3-.29C437.78,365.25,437.11,365.14,437.22,365.7Z"/><path class="cls-1" d="M421.82,382.63a.56.56,0,0,1,.69.39c.18-.32.23-.72.51-.92l-.3-.29C422.39,382.17,421.72,382.06,421.82,382.63Z"/><path class="cls-1" d="M424.74,365.79a.35.35,0,0,1,.43.24c.11-.19.14-.44.31-.57l-.18-.18C425.09,365.51,424.68,365.44,424.74,365.79Z"/><path class="cls-1" d="M427.31,364.87l-.11.24c.28.1.36.51.67.31a.35.35,0,0,1,.08-.49C427.73,364.9,427.49,365,427.31,364.87Z"/><path class="cls-1" d="M432.8,360.4l-.11.24c.28.1.36.51.67.31a.35.35,0,0,1,.08-.49C433.23,360.44,433,360.51,432.8,360.4Z"/><path class="cls-1" d="M460.68,414.51c-.05.17,0,.38-.15.51l.17.12c.13-.21.45-.21.35-.49A.28.28,0,0,1,460.68,414.51Z"/><path class="cls-1" d="M452.19,414.68a.28.28,0,0,1-.31.22c.1.13.27.22.3.38l.19-.07C452.27,415,452.46,414.74,452.19,414.68Z"/><path class="cls-1" d="M434.67,416a.35.35,0,0,1,.43.24c.11-.19.14-.44.31-.56l-.18-.18C435,415.67,434.61,415.6,434.67,416Z"/><path class="cls-1" d="M454.54,414.77a.35.35,0,0,1,.43.24c.11-.19.14-.44.31-.57l-.18-.18C454.89,414.48,454.47,414.42,454.54,414.77Z"/><path class="cls-1" d="M448.9,417.32l-.11.24c.28.1.36.51.67.31a.35.35,0,0,1,.08-.49C449.33,417.35,449.08,417.42,448.9,417.32Z"/><path class="cls-1" d="M454.4,412.85l-.11.24c.28.1.36.51.67.31a.35.35,0,0,1,.08-.49C454.82,412.89,454.58,413,454.4,412.85Z"/><path class="cls-1" d="M442.78,361.29l-.11.24c.28.1.36.51.67.31a.35.35,0,0,1,.08-.49C443.2,361.33,443,361.4,442.78,361.29Z"/><path class="cls-3" d="M450.94,425.14c-.05.17,0,.38-.15.51l.17.12c.12-.21.45-.21.35-.49A.28.28,0,0,1,450.94,425.14Z"/><path class="cls-3" d="M402.76,375.92c-.05.17,0,.38-.15.51l.17.12c.12-.21.45-.21.35-.49A.28.28,0,0,1,402.76,375.92Z"/><path class="cls-3" d="M446.52,427a.35.35,0,0,1,.43.24c.11-.19.14-.44.31-.56l-.18-.18C446.87,426.72,446.46,426.65,446.52,427Z"/><path class="cls-3" d="M444.8,425.39a.35.35,0,0,1,.43.24c.11-.19.14-.44.31-.57l-.18-.18C445.15,425.11,444.73,425,444.8,425.39Z"/><path class="cls-3" d="M355.42,424.2a.35.35,0,0,1,.43.24c.11-.19.14-.44.31-.57l-.18-.18C355.77,423.92,355.36,423.86,355.42,424.2Z"/><path class="cls-3" d="M449.07,428.78a.56.56,0,0,1,.69.39c.18-.31.23-.71.51-.91L450,428C449.64,428.32,449,428.21,449.07,428.78Z"/><path class="cls-3" d="M471.86,394a.56.56,0,0,1,.69.39c.18-.31.23-.71.51-.91l-.3-.29C472.43,393.54,471.76,393.43,471.86,394Z"/><path class="cls-3" d="M444.66,423.48l-.11.24c.28.1.36.51.67.31a.35.35,0,0,1,.08-.49C445.08,423.51,444.84,423.58,444.66,423.48Z"/><path class="cls-3" d="M454.63,424.37l-.11.24c.28.1.36.51.67.31a.35.35,0,0,1,.08-.49C455.05,424.41,454.81,424.48,454.63,424.37Z"/><path class="cls-3" d="M421.54,418l-.11.24c.28.1.36.51.67.31a.35.35,0,0,1,.08-.49C422,418.08,421.72,418.15,421.54,418Z"/><path class="cls-1" d="M461.47,360.63l-.11.24c.28.1.36.51.67.31a.35.35,0,0,1,.08-.49C461.9,360.67,461.65,360.74,461.47,360.63Z"/><path class="cls-1" d="M415.17,411.9a.57.57,0,0,1-.25.76c.34.12.73.1,1,.34l.23-.35C415.71,412.38,415.7,411.7,415.17,411.9Z"/><path class="cls-1" d="M433.65,384.78a.39.39,0,0,1-.14.47c.18.08.4.06.53.21l.12-.21C433.94,385.08,433.93,384.65,433.65,384.78Z"/><path class="cls-1" d="M449.06,406.87a.24.24,0,0,1-.25.22c.1.12.25.19.29.33l.16-.08C449.15,407.16,449.3,406.91,449.06,406.87Z"/><path class="cls-1" d="M448.84,409.41c-.1,0-.18.12-.28.11l0,.12c.14,0,.27.12.35,0A.16.16,0,0,1,448.84,409.41Z"/><path class="cls-1" d="M434.26,344.67l.24.18c.2-.27.68-.25.54-.63A2.56,2.56,0,0,0,434.26,344.67Z"/><path class="cls-1" d="M444,407.4c-.1,0-.18.12-.28.11l0,.12c.14,0,.27.12.35,0A.16.16,0,0,1,444,407.4Z"/><path class="cls-1" d="M441.25,408.63c-.1,0-.18.12-.28.11l0,.12c.14,0,.27.12.35,0A.16.16,0,0,1,441.25,408.63Z"/><path class="cls-1" d="M430.27,393.78c-.16.06-.29.19-.45.18l0,.19c.23,0,.44.2.56,0A.26.26,0,0,1,430.27,393.78Z"/></g></g></svg>