<svg xmlns="http://www.w3.org/2000/svg" viewBox="0 0 312.89 312.88"><defs><style>.cls-1{fill:#bf3432;}</style></defs><title>Fichier 3</title><g id="Calque_2" data-name="Calque 2"><g id="Calque_2-2" data-name="Calque 2"><path class="cls-1" d="M140.36,0C126,0,116.7,12.4,116.7,27.14c0,16.29,11.24,31.79,11.24,41.87,0,12-3.1,22.49-10.85,39.17l-6.2,12.4-2.24,0C48.06,120.56,0,167,0,223.33c0,52,42.26,89.56,98.87,89.56,73.67,0,129.5-67.07,129.5-146.94a51.68,51.68,0,0,0,17.45,3.49c37.22,0,67.08-26.36,67.08-62.43,0-19.38-12.8-30.24-24.82-30.24-13.18,0-21.33,8.92-21.33,19.78,0,17.45,18.61,14.73,18.61,29.08,0,7.75-5,12.79-15.9,12.79-17.45,0-40.32-28.69-67.46-28.69-37.23,0-66.69,31.79-66.69,61.26,0,21.72,12.79,31.79,26.37,31.79,10.47,0,19.77-8.53,19.77-17.84,0-17.45-18.61-14.34-18.61-29.08,0-7,4.65-12.79,14.35-12.79,12.4,0,22.48,7,35.67,15.9-1.94,81.81-55.05,107.4-103.13,107.4-16.29,0-31-5.82-43.81-14L142.68,89.18c13.57-28.7,22.1-46.52,22.1-60.49C164.78,11.63,156.25,0,140.36,0M53.89,242.72c-13.18-12-20.94-25.6-20.94-41.1,0-28.57,16-51.3,47.56-51.3A78.44,78.44,0,0,1,96.16,152L53.89,242.72"/></g></g></svg>