<svg xmlns="http://www.w3.org/2000/svg" viewBox="0 0 640 434.26"><defs><style>.cls-1{fill:#414142;}.cls-2{fill:#fff;}.cls-3{fill:#808285;}</style></defs><title>Fichier 2</title><g id="Calque_2" data-name="Calque 2"><g id="Calque_1-2" data-name="Calque 1"><rect class="cls-1" width="640" height="434.26"/><path class="cls-2" d="M223.11,210.2h8.52v-8.3h-8.52Zm0,10.27h8.52v-8.3h-8.52Zm0,10.27h8.52v-8.3h-8.52Zm0,10.27h8.52v-8.3h-8.52Zm0,10.27h8.52V243h-8.52Zm0,10.27h8.52v-8.3h-8.52Zm0,10.27h8.52v-8.3h-8.52Zm86.76-154.29h8.3v-8.3h-8.3Zm0,10.27h8.3v-8.3h-8.3Zm0,10.27h8.3v-8.3h-8.3Zm0,10.27h8.3V140h-8.3Zm-10.93,10.49h8.52v-8.52h-8.52Zm10.93,0h8.3v-8.52h-8.3Zm10.93,0h8.3v-8.52h-8.3ZM234,169.11h8.3v-8.52H234Zm64.91,0h8.52v-8.52h-8.52Zm10.93,0h8.3v-8.52h-8.3Zm10.93,0h8.3v-8.52h-8.3Zm64.91,0H394v-8.52h-8.3ZM234,179.39h8.3v-8.52H234Zm54.2,0h8.3v-8.52h-8.3Zm10.71,0h8.52v-8.52h-8.52Zm10.93,0h8.3v-8.52h-8.3Zm10.93,0h8.3v-8.52h-8.3Zm10.71,0h8.3v-8.52h-8.3Zm54.2,0H394v-8.52h-8.3ZM234,189.66h8.3v-8.52H234Zm54.2,0h8.3v-8.52h-8.3Zm10.71,0h8.52v-8.52h-8.52Zm10.93,0h8.3v-8.52h-8.3Zm10.93,0h8.3v-8.52h-8.3Zm10.71,0h8.3v-8.52h-8.3Zm54.2,0H394v-8.52h-8.3ZM234,199.93h8.3v-8.3H234Zm43.27,0h8.52v-8.3h-8.52Zm21.64,0h8.52v-8.3h-8.52Zm10.93,0h8.3v-8.3h-8.3Zm10.93,0h8.3v-8.3h-8.3Zm21.64,0h8.3v-8.3h-8.3Zm43.27,0H394v-8.3h-8.3ZM234,210.2h8.3v-8.3H234Zm10.93,0h8.3v-8.3H245Zm21.64,0h8.3v-8.3h-8.3Zm10.71,0h8.52v-8.3h-8.52Zm10.93,0h8.3v-8.3h-8.3Zm21.64,0h8.3v-8.3h-8.3Zm21.64,0h8.3v-8.3h-8.3Zm10.93,0h8.3v-8.3h-8.3Zm10.71,0h8.3v-8.3h-8.3Zm21.64,0h8.52v-8.3h-8.52Zm10.93,0H394v-8.3h-8.3Zm10.71,0h8.52v-8.3h-8.52ZM234,220.47h8.3v-8.3H234Zm10.93,0h8.3v-8.3H245Zm10.71,0H264v-8.3h-8.3Zm10.93,0h8.3v-8.3h-8.3Zm10.71,0h8.52v-8.3h-8.52Zm10.93,0h8.3v-8.3h-8.3Zm10.71,0h8.52v-8.3h-8.52Zm21.85,0h8.3v-8.3h-8.3Zm10.71,0h8.3v-8.3h-8.3Zm10.93,0h8.3v-8.3h-8.3Zm10.71,0h8.3v-8.3h-8.3Zm10.93,0h8.3v-8.3h-8.3Zm10.71,0h8.52v-8.3h-8.52Zm10.93,0H394v-8.3h-8.3Zm10.71,0h8.52v-8.3h-8.52ZM234,230.74h8.3v-8.3H234Zm10.93,0h8.3v-8.3H245Zm10.71,0H264v-8.3h-8.3Zm10.93,0h8.3v-8.3h-8.3Zm10.71,0h8.52v-8.3h-8.52Zm10.93,0h8.3v-8.3h-8.3Zm10.71,0h8.52v-8.3h-8.52Zm21.85,0h8.3v-8.3h-8.3Zm10.71,0h8.3v-8.3h-8.3Zm10.93,0h8.3v-8.3h-8.3Zm10.71,0h8.3v-8.3h-8.3Zm10.93,0h8.3v-8.3h-8.3Zm10.71,0h8.52v-8.3h-8.52Zm10.93,0H394v-8.3h-8.3Zm10.71,0h8.52v-8.3h-8.52ZM234,241h8.3v-8.3H234ZM245,241h8.3v-8.3H245Zm10.71,0H264v-8.3h-8.3Zm10.93,0h8.3v-8.3h-8.3Zm10.71,0h8.52v-8.3h-8.52Zm21.64,0h8.52v-8.3h-8.52Zm10.93,0h8.3v-8.3h-8.3Zm10.93,0h8.3v-8.3h-8.3Zm21.64,0h8.3v-8.3h-8.3Zm10.71,0h8.3v-8.3h-8.3Zm10.93,0h8.3v-8.3h-8.3Zm10.71,0h8.52v-8.3h-8.52Zm10.93,0H394v-8.3h-8.3Zm10.71,0h8.52v-8.3h-8.52ZM234,251.29h8.3V243H234Zm10.93,0h8.3V243H245Zm21.64,0h8.3V243h-8.3Zm10.71,0h8.52V243h-8.52Zm21.64,0h8.52V243h-8.52Zm10.93,0h8.3V243h-8.3Zm10.93,0h8.3V243h-8.3Zm21.64,0h8.3V243h-8.3Zm10.71,0h8.3V243h-8.3Zm21.64,0h8.52V243h-8.52Zm10.93,0H394V243h-8.3Zm10.71,0h8.52V243h-8.52ZM245,261.56h8.3v-8.3H245Zm32.34,0h8.52v-8.3h-8.52Zm10.93,0h8.3v-8.3h-8.3Zm10.71,0h8.52v-8.3h-8.52Zm10.93,0h8.3v-8.3h-8.3Zm10.93,0h8.3v-8.3h-8.3Zm10.71,0h8.3v-8.3h-8.3Zm10.93,0h8.3v-8.3h-8.3Zm32.34,0h8.52v-8.3h-8.52Zm21.64,0h8.52v-8.3h-8.52ZM234,271.83h8.3v-8.3H234Zm10.93,0h8.3v-8.3H245Zm32.34,0h8.52v-8.3h-8.52Zm10.93,0h8.3v-8.3h-8.3Zm10.71,0h8.52v-8.3h-8.52Zm10.93,0h8.3v-8.3h-8.3Zm10.93,0h8.3v-8.3h-8.3Zm10.71,0h8.3v-8.3h-8.3Zm10.93,0h8.3v-8.3h-8.3Zm32.34,0h8.52v-8.3h-8.52Zm10.93,0H394v-8.3h-8.3Zm10.71,0h8.52v-8.3h-8.52ZM234,282.1h8.3v-8.3H234Zm54.2,0h8.3v-8.3h-8.3Zm21.64,0h8.3v-8.3h-8.3Zm21.64,0h8.3v-8.3h-8.3Zm54.2,0H394v-8.3h-8.3Zm-150.14,90h5.24v-8.52h-5.24Zm151.67,0h5.24v-8.52h-5.24ZM235.57,351.6h5.24v-8.3h-5.24Zm151.67,0h5.24v-8.3h-5.24ZM311.4,372.14h5.24v-8.3H311.4Zm-75.83-41.09h5.24v-8.3h-5.24Zm151.67,0h5.24v-8.3h-5.24ZM311.4,351.81h5.24v-8.3H311.4ZM234,292.37h8.3v-8.3H234Zm54.2,0h8.3v-8.3h-8.3Zm10.71,0h8.52v-8.3h-8.52Zm10.93,0h8.3v-8.3h-8.3Zm10.93,0h8.3v-8.3h-8.3Zm10.71,0h8.3v-8.3h-8.3Zm54.2,0H394v-8.3h-8.3Zm-86.76,10.49h8.52v-8.52h-8.52Zm10.93,0h8.3v-8.52h-8.3Zm10.93,0h8.3v-8.52h-8.3Zm-10.93,10.27h8.3v-8.52h-8.3Zm0,10.27h8.3v-8.52h-8.3Z"/></g><g id="Calque_2-2" data-name="Calque 2"><path class="cls-3" d="M102.08,20.85a.93.93,0,0,0,0,1.48.89.89,0,0,0,1.48,0,1,1,0,0,0-1.48-1.48m2.59,5a.93.93,0,0,0,0,1.48,1,1,0,0,0,1.54,0,.93.93,0,0,0,0-1.48A1,1,0,0,0,104.68,25.82Zm-2.59-2.49a1,1,0,1,0,1.48,0A.93.93,0,0,0,102.08,23.33Zm2.59,5a.93.93,0,0,0,0,1.48.94.94,0,0,0,1.54,0,.93.93,0,0,0,0-1.48A1,1,0,0,0,104.68,28.31Zm-2.59-2.49a1,1,0,1,0,1.48,0A.93.93,0,0,0,102.08,25.82Zm0,2.49a.93.93,0,0,0,0,1.48.89.89,0,0,0,1.48,0,1,1,0,0,0-1.48-1.48Zm-7.89-7.47a.93.93,0,0,0,0,1.48.89.89,0,0,0,1.48,0,1,1,0,0,0-1.48-1.48Zm7.89,10a1,1,0,0,0,0,1.54.93.93,0,0,0,1.48,0,1,1,0,0,0,0-1.54A.93.93,0,0,0,102.08,30.8Zm-2.65-2.49a.93.93,0,0,0,0,1.48,1,1,0,1,0,1.48-1.48A.93.93,0,0,0,99.43,28.31Zm-5.24-5a1,1,0,1,0,1.48,0A.93.93,0,0,0,94.19,23.33Zm5.24,7.47a1,1,0,0,0,0,1.54.93.93,0,0,0,1.48,0,.94.94,0,0,0,0-1.54A.93.93,0,0,0,99.43,30.8Zm-2.59-2.49a.93.93,0,0,0,0,1.48.89.89,0,0,0,1.48,0,1,1,0,0,0-1.48-1.48Zm-2.65-2.49a1,1,0,1,0,1.48,0A.93.93,0,0,0,94.19,25.82Zm5.24,7.47a1,1,0,0,0,0,1.54.93.93,0,0,0,1.48,0,1,1,0,0,0,0-1.54A.93.93,0,0,0,99.43,33.29ZM96.84,30.8a1,1,0,0,0,0,1.54.93.93,0,0,0,1.48,0,1,1,0,0,0,0-1.54A.93.93,0,0,0,96.84,30.8Zm-2.65-2.49a.93.93,0,0,0,0,1.48.89.89,0,0,0,1.48,0,1,1,0,0,0-1.48-1.48Zm-2.6-2.49a.89.89,0,0,0,0,1.48,1,1,0,0,0,1.48-1.48A.93.93,0,0,0,91.6,25.82Zm7.84,10a1,1,0,0,0,0,1.54.93.93,0,0,0,1.48,0,1,1,0,0,0,0-1.54A.93.93,0,0,0,99.43,35.78Zm-2.59-2.49a1,1,0,0,0,0,1.54.93.93,0,0,0,1.48,0,1,1,0,0,0,0-1.54A.93.93,0,0,0,96.84,33.29ZM94.19,30.8a1,1,0,0,0,0,1.54.93.93,0,0,0,1.48,0,1,1,0,0,0,0-1.54A.93.93,0,0,0,94.19,30.8Zm-2.6-2.49a1,1,0,1,0,1.48,1.48,1,1,0,0,0-1.48-1.48Zm15.73,17.47a1,1,0,1,0,1.48,0A.93.93,0,0,0,107.32,45.79Zm-2.65-2.49a.93.93,0,0,0,0,1.48,1,1,0,0,0,1.54,0,.93.93,0,0,0,0-1.48A1,1,0,0,0,104.68,43.3Zm-2.59-2.49a1,1,0,1,0,1.48,0A.89.89,0,0,0,102.08,40.81Zm-2.65-2.49a1,1,0,0,0,1.48,1.48,1,1,0,1,0-1.48-1.48Zm-2.59-2.54a1,1,0,0,0,0,1.54.93.93,0,0,0,1.48,0,1,1,0,0,0,0-1.54A.93.93,0,0,0,96.84,35.78Zm13.08,15a1,1,0,0,0,0,1.48.94.94,0,0,0,1.54,0,.93.93,0,0,0,0-1.48A.94.94,0,0,0,109.92,50.76Zm-2.59-2.49a1,1,0,1,0,1.48,0A.93.93,0,0,0,107.32,48.27Zm-2.65-2.49a.93.93,0,0,0,0,1.48,1,1,0,0,0,1.54,0,.93.93,0,0,0,0-1.48A1,1,0,0,0,104.68,45.79Zm-2.59-2.49a1,1,0,1,0,1.48,0A.93.93,0,0,0,102.08,43.3Zm-2.65-2.49a1,1,0,0,0,1.48,1.48,1,1,0,1,0-1.48-1.48Zm-2.59-2.49a1,1,0,1,0,1.48,0A.89.89,0,0,0,96.84,38.32Zm13.08,14.93a1,1,0,0,0,0,1.48.94.94,0,0,0,1.54,0,.93.93,0,0,0,0-1.48A1,1,0,0,0,109.92,53.25Zm-2.59-2.49a.93.93,0,0,0,0,1.48.89.89,0,0,0,1.48,0,.93.93,0,0,0,0-1.48A.89.89,0,0,0,107.32,50.76Zm-5.24-5a1,1,0,1,0,1.48,0A.93.93,0,0,0,102.08,45.79ZM99.43,43.3a1,1,0,0,0,1.48,1.48.89.89,0,0,0,0-1.48A.93.93,0,0,0,99.43,43.3Zm-2.59-2.49a1,1,0,1,0,1.48,0A.89.89,0,0,0,96.84,40.81Zm13.08,14.93a1.07,1.07,0,0,0,1.54,1.48.93.93,0,0,0,0-1.48A1,1,0,0,0,109.92,55.74Zm-2.59-2.49a.93.93,0,0,0,0,1.48.89.89,0,0,0,1.48,0,1,1,0,1,0-1.48-1.48Zm-2.65-2.49a1,1,0,0,0,0,1.48.94.94,0,0,0,1.54,0,1,1,0,0,0,0-1.48A.94.94,0,0,0,104.68,50.76Zm-2.59-2.49a1,1,0,1,0,1.48,0A.93.93,0,0,0,102.08,48.27Zm-5.24-5a1,1,0,1,0,1.48,0A.93.93,0,0,0,96.84,43.3Zm-2.65-2.49a1,1,0,1,0,1.48,0A.89.89,0,0,0,94.19,40.81Zm15.73,17.42a1.07,1.07,0,0,0,1.54,1.48.93.93,0,0,0,0-1.48A1,1,0,0,0,109.92,58.23Zm-2.59-2.49a1,1,0,1,0,1.48,0A.93.93,0,0,0,107.32,55.74Zm-2.65-2.49a1,1,0,0,0,0,1.48.94.94,0,0,0,1.54,0,1.07,1.07,0,1,0-1.54-1.48Zm-5.24-5a1,1,0,0,0,1.48,1.48.89.89,0,0,0,0-1.48A.93.93,0,0,0,99.43,48.27Zm-5.24-5a1,1,0,1,0,1.48,0A.93.93,0,0,0,94.19,43.3Zm15.73,17.42a1,1,0,0,0,0,1.48.94.94,0,0,0,1.54,0,.93.93,0,0,0,0-1.48A1,1,0,0,0,109.92,60.72Zm-2.59-2.49a1,1,0,1,0,1.48,0A.93.93,0,0,0,107.32,58.23Zm-2.65-2.49a.93.93,0,0,0,0,1.48,1,1,0,0,0,1.54,0,.93.93,0,0,0,0-1.48A1,1,0,0,0,104.68,55.74Zm-2.59-2.49a.93.93,0,0,0,0,1.48.89.89,0,0,0,1.48,0,1,1,0,0,0-1.48-1.48Zm-2.65-2.49a1,1,0,0,0,0,1.48.89.89,0,0,0,1.48,0,.93.93,0,0,0,0-1.48A.89.89,0,0,0,99.43,50.76Zm-2.59-2.49a1,1,0,1,0,1.48,0A.93.93,0,0,0,96.84,48.27Zm-2.65-2.49a1,1,0,1,0,1.48,0A.93.93,0,0,0,94.19,45.79ZM91.6,43.3a.89.89,0,0,0,0,1.48,1,1,0,1,0,0-1.48Zm18.32,19.91a1,1,0,0,0,0,1.54,1.09,1.09,0,1,0,0-1.54Zm-2.59-2.49a.93.93,0,0,0,0,1.48.89.89,0,0,0,1.48,0,1,1,0,1,0-1.48-1.48Zm-2.65-2.49a.93.93,0,0,0,0,1.48,1,1,0,0,0,1.54,0,.93.93,0,0,0,0-1.48A1,1,0,0,0,104.68,58.23Zm-5.24-5a1,1,0,0,0,0,1.48.89.89,0,0,0,1.48,0,1,1,0,1,0-1.48-1.48Zm-2.59-2.49a.93.93,0,0,0,0,1.48.89.89,0,0,0,1.48,0,.93.93,0,0,0,0-1.48A.89.89,0,0,0,96.84,50.76Zm-2.65-2.49a1,1,0,1,0,1.48,0A.93.93,0,0,0,94.19,48.27Zm-2.6-2.49a.89.89,0,0,0,0,1.48,1,1,0,1,0,0-1.48Zm18.32,19.91a1,1,0,0,0,0,1.54,1.09,1.09,0,1,0,0-1.54Zm-2.59-2.49a1,1,0,0,0,0,1.54.93.93,0,0,0,1.48,0,1,1,0,0,0,0-1.54A.93.93,0,0,0,107.32,63.21Zm-2.65-2.49a.93.93,0,0,0,0,1.48.94.94,0,0,0,1.54,0,.93.93,0,0,0,0-1.48A1,1,0,0,0,104.68,60.72Zm-5.24-5a1,1,0,0,0,1.48,1.48.89.89,0,0,0,0-1.48A.93.93,0,0,0,99.43,55.74Zm-2.59-2.49a.93.93,0,0,0,0,1.48.89.89,0,0,0,1.48,0,1,1,0,0,0-1.48-1.48ZM89,45.79a1,1,0,1,0,1.48,0A.93.93,0,0,0,89,45.79Zm13.13,14.93a.93.93,0,0,0,0,1.48.89.89,0,0,0,1.48,0,1,1,0,0,0-1.48-1.48Zm-2.65-2.49a1,1,0,0,0,1.48,1.48.89.89,0,0,0,0-1.48A.93.93,0,0,0,99.43,58.23Zm-2.59-2.49a1,1,0,1,0,1.48,0A.93.93,0,0,0,96.84,55.74Zm-2.65-2.49a.93.93,0,0,0,0,1.48.89.89,0,0,0,1.48,0,1,1,0,0,0-1.48-1.48Zm-2.6-2.49a.93.93,0,0,0,0,1.48.89.89,0,0,0,1.48,0,1,1,0,0,0,0-1.48A.89.89,0,0,0,91.6,50.76ZM89,48.27a1,1,0,1,0,1.48,0A.93.93,0,0,0,89,48.27Zm13.13,14.93a1,1,0,0,0,0,1.54.93.93,0,0,0,1.48,0,1,1,0,0,0,0-1.54A.93.93,0,0,0,102.08,63.21Zm-2.65-2.49a.93.93,0,0,0,0,1.48,1,1,0,1,0,1.48-1.48A.93.93,0,0,0,99.43,60.72Zm-2.59-2.49a1,1,0,1,0,1.48,0A.93.93,0,0,0,96.84,58.23Zm-5.24-5a.93.93,0,0,0,0,1.48.89.89,0,0,0,1.48,0,1,1,0,0,0,0-1.48A.93.93,0,0,0,91.6,53.25ZM89,50.76a.93.93,0,0,0,0,1.48.89.89,0,0,0,1.48,0,.93.93,0,0,0,0-1.48A.89.89,0,0,0,89,50.76Zm18.74,19.8a.8.8,0,0,0-.42.79.76.76,0,0,0,.42.74.71.71,0,0,0,.74,0,.78.78,0,0,0,.37-.74.83.83,0,0,0-.37-.79A.91.91,0,0,0,107.69,70.57ZM96.84,60.72a.93.93,0,0,0,0,1.48.89.89,0,0,0,1.48,0,1,1,0,0,0-1.48-1.48Zm-5.24-5a.89.89,0,0,0,0,1.48,1,1,0,1,0,0-1.48ZM89,53.25a.93.93,0,0,0,0,1.48.89.89,0,0,0,1.48,0A1,1,0,0,0,89,53.25ZM86.3,50.76a1,1,0,0,0,0,1.48.94.94,0,0,0,1.54,0,1,1,0,0,0,0-1.48A.94.94,0,0,0,86.3,50.76Zm7.89,10a.93.93,0,0,0,0,1.48.89.89,0,0,0,1.48,0,1,1,0,0,0-1.48-1.48Zm-2.6-2.49a.89.89,0,0,0,0,1.48,1,1,0,1,0,0-1.48ZM89,55.74a1,1,0,1,0,1.48,0A.93.93,0,0,0,89,55.74ZM86.3,53.25a1,1,0,0,0,0,1.48.94.94,0,0,0,1.54,0,1.07,1.07,0,0,0-1.54-1.48Zm21.39,21.92a.8.8,0,0,0-.42.79.76.76,0,0,0,.42.74.71.71,0,0,0,.74,0,.78.78,0,0,0,.37-.74.83.83,0,0,0-.37-.79A.9.9,0,0,0,107.69,75.17Zm-5.24-4.61a.8.8,0,0,0-.42.79.76.76,0,0,0,.42.74.71.71,0,0,0,.74,0,.78.78,0,0,0,.37-.74.83.83,0,0,0-.37-.79A.91.91,0,0,0,102.45,70.57Zm-8.26-7.36a1,1,0,0,0,0,1.54.93.93,0,0,0,1.48,0,1,1,0,0,0,0-1.54A.93.93,0,0,0,94.19,63.21Zm-2.6-2.49a1,1,0,1,0,1.48,1.48,1,1,0,0,0-1.48-1.48ZM89,58.23a1,1,0,1,0,1.48,0A.93.93,0,0,0,89,58.23ZM86.3,55.74a.93.93,0,0,0,0,1.48,1,1,0,0,0,1.54,0,.93.93,0,0,0,0-1.48A1,1,0,0,0,86.3,55.74Zm2.65,5a.93.93,0,0,0,0,1.48.89.89,0,0,0,1.48,0A1,1,0,0,0,89,60.72ZM86.3,58.23a.93.93,0,0,0,0,1.48,1,1,0,0,0,1.54,0,.93.93,0,0,0,0-1.48A1,1,0,0,0,86.3,58.23Zm21.39,21.55a.8.8,0,0,0-.42.79.76.76,0,0,0,.42.74.91.91,0,0,0,.74,0,.78.78,0,0,0,.37-.74.83.83,0,0,0-.37-.79A.9.9,0,0,0,107.69,79.78Zm-5.24-4.61A.8.8,0,0,0,102,76a.76.76,0,0,0,.42.74.71.71,0,0,0,.74,0,.78.78,0,0,0,.37-.74.83.83,0,0,0-.37-.79A.9.9,0,0,0,102.45,75.17ZM89,63.21a1,1,0,0,0,0,1.54.93.93,0,0,0,1.48,0,1,1,0,0,0,0-1.54A.93.93,0,0,0,89,63.21ZM86.3,60.72a.93.93,0,0,0,0,1.48.94.94,0,0,0,1.54,0,.93.93,0,0,0,0-1.48A1,1,0,0,0,86.3,60.72Zm8.26,9.85a.83.83,0,0,0-.37.79.78.78,0,0,0,.37.74.71.71,0,0,0,.74,0,.76.76,0,0,0,.42-.74.8.8,0,0,0-.42-.79A.91.91,0,0,0,94.56,70.57ZM86.3,63.21a1.09,1.09,0,1,0,1.54,0A1,1,0,0,0,86.3,63.21Zm16.15,16.57a.8.8,0,0,0-.42.79.76.76,0,0,0,.42.74.91.91,0,0,0,.74,0,.78.78,0,0,0,.37-.74.83.83,0,0,0-.37-.79A.9.9,0,0,0,102.45,79.78ZM86.3,65.69a1,1,0,0,0,0,1.54,1,1,0,0,0,1.54,0,1,1,0,0,0,0-1.54A1,1,0,0,0,86.3,65.69Zm8.26,9.48a.83.83,0,0,0-.37.79.78.78,0,0,0,.37.74.71.71,0,0,0,.74,0,.76.76,0,0,0,.42-.74.8.8,0,0,0-.42-.79A.7.7,0,0,0,94.56,75.17Zm-5.24-4.61a.83.83,0,0,0-.37.79.78.78,0,0,0,.37.74.71.71,0,0,0,.74,0,.76.76,0,0,0,.42-.74.8.8,0,0,0-.42-.79A.91.91,0,0,0,89.32,70.57Zm5.24,9.21a.83.83,0,0,0-.37.79.78.78,0,0,0,.37.74.71.71,0,0,0,.74,0,.76.76,0,0,0,.42-.74.8.8,0,0,0-.42-.79A.7.7,0,0,0,94.56,79.78Zm-5.24-4.61A.83.83,0,0,0,89,76a.78.78,0,0,0,.37.74.71.71,0,0,0,.74,0,.76.76,0,0,0,.42-.74.8.8,0,0,0-.42-.79A.9.9,0,0,0,89.32,75.17Zm0,4.61a.83.83,0,0,0-.37.79.78.78,0,0,0,.37.74.91.91,0,0,0,.74,0,.76.76,0,0,0,.42-.74.8.8,0,0,0-.42-.79A.9.9,0,0,0,89.32,79.78Z"/><path class="cls-3" d="M63.71,19.89a1.07,1.07,0,0,0,1.54,1.48.93.93,0,0,0,0-1.48,1,1,0,0,0-1.54,0m-2.6-2.49a.93.93,0,0,0,0,1.48.89.89,0,0,0,1.48,0,.93.93,0,0,0,0-1.48A.93.93,0,0,0,61.11,17.4Zm2.6,5a1.07,1.07,0,0,0,1.54,1.48.93.93,0,0,0,0-1.48A1,1,0,0,0,63.71,22.38Zm-2.6-2.49a1,1,0,1,0,1.48,0A.93.93,0,0,0,61.11,19.89ZM58.46,17.4a1,1,0,0,0,0,1.48.94.94,0,0,0,1.54,0,1,1,0,0,0,0-1.48A1,1,0,0,0,58.46,17.4Zm5.24,7.47a1,1,0,0,0,0,1.48.94.94,0,0,0,1.54,0,.93.93,0,0,0,0-1.48A1,1,0,0,0,63.71,24.87Zm-2.6-2.49a1,1,0,1,0,1.48,0A.93.93,0,0,0,61.11,22.38Zm-5.24-5a.93.93,0,0,0,0,1.48.89.89,0,0,0,1.48,0,.93.93,0,0,0,0-1.48A.93.93,0,0,0,55.87,17.4Zm7.84,10a1,1,0,0,0,0,1.54,1.09,1.09,0,1,0,1.54-1.54A1,1,0,0,0,63.71,27.36Zm-5.24-5a.93.93,0,0,0,0,1.48,1,1,0,0,0,1.54,0,.93.93,0,0,0,0-1.48A1,1,0,0,0,58.46,22.38Zm5.24,7.47a1,1,0,0,0,0,1.54,1.09,1.09,0,1,0,1.54-1.54A1,1,0,0,0,63.71,29.85Zm-5.24-5a.93.93,0,0,0,0,1.48.94.94,0,0,0,1.54,0,.93.93,0,0,0,0-1.48A1,1,0,0,0,58.46,24.87Zm-2.6-2.49a1,1,0,1,0,1.48,0A.93.93,0,0,0,55.87,22.38Zm-2.65-2.49a1,1,0,1,0,1.48,1.48.89.89,0,0,0,0-1.48A.93.93,0,0,0,53.22,19.89ZM50.63,17.4a.93.93,0,0,0,0,1.48.89.89,0,0,0,1.48,0,.93.93,0,0,0,0-1.48A.93.93,0,0,0,50.63,17.4ZM63.71,32.34a1,1,0,0,0,0,1.54,1.09,1.09,0,1,0,0-1.54Zm-5.24-5a1.09,1.09,0,1,0,1.54,0A1,1,0,0,0,58.46,27.36Zm-2.6-2.49a.93.93,0,0,0,0,1.48.89.89,0,0,0,1.48,0,1,1,0,1,0-1.48-1.48Zm-5.24-5a1,1,0,1,0,1.48,0A.93.93,0,0,0,50.63,19.89ZM48,17.4a.93.93,0,0,0,0,1.48.89.89,0,0,0,1.48,0,.93.93,0,0,0,0-1.48A.93.93,0,0,0,48,17.4ZM63.71,34.82a1,1,0,0,0,0,1.54,1.09,1.09,0,1,0,0-1.54Zm-2.6-2.49a1,1,0,0,0,0,1.54.93.93,0,0,0,1.48,0,1,1,0,0,0,0-1.54A.93.93,0,0,0,61.11,32.34Zm-2.65-2.49a1,1,0,0,0,0,1.54,1,1,0,0,0,1.54,0,1,1,0,0,0,0-1.54A1,1,0,0,0,58.46,29.85Zm-2.6-2.49a1,1,0,0,0,0,1.54.93.93,0,0,0,1.48,0,1,1,0,0,0,0-1.54A.93.93,0,0,0,55.87,27.36Zm-2.65-2.49a.93.93,0,0,0,0,1.48,1,1,0,0,0,1.48-1.48A.93.93,0,0,0,53.22,24.87Zm-2.59-2.49a1,1,0,1,0,1.48,0A.93.93,0,0,0,50.63,22.38ZM48,19.89a1,1,0,1,0,1.48,0A.93.93,0,0,0,48,19.89ZM45.39,17.4a.93.93,0,0,0,0,1.48.89.89,0,0,0,1.48,0,1,1,0,0,0,0-1.48A.93.93,0,0,0,45.39,17.4ZM61.11,34.82a1,1,0,0,0,0,1.54.93.93,0,0,0,1.48,0,1,1,0,0,0,0-1.54A.93.93,0,0,0,61.11,34.82Zm-2.65-2.49a1,1,0,0,0,0,1.54,1,1,0,0,0,1.54,0,1,1,0,0,0,0-1.54A1,1,0,0,0,58.46,32.34Zm-2.6-2.49a1,1,0,0,0,0,1.54.93.93,0,0,0,1.48,0,1,1,0,0,0,0-1.54A.93.93,0,0,0,55.87,29.85Zm-2.65-2.49a1,1,0,0,0,0,1.54.93.93,0,0,0,1.48,0,.94.94,0,0,0,0-1.54A.93.93,0,0,0,53.22,27.36Zm-5.24-5a1,1,0,1,0,1.48,0A.93.93,0,0,0,48,22.38Zm-2.59-2.49a.89.89,0,0,0,0,1.48,1,1,0,0,0,1.48-1.48A.93.93,0,0,0,45.39,19.89ZM42.74,17.4a.93.93,0,0,0,0,1.48.89.89,0,0,0,1.48,0,.93.93,0,0,0,0-1.48A.93.93,0,0,0,42.74,17.4Zm18.37,20a1,1,0,1,0,1.48,0A.89.89,0,0,0,61.11,37.37Zm-2.65-2.54a1.09,1.09,0,1,0,1.54,0A1,1,0,0,0,58.46,34.82Zm-2.6-2.49a1,1,0,0,0,0,1.54.93.93,0,0,0,1.48,0,1,1,0,0,0,0-1.54A.93.93,0,0,0,55.87,32.34Zm-2.65-2.49a1,1,0,0,0,0,1.54.93.93,0,0,0,1.48,0,1,1,0,0,0,0-1.54A.93.93,0,0,0,53.22,29.85Zm-2.59-2.49a1,1,0,0,0,0,1.54.93.93,0,0,0,1.48,0,1,1,0,0,0,0-1.54A.93.93,0,0,0,50.63,27.36Zm-5.24-5a.89.89,0,0,0,0,1.48,1,1,0,1,0,1.48-1.48A.93.93,0,0,0,45.39,22.38Zm-2.65-2.49a1,1,0,1,0,1.48,0A.93.93,0,0,0,42.74,19.89ZM40.09,17.4a1,1,0,0,0,0,1.48.94.94,0,0,0,1.54,0,1,1,0,0,0,0-1.48A1,1,0,0,0,40.09,17.4Zm21,22.45a1,1,0,1,0,1.48,0A.93.93,0,0,0,61.11,39.85Zm-5.24-5a1,1,0,0,0,0,1.54.93.93,0,0,0,1.48,0,1,1,0,0,0,0-1.54A.93.93,0,0,0,55.87,34.82Zm-2.65-2.49a1,1,0,0,0,0,1.54.93.93,0,0,0,1.48,0,1,1,0,0,0,0-1.54A.93.93,0,0,0,53.22,32.34Zm-2.59-2.49a1,1,0,0,0,0,1.54.93.93,0,0,0,1.48,0,1,1,0,0,0,0-1.54A.93.93,0,0,0,50.63,29.85ZM48,27.36a1,1,0,0,0,0,1.54.93.93,0,0,0,1.48,0,1,1,0,0,0,0-1.54A.93.93,0,0,0,48,27.36Zm-2.59-2.49a1,1,0,0,0,1.48,1.48,1,1,0,1,0-1.48-1.48Zm-2.65-2.49a1,1,0,1,0,1.48,0A.93.93,0,0,0,42.74,22.38Zm-2.65-2.49a.93.93,0,0,0,0,1.48,1,1,0,0,0,1.54,0,.93.93,0,0,0,0-1.48A1,1,0,0,0,40.09,19.89ZM37.5,17.4a.93.93,0,0,0,0,1.48.89.89,0,0,0,1.48,0,.93.93,0,0,0,0-1.48A.93.93,0,0,0,37.5,17.4ZM61.11,42.34a1,1,0,1,0,1.48,0A.93.93,0,0,0,61.11,42.34Zm-5.24-5a1,1,0,1,0,1.48,0A.89.89,0,0,0,55.87,37.37Zm-2.65-2.54a1,1,0,0,0,0,1.54.93.93,0,0,0,1.48,0,.94.94,0,0,0,0-1.54A.93.93,0,0,0,53.22,34.82Zm-5.24-5a1,1,0,0,0,0,1.54.93.93,0,0,0,1.48,0,1,1,0,0,0,0-1.54A.93.93,0,0,0,48,29.85Zm-5.24-5a.93.93,0,0,0,0,1.48.89.89,0,0,0,1.48,0,1,1,0,1,0-1.48-1.48Zm-2.65-2.49a.93.93,0,0,0,0,1.48,1,1,0,0,0,1.54,0,.93.93,0,0,0,0-1.48A1,1,0,0,0,40.09,22.38Zm-2.6-2.49a1,1,0,1,0,1.48,0A.93.93,0,0,0,37.5,19.89Zm18.37,20a1,1,0,1,0,1.48,0A.93.93,0,0,0,55.87,39.85Zm-2.65-2.49a1,1,0,1,0,1.48,1.48,1,1,0,0,0-1.48-1.48Zm-5.24-5a1,1,0,0,0,0,1.54.93.93,0,0,0,1.48,0,1,1,0,0,0,0-1.54A.93.93,0,0,0,48,32.34Zm-2.59-2.49a1,1,0,0,0,0,1.54.93.93,0,0,0,1.48,0,1,1,0,0,0,0-1.54A.93.93,0,0,0,45.39,29.85ZM37.5,22.38a1,1,0,1,0,1.48,0A.93.93,0,0,0,37.5,22.38Zm-2.65-2.49a.93.93,0,0,0,0,1.48,1.07,1.07,0,1,0,1.54-1.48A1,1,0,0,0,34.85,19.89Zm-2.6-2.49a.93.93,0,0,0,0,1.48.93.93,0,0,0,1.48,0,.93.93,0,0,0,0-1.48A.93.93,0,0,0,32.25,17.4ZM58.46,44.83a1,1,0,0,0,0,1.48,1,1,0,0,0,1.54,0,1,1,0,0,0,0-1.48A.94.94,0,0,0,58.46,44.83Zm-2.6-2.49a1,1,0,1,0,1.48,0A.93.93,0,0,0,55.87,42.34Zm-2.65-2.49a1,1,0,1,0,1.48,1.48.89.89,0,0,0,0-1.48A.93.93,0,0,0,53.22,39.85Zm-5.24-5a1,1,0,0,0,0,1.54.93.93,0,0,0,1.48,0,1,1,0,0,0,0-1.54A.93.93,0,0,0,48,34.82Zm-2.59-2.49a1,1,0,0,0,0,1.54.93.93,0,0,0,1.48,0,1,1,0,0,0,0-1.54A.93.93,0,0,0,45.39,32.34Zm-2.65-2.49a1,1,0,0,0,0,1.54.93.93,0,0,0,1.48,0,1,1,0,0,0,0-1.54A.93.93,0,0,0,42.74,29.85Zm-2.65-2.49a1.09,1.09,0,1,0,1.54,0A1,1,0,0,0,40.09,27.36Zm-10.48-10a.93.93,0,0,0,0,1.48.93.93,0,0,0,1.48,0,.89.89,0,0,0,0-1.48A.93.93,0,0,0,29.61,17.4ZM58.46,47.32a1,1,0,0,0,0,1.48.94.94,0,0,0,1.54,0,1,1,0,0,0,0-1.48A.94.94,0,0,0,58.46,47.32Zm-2.6-2.49a1,1,0,1,0,1.48,0A.89.89,0,0,0,55.87,44.83Zm-2.65-2.49a1,1,0,0,0,1.48,1.48.89.89,0,0,0,0-1.48A.93.93,0,0,0,53.22,42.34Zm-5.24-5a1,1,0,1,0,1.48,0A.89.89,0,0,0,48,37.37Zm-2.59-2.54a.94.94,0,0,0,0,1.54.93.93,0,0,0,1.48,0,1,1,0,0,0,0-1.54A.93.93,0,0,0,45.39,34.82Zm-2.65-2.49a1,1,0,0,0,0,1.54.93.93,0,0,0,1.48,0,1,1,0,0,0,0-1.54A.93.93,0,0,0,42.74,32.34Zm-2.65-2.49a1,1,0,0,0,0,1.54,1,1,0,0,0,1.54,0,1,1,0,0,0,0-1.54A1,1,0,0,0,40.09,29.85Zm-2.6-2.49a1,1,0,0,0,0,1.54.93.93,0,0,0,1.48,0,1,1,0,0,0,0-1.54A.93.93,0,0,0,37.5,27.36Zm-2.65-2.49a.93.93,0,0,0,0,1.48.94.94,0,0,0,1.54,0,1,1,0,0,0,0-1.48A1,1,0,0,0,34.85,24.87Zm-2.6-2.49a.89.89,0,0,0,0,1.48.93.93,0,0,0,1.48,0,.89.89,0,0,0,0-1.48A.93.93,0,0,0,32.25,22.38Zm-4.5-5.29a1,1,0,0,0-.74.32.93.93,0,0,0,0,1.48.91.91,0,0,0,.74.32,1,1,0,0,0,.74-.32.93.93,0,0,0,0-1.48A1,1,0,0,0,27.75,17.09ZM58.46,49.81a.93.93,0,0,0,0,1.48,1,1,0,0,0,1.54,0,.93.93,0,0,0,0-1.48A1,1,0,0,0,58.46,49.81Zm-2.6-2.49a.93.93,0,0,0,0,1.48.89.89,0,0,0,1.48,0,.93.93,0,0,0,0-1.48A.89.89,0,0,0,55.87,47.32Zm-2.65-2.49a1,1,0,0,0,0,1.48,1,1,0,0,0,1.48-1.48A.89.89,0,0,0,53.22,44.83Zm-5.24-5a1,1,0,1,0,1.48,0A.93.93,0,0,0,48,39.85Zm-2.59-2.49a.89.89,0,0,0,0,1.48,1,1,0,0,0,1.48-1.48A.89.89,0,0,0,45.39,37.37Zm-2.65-2.54a1,1,0,0,0,0,1.54.93.93,0,0,0,1.48,0,1,1,0,0,0,0-1.54A.93.93,0,0,0,42.74,34.82Zm-2.65-2.49a1,1,0,0,0,0,1.54,1,1,0,0,0,1.54,0,1,1,0,0,0,0-1.54A1,1,0,0,0,40.09,32.34Zm-2.6-2.49a1,1,0,0,0,0,1.54.93.93,0,0,0,1.48,0,1,1,0,0,0,0-1.54A.93.93,0,0,0,37.5,29.85Zm-2.65-2.49a1.09,1.09,0,0,0,1.54,1.54,1,1,0,0,0,0-1.54A1,1,0,0,0,34.85,27.36Zm-2.6-2.49a.89.89,0,0,0,0,1.48.93.93,0,0,0,1.48,0,.89.89,0,0,0,0-1.48A1,1,0,0,0,32.25,24.87Zm-2.65-2.49a1,1,0,0,0,1.48,1.48.89.89,0,0,0,0-1.48A.93.93,0,0,0,29.61,22.38Zm-1.85-2.81a1,1,0,0,0-.74.32.89.89,0,0,0,0,1.48,1,1,0,0,0,1.48,0,.93.93,0,0,0,0-1.48A1,1,0,0,0,27.75,19.57ZM55.87,49.81a1,1,0,1,0,1.48,0A.93.93,0,0,0,55.87,49.81Zm-2.65-2.49a1,1,0,0,0,0,1.48.89.89,0,0,0,1.48,0,.93.93,0,0,0,0-1.48A.89.89,0,0,0,53.22,47.32Zm-2.59-2.49a1,1,0,1,0,1.48,0A.89.89,0,0,0,50.63,44.83ZM48,42.34a1,1,0,1,0,1.48,0A.93.93,0,0,0,48,42.34Zm-5.24-5a1,1,0,1,0,1.48,0A.89.89,0,0,0,42.74,37.37Zm-2.65-2.54a1.09,1.09,0,1,0,1.54,0A1,1,0,0,0,40.09,34.82Zm-5.24-5a1.09,1.09,0,0,0,1.54,1.54,1,1,0,0,0,0-1.54A1,1,0,0,0,34.85,29.85Zm-2.6-2.49a.94.94,0,0,0,0,1.54,1,1,0,0,0,1.48,0,.94.94,0,0,0,0-1.54A1,1,0,0,0,32.25,27.36Zm-2.65-2.49a1,1,0,0,0,1.48,1.48.89.89,0,0,0,0-1.48A1,1,0,0,0,29.61,24.87Zm-1.85-2.81a1,1,0,0,0-.74.32.89.89,0,0,0,0,1.48,1,1,0,0,0,1.48,0,.93.93,0,0,0,0-1.48A1,1,0,0,0,27.75,22.06Zm-3.39-2.17a1,1,0,0,0,1.48,1.48.89.89,0,0,0,0-1.48A.93.93,0,0,0,24.36,19.89ZM55.87,52.3a1,1,0,1,0,1.48,0A.93.93,0,0,0,55.87,52.3Zm-2.65-2.49a1,1,0,1,0,1.48,1.48.89.89,0,0,0,0-1.48A.93.93,0,0,0,53.22,49.81Zm-2.59-2.49a.93.93,0,0,0,0,1.48.89.89,0,0,0,1.48,0,.93.93,0,0,0,0-1.48A.89.89,0,0,0,50.63,47.32Zm-5.24-5a.89.89,0,0,0,0,1.48,1,1,0,1,0,0-1.48Zm-5.29-5a.93.93,0,0,0,0,1.48,1,1,0,0,0,1.54,0,.93.93,0,0,0,0-1.48A.94.94,0,0,0,40.09,37.37Zm-5.24-5a1.09,1.09,0,0,0,1.54,1.54,1,1,0,0,0,0-1.54A1,1,0,0,0,34.85,32.34Zm-2.6-2.49a1,1,0,0,0,0,1.54.93.93,0,0,0,1.48,0,1,1,0,0,0,0-1.54A.93.93,0,0,0,32.25,29.85Zm-2.65-2.49a1.07,1.07,0,0,0,1.48,1.54.94.94,0,0,0,0-1.54A1,1,0,0,0,29.61,27.36Zm-5.24-5a1,1,0,0,0,1.48,1.48.89.89,0,0,0,0-1.48A.93.93,0,0,0,24.36,22.38ZM55.87,54.79a1,1,0,1,0,1.48,0A.93.93,0,0,0,55.87,54.79ZM53.22,52.3a1,1,0,0,0,1.48,1.48.89.89,0,0,0,0-1.48A.93.93,0,0,0,53.22,52.3Zm-2.59-2.49a1,1,0,1,0,1.48,0A.93.93,0,0,0,50.63,49.81ZM48,47.32a.93.93,0,0,0,0,1.48.89.89,0,0,0,1.48,0,.93.93,0,0,0,0-1.48A.89.89,0,0,0,48,47.32Zm-2.59-2.49a1,1,0,1,0,1.48,1.48,1,1,0,0,0,0-1.48A.89.89,0,0,0,45.39,44.83Zm-2.65-2.49a1,1,0,1,0,1.48,0A.93.93,0,0,0,42.74,42.34Zm-2.65-2.49a.93.93,0,0,0,0,1.48,1,1,0,0,0,1.54,0,.93.93,0,0,0,0-1.48A1,1,0,0,0,40.09,39.85Zm-5.24-5a1.09,1.09,0,0,0,1.54,1.54,1,1,0,0,0,0-1.54A1,1,0,0,0,34.85,34.82Zm-2.6-2.49a1,1,0,0,0,0,1.54.93.93,0,0,0,1.48,0,1,1,0,0,0,0-1.54A.93.93,0,0,0,32.25,32.34Zm-2.65-2.49a1,1,0,0,0,0,1.54.93.93,0,0,0,1.48,0,.94.94,0,0,0,0-1.54A.93.93,0,0,0,29.61,29.85Zm-5.24-5a1,1,0,0,0,1.48,1.48.89.89,0,0,0,0-1.48A1,1,0,0,0,24.36,24.87ZM55.87,57.28a.93.93,0,0,0,0,1.48.89.89,0,0,0,1.48,0,1,1,0,1,0-1.48-1.48Zm-2.65-2.49a1,1,0,1,0,1.48,1.48.89.89,0,0,0,0-1.48A.93.93,0,0,0,53.22,54.79ZM50.63,52.3a1,1,0,1,0,1.48,0A.93.93,0,0,0,50.63,52.3Zm-7.89-7.47a1,1,0,1,0,1.48,0A.89.89,0,0,0,42.74,44.83Zm-2.65-2.49a.93.93,0,0,0,0,1.48,1,1,0,0,0,1.54,0,.93.93,0,0,0,0-1.48A1,1,0,0,0,40.09,42.34Zm-5.24-5a.93.93,0,0,0,0,1.48,1,1,0,0,0,1.54,0,1,1,0,0,0,0-1.48A.94.94,0,0,0,34.85,37.37Zm-2.6-2.54a.94.94,0,0,0,0,1.54,1,1,0,0,0,1.48,0,.94.94,0,0,0,0-1.54A1,1,0,0,0,32.25,34.82Zm-2.65-2.49a1,1,0,0,0,0,1.54.93.93,0,0,0,1.48,0,.94.94,0,0,0,0-1.54A.93.93,0,0,0,29.61,32.34Zm-5.24-5a1,1,0,0,0,0,1.54,1,1,0,0,0,1.48,0,.94.94,0,0,0,0-1.54A1,1,0,0,0,24.36,27.36ZM53.22,57.28a.93.93,0,0,0,0,1.48,1,1,0,0,0,1.48-1.48A.93.93,0,0,0,53.22,57.28Zm-2.59-2.49a1,1,0,1,0,1.48,0A.93.93,0,0,0,50.63,54.79Zm-5.24-5a.89.89,0,0,0,0,1.48,1,1,0,1,0,0-1.48Zm-10.54-10a.93.93,0,0,0,0,1.48,1,1,0,0,0,1.54,0,1.07,1.07,0,1,0-1.54-1.48Zm-2.6-2.49a.89.89,0,0,0,0,1.48,1,1,0,0,0,1.48,0,.89.89,0,0,0,0-1.48A.93.93,0,0,0,32.25,37.37Zm-2.65-2.54a1.07,1.07,0,0,0,1.48,1.54.94.94,0,0,0,0-1.54A1,1,0,0,0,29.61,34.82Zm-1.85-2.75a1.12,1.12,0,0,0-.74.26,1,1,0,0,0,0,1.54,1,1,0,0,0,1.48,0,1,1,0,0,0,0-1.54A1.12,1.12,0,0,0,27.75,32.07Zm-3.39-2.22a1,1,0,0,0,0,1.54.93.93,0,0,0,1.48,0,1,1,0,0,0,0-1.54A.93.93,0,0,0,24.36,29.85ZM53.22,59.76a.93.93,0,0,0,0,1.48,1,1,0,1,0,1.48-1.48A.93.93,0,0,0,53.22,59.76Zm-5.24-5a1,1,0,1,0,1.48,0A.93.93,0,0,0,48,54.79ZM45.39,52.3a.89.89,0,0,0,0,1.48,1,1,0,1,0,0-1.48Zm-2.65-2.49a1,1,0,1,0,1.48,0A.93.93,0,0,0,42.74,49.81Zm-2.65-2.49a1,1,0,0,0,0,1.48.94.94,0,0,0,1.54,0,1,1,0,0,0,0-1.48A.94.94,0,0,0,40.09,47.32Zm-2.6-2.49a1,1,0,1,0,1.48,0A.89.89,0,0,0,37.5,44.83Zm-2.65-2.49a.93.93,0,0,0,0,1.48,1,1,0,0,0,1.54,0,1,1,0,0,0,0-1.48A1,1,0,0,0,34.85,42.34Zm-2.6-2.49a.89.89,0,0,0,0,1.48.93.93,0,0,0,1.48,0,.89.89,0,0,0,0-1.48A.93.93,0,0,0,32.25,39.85Zm-4.5-5.29a1.12,1.12,0,0,0-.74.27.94.94,0,0,0,0,1.54,1.17,1.17,0,0,0,1.48,0,1,1,0,0,0,0-1.54A1.12,1.12,0,0,0,27.75,34.56Zm-3.39-2.22a1,1,0,0,0,0,1.54.93.93,0,0,0,1.48,0,1,1,0,0,0,0-1.54A.93.93,0,0,0,24.36,32.34ZM53.22,62.25a1,1,0,0,0,0,1.54.93.93,0,0,0,1.48,0,1,1,0,0,0,0-1.54A.93.93,0,0,0,53.22,62.25Zm-2.59-2.49a.93.93,0,0,0,0,1.48.89.89,0,0,0,1.48,0,1,1,0,0,0-1.48-1.48ZM48,57.28a.93.93,0,0,0,0,1.48.89.89,0,0,0,1.48,0A1,1,0,1,0,48,57.28Zm-5.24-5a1,1,0,1,0,1.48,0A.93.93,0,0,0,42.74,52.3Zm-5.24-5a.93.93,0,0,0,0,1.48.89.89,0,0,0,1.48,0,.93.93,0,0,0,0-1.48A.89.89,0,0,0,37.5,47.32Zm-2.65-2.49a.93.93,0,0,0,0,1.48,1,1,0,0,0,1.54,0,1,1,0,0,0,0-1.48A.94.94,0,0,0,34.85,44.83Zm-2.6-2.49a.89.89,0,0,0,0,1.48.93.93,0,0,0,1.48,0,.89.89,0,0,0,0-1.48A.93.93,0,0,0,32.25,42.34ZM27.75,37a1,1,0,0,0-.74.32.89.89,0,0,0,0,1.48,1,1,0,0,0,1.48,0,.93.93,0,0,0,0-1.48A1,1,0,0,0,27.75,37Zm-3.39-2.22a1,1,0,0,0,0,1.54,1,1,0,0,0,1.48,0,.94.94,0,0,0,0-1.54A1,1,0,0,0,24.36,34.82ZM53.22,64.74a1,1,0,0,0,0,1.54.93.93,0,0,0,1.48,0,1,1,0,0,0,0-1.54A.93.93,0,0,0,53.22,64.74Zm-2.59-2.49a1,1,0,0,0,0,1.54.93.93,0,0,0,1.48,0,1,1,0,0,0,0-1.54A.93.93,0,0,0,50.63,62.25ZM48,59.76a.93.93,0,0,0,0,1.48.89.89,0,0,0,1.48,0A1,1,0,0,0,48,59.76Zm-2.59-2.49a1,1,0,0,0,1.48,1.48,1,1,0,1,0-1.48-1.48ZM37.5,49.81a1,1,0,1,0,1.48,0A.93.93,0,0,0,37.5,49.81Zm-2.65-2.49a.93.93,0,0,0,0,1.48.94.94,0,0,0,1.54,0,1,1,0,0,0,0-1.48A.94.94,0,0,0,34.85,47.32Zm-2.6-2.49a1,1,0,1,0,1.48,1.48,1,1,0,0,0-1.48-1.48Zm-4.5-5.3a1,1,0,0,0-.74.32.89.89,0,0,0,0,1.48,1,1,0,0,0,1.48,0,.93.93,0,0,0,0-1.48A1,1,0,0,0,27.75,39.54Zm15,17.74a.93.93,0,0,0,0,1.48.89.89,0,0,0,1.48,0,1,1,0,1,0-1.48-1.48Zm-2.65-2.49a.93.93,0,0,0,0,1.48,1,1,0,0,0,1.54,0,.93.93,0,0,0,0-1.48A1,1,0,0,0,40.09,54.79ZM37.5,52.3a1,1,0,1,0,1.48,0A.93.93,0,0,0,37.5,52.3Zm-2.65-2.49a.93.93,0,0,0,0,1.48,1,1,0,0,0,1.54,0,1.07,1.07,0,1,0-1.54-1.48Zm-2.6-2.49a1,1,0,0,0,1.48,1.48,1,1,0,1,0-1.48-1.48Zm-2.65-2.49a1,1,0,1,0,1.48,1.48.89.89,0,0,0,0-1.48A.93.93,0,0,0,29.61,44.83ZM27.75,42a1,1,0,0,0-.74.32.89.89,0,0,0,0,1.48,1,1,0,0,0,1.48,0,.93.93,0,0,0,0-1.48A1,1,0,0,0,27.75,42ZM40.09,57.28a.93.93,0,0,0,0,1.48.94.94,0,0,0,1.54,0,.93.93,0,0,0,0-1.48A1,1,0,0,0,40.09,57.28Zm-2.6-2.49a1,1,0,1,0,1.48,0A.93.93,0,0,0,37.5,54.79ZM34.85,52.3a.93.93,0,0,0,0,1.48,1,1,0,0,0,1.54,0,1.07,1.07,0,1,0-1.54-1.48Zm-2.6-2.49a.89.89,0,0,0,0,1.48.93.93,0,0,0,1.48,0,.89.89,0,0,0,0-1.48A.93.93,0,0,0,32.25,49.81Zm21.34,21a.93.93,0,0,0,0,1.48.8.8,0,0,0,.79,0,.93.93,0,0,0,0-1.48A.79.79,0,0,0,53.59,70.83Zm-24-23.51a1,1,0,0,0,1.48,1.48.89.89,0,0,0,0-1.48A.93.93,0,0,0,29.61,47.32ZM40.09,59.76a.93.93,0,0,0,0,1.48.94.94,0,0,0,1.54,0,.93.93,0,0,0,0-1.48A1,1,0,0,0,40.09,59.76Zm-5.24-5a.93.93,0,0,0,0,1.48,1,1,0,0,0,1.54,0,1,1,0,0,0,0-1.48A1,1,0,0,0,34.85,54.79Zm-2.6-2.49a.89.89,0,0,0,0,1.48.93.93,0,0,0,1.48,0,.89.89,0,0,0,0-1.48A.93.93,0,0,0,32.25,52.3Zm-2.65-2.49a1,1,0,0,0,1.48,1.48.89.89,0,0,0,0-1.48A.93.93,0,0,0,29.61,49.81ZM51,70.83a.7.7,0,0,0-.42.74.76.76,0,0,0,.42.74.71.71,0,0,0,.74,0,.93.93,0,0,0,0-1.48A.7.7,0,0,0,51,70.83Zm2.59,4.5a.93.93,0,0,0,0,1.48.8.8,0,0,0,.79,0,.93.93,0,0,0,0-1.48A.79.79,0,0,0,53.59,75.33ZM37.5,59.76a.93.93,0,0,0,0,1.48.89.89,0,0,0,1.48,0,1,1,0,0,0-1.48-1.48Zm-2.65-2.49a.93.93,0,0,0,0,1.48.94.94,0,0,0,1.54,0,1.07,1.07,0,1,0-1.54-1.48Zm-2.6-2.49a.89.89,0,0,0,0,1.48.93.93,0,0,0,1.48,0,.89.89,0,0,0,0-1.48A.93.93,0,0,0,32.25,54.79ZM51,75.33a.86.86,0,0,0,0,1.48.7.7,0,0,0,.74,0,.93.93,0,0,0,0-1.48A.7.7,0,0,0,51,75.33ZM37.5,62.25a1,1,0,0,0,0,1.54.93.93,0,0,0,1.48,0,1,1,0,0,0,0-1.54A.93.93,0,0,0,37.5,62.25Zm-2.65-2.49a.93.93,0,0,0,0,1.48.94.94,0,0,0,1.54,0,1.07,1.07,0,0,0-1.54-1.48Zm-2.6-2.49a.89.89,0,0,0,0,1.48.93.93,0,0,0,1.48,0,.89.89,0,0,0,0-1.48A1,1,0,0,0,32.25,57.28ZM53.59,79.83c-.25.11-.37.35-.37.74a.78.78,0,0,0,.37.74.8.8,0,0,0,.79,0,.93.93,0,0,0,0-1.48A.79.79,0,0,0,53.59,79.83ZM34.85,62.25a1.09,1.09,0,0,0,1.54,1.54,1,1,0,0,0,0-1.54A1,1,0,0,0,34.85,62.25ZM51,79.83a.7.7,0,0,0-.42.74.76.76,0,0,0,.42.74.7.7,0,0,0,.74,0,.93.93,0,0,0,0-1.48A.7.7,0,0,0,51,79.83ZM34.85,64.74a1.09,1.09,0,0,0,1.54,1.54,1,1,0,0,0,0-1.54A1,1,0,0,0,34.85,64.74Zm3,6.09a.93.93,0,0,0,0,1.48.7.7,0,0,0,.74,0,.86.86,0,0,0,0-1.48A.7.7,0,0,0,37.87,70.83Zm-2.65,0a.93.93,0,0,0,0,1.48.8.8,0,0,0,.79,0,.93.93,0,0,0,0-1.48A.79.79,0,0,0,35.22,70.83Zm2.65,4.5a.93.93,0,0,0,0,1.48.7.7,0,0,0,.74,0,.86.86,0,0,0,0-1.48A.7.7,0,0,0,37.87,75.33Zm-2.65,0a.93.93,0,0,0,0,1.48.8.8,0,0,0,.79,0,.93.93,0,0,0,0-1.48A.79.79,0,0,0,35.22,75.33Zm2.65,4.5a.93.93,0,0,0,0,1.48.7.7,0,0,0,.74,0,.76.76,0,0,0,.42-.74.8.8,0,0,0-1.16-.74Zm-2.65,0a.93.93,0,0,0,0,1.48.8.8,0,0,0,.79,0,.78.78,0,0,0,.37-.74c0-.39-.12-.64-.37-.74A.79.79,0,0,0,35.22,79.83Z"/><path class="cls-3" d="M173.17,31.54a1,1,0,0,0,0,1.48.94.94,0,0,0,1.54,0,.93.93,0,0,0,0-1.48,1,1,0,0,0-1.54,0m0,2.49a1.07,1.07,0,0,0,1.54,1.48.93.93,0,0,0,0-1.48A1,1,0,0,0,173.17,34Zm0,2.49A1.07,1.07,0,0,0,174.7,38a.93.93,0,0,0,0-1.48A1,1,0,0,0,173.17,36.52ZM170.57,34a1,1,0,1,0,1.48,0A.93.93,0,0,0,170.57,34Zm2.59,5a1,1,0,0,0,0,1.48.94.94,0,0,0,1.54,0,.93.93,0,0,0,0-1.48A1,1,0,0,0,173.17,39Zm-2.59-2.49a1,1,0,1,0,1.48,0A.93.93,0,0,0,170.57,36.52Zm0,2.49a.93.93,0,0,0,0,1.48.89.89,0,0,0,1.48,0A1,1,0,1,0,170.57,39Zm-2.65-2.49a.93.93,0,0,0,0,1.48,1,1,0,0,0,1.54,0,.93.93,0,0,0,0-1.48A1,1,0,0,0,167.93,36.52Zm2.65,5a1,1,0,0,0,0,1.54.93.93,0,0,0,1.48,0,1,1,0,0,0,0-1.54A.93.93,0,0,0,170.57,41.5ZM167.93,39a.93.93,0,0,0,0,1.48.94.94,0,0,0,1.54,0,.93.93,0,0,0,0-1.48A1,1,0,0,0,167.93,39Zm-2.6-2.49a1,1,0,1,0,1.48,0A.93.93,0,0,0,165.33,36.52ZM162.68,34a1,1,0,0,0,1.48,1.48.89.89,0,0,0,0-1.48A.93.93,0,0,0,162.68,34Zm-2.6-2.49a.93.93,0,0,0,0,1.48.89.89,0,0,0,1.48,0,1,1,0,1,0-1.48-1.48Zm7.84,10a1.09,1.09,0,1,0,1.54,0A1,1,0,0,0,167.93,41.5ZM165.33,39a.93.93,0,0,0,0,1.48.89.89,0,0,0,1.48,0A1,1,0,0,0,165.33,39Zm-2.65-2.49A1,1,0,0,0,164.17,38a.89.89,0,0,0,0-1.48A.93.93,0,0,0,162.68,36.52ZM160.09,34a1,1,0,1,0,1.48,0A.93.93,0,0,0,160.09,34Zm7.84,10a1,1,0,0,0,0,1.54,1,1,0,0,0,1.54,0,1,1,0,0,0,0-1.54A1,1,0,0,0,167.93,44Zm-5.24-5a.93.93,0,0,0,0,1.48A1,1,0,1,0,164.17,39,.93.93,0,0,0,162.68,39Zm-2.6-2.49a1,1,0,1,0,1.48,0A.93.93,0,0,0,160.09,36.52ZM157.44,34a1,1,0,1,0,1.48,0A.93.93,0,0,0,157.44,34Zm7.89,10a1,1,0,0,0,0,1.54.93.93,0,0,0,1.48,0,1,1,0,0,0,0-1.54A.93.93,0,0,0,165.33,44Zm-2.65-2.49a1,1,0,0,0,0,1.54.93.93,0,0,0,1.48,0,.94.94,0,0,0,0-1.54A.93.93,0,0,0,162.68,41.5ZM160.09,39a.93.93,0,0,0,0,1.48.89.89,0,0,0,1.48,0A1,1,0,0,0,160.09,39Zm-2.65-2.49a1,1,0,1,0,1.48,0A.93.93,0,0,0,157.44,36.52Zm7.89,10a1,1,0,0,0,0,1.54.93.93,0,0,0,1.48,0,1,1,0,0,0,0-1.54A.93.93,0,0,0,165.33,46.47ZM162.68,44a1,1,0,0,0,0,1.54.93.93,0,0,0,1.48,0,1,1,0,0,0,0-1.54A.93.93,0,0,0,162.68,44Zm-2.6-2.49a1,1,0,0,0,0,1.54.93.93,0,0,0,1.48,0,1,1,0,0,0,0-1.54A.93.93,0,0,0,160.09,41.5ZM157.44,39a.93.93,0,0,0,0,1.48.89.89,0,0,0,1.48,0A1,1,0,1,0,157.44,39Zm-2.59-2.49a.89.89,0,0,0,0,1.48,1,1,0,1,0,0-1.48ZM165.33,49a1,1,0,1,0,1.48,0A.89.89,0,0,0,165.33,49Zm-5.24-5a1,1,0,0,0,0,1.54.93.93,0,0,0,1.48,0,1,1,0,0,0,0-1.54A.93.93,0,0,0,160.09,44Zm-2.65-2.49a1,1,0,0,0,0,1.54.93.93,0,0,0,1.48,0,1,1,0,0,0,0-1.54A.93.93,0,0,0,157.44,41.5ZM154.85,39a1,1,0,0,0,1.48,1.48A1,1,0,1,0,154.85,39Zm5.24,7.47a1,1,0,0,0,0,1.54.93.93,0,0,0,1.48,0,1,1,0,0,0,0-1.54A.93.93,0,0,0,160.09,46.47ZM157.44,44a1,1,0,0,0,0,1.54.93.93,0,0,0,1.48,0,1,1,0,0,0,0-1.54A.93.93,0,0,0,157.44,44Zm-2.59-2.49a.94.94,0,0,0,0,1.54.93.93,0,0,0,1.48,0,1,1,0,0,0,0-1.54A.93.93,0,0,0,154.85,41.5ZM152.2,39a.93.93,0,0,0,0,1.48.89.89,0,0,0,1.48,0A1,1,0,1,0,152.2,39Zm-2.65-2.49a.93.93,0,0,0,0,1.48,1,1,0,0,0,1.54,0,.93.93,0,0,0,0-1.48A1,1,0,0,0,149.55,36.52ZM147,34a1,1,0,1,0,1.48,0A.93.93,0,0,0,147,34Zm-2.65-2.49a.93.93,0,0,0,0,1.48.94.94,0,0,0,1.54,0,1,1,0,0,0,0-1.48A1,1,0,0,0,144.31,31.54ZM160.09,49a1,1,0,1,0,1.48,0A.89.89,0,0,0,160.09,49Zm-2.65-2.54a1,1,0,0,0,0,1.54.93.93,0,0,0,1.48,0,1,1,0,0,0,0-1.54A.93.93,0,0,0,157.44,46.47ZM154.85,44a1,1,0,0,0,0,1.54.93.93,0,0,0,1.48,0,1,1,0,0,0,0-1.54A.93.93,0,0,0,154.85,44ZM152.2,41.5a1,1,0,0,0,0,1.54.93.93,0,0,0,1.48,0,1,1,0,0,0,0-1.54A.93.93,0,0,0,152.2,41.5ZM149.55,39a.93.93,0,0,0,0,1.48.94.94,0,0,0,1.54,0,.93.93,0,0,0,0-1.48A1,1,0,0,0,149.55,39ZM147,36.52a1,1,0,1,0,1.48,0A.93.93,0,0,0,147,36.52ZM144.31,34a.93.93,0,0,0,0,1.48,1.07,1.07,0,1,0,0-1.48Zm13.13,15a1,1,0,1,0,1.48,0A.89.89,0,0,0,157.44,49Zm-2.59-2.54a1,1,0,0,0,0,1.54.93.93,0,0,0,1.48,0,1,1,0,0,0,0-1.54A.93.93,0,0,0,154.85,46.47ZM152.2,44a1,1,0,0,0,0,1.54.93.93,0,0,0,1.48,0,1,1,0,0,0,0-1.54A.93.93,0,0,0,152.2,44Zm-2.65-2.49a1.09,1.09,0,1,0,1.54,0A1,1,0,0,0,149.55,41.5ZM147,39a.93.93,0,0,0,0,1.48.89.89,0,0,0,1.48,0A1,1,0,0,0,147,39Zm-2.65-2.49a.93.93,0,0,0,0,1.48,1,1,0,0,0,1.54,0,1,1,0,0,0,0-1.48A1,1,0,0,0,144.31,36.52ZM141.72,34a.89.89,0,0,0,0,1.48.93.93,0,0,0,1.48,0,.89.89,0,0,0,0-1.48A.93.93,0,0,0,141.72,34ZM157.44,51.5a1,1,0,1,0,1.48,0A.89.89,0,0,0,157.44,51.5ZM154.85,49a.89.89,0,0,0,0,1.48A1,1,0,0,0,156.33,49,.89.89,0,0,0,154.85,49Zm-2.65-2.54a1,1,0,0,0,0,1.54.93.93,0,0,0,1.48,0,1,1,0,0,0,0-1.54A.93.93,0,0,0,152.2,46.47ZM149.55,44a1,1,0,0,0,0,1.54,1,1,0,0,0,1.54,0,1,1,0,0,0,0-1.54A1,1,0,0,0,149.55,44ZM147,41.5A1,1,0,0,0,147,43a.93.93,0,0,0,1.48,0,1,1,0,0,0,0-1.54A.93.93,0,0,0,147,41.5ZM144.31,39a.93.93,0,0,0,0,1.48.94.94,0,0,0,1.54,0,1,1,0,0,0,0-1.48A1,1,0,0,0,144.31,39Zm-2.6-2.49a.89.89,0,0,0,0,1.48.93.93,0,0,0,1.48,0,.89.89,0,0,0,0-1.48A.93.93,0,0,0,141.72,36.52ZM157.44,54a1,1,0,1,0,1.48,0A.93.93,0,0,0,157.44,54Zm-5.24-5a1,1,0,1,0,1.48,0A.89.89,0,0,0,152.2,49Zm-2.65-2.54a1,1,0,0,0,0,1.54,1,1,0,0,0,1.54,0,1,1,0,0,0,0-1.54A1,1,0,0,0,149.55,46.47ZM147,44a1,1,0,0,0,0,1.54.93.93,0,0,0,1.48,0,1,1,0,0,0,0-1.54A.93.93,0,0,0,147,44Zm-2.65-2.49A1.09,1.09,0,1,0,145.85,43a1,1,0,0,0,0-1.54A1,1,0,0,0,144.31,41.5ZM141.72,39a.89.89,0,0,0,0,1.48.93.93,0,0,0,1.48,0,.89.89,0,0,0,0-1.48A1,1,0,0,0,141.72,39Zm-2.65-2.49A1,1,0,0,0,140.55,38a.89.89,0,0,0,0-1.48A.93.93,0,0,0,139.07,36.52ZM165.7,63.79a.76.76,0,0,0-.42.74.8.8,0,0,0,1.16.74q.37-.16.37-.74a.78.78,0,0,0-.37-.74A.7.7,0,0,0,165.7,63.79ZM154.85,54a.89.89,0,0,0,0,1.48,1,1,0,1,0,0-1.48ZM152.2,51.5a1,1,0,1,0,1.48,0A.89.89,0,0,0,152.2,51.5ZM149.55,49a.93.93,0,0,0,0,1.48,1,1,0,0,0,1.54,0,.93.93,0,0,0,0-1.48A.94.94,0,0,0,149.55,49ZM147,46.47A1,1,0,0,0,147,48a.93.93,0,0,0,1.48,0,1,1,0,0,0,0-1.54A.93.93,0,0,0,147,46.47ZM144.31,44a1.09,1.09,0,1,0,1.54,1.54,1,1,0,0,0,0-1.54A1,1,0,0,0,144.31,44Zm-2.6-2.49a.94.94,0,0,0,0,1.54,1,1,0,0,0,1.48,0,.94.94,0,0,0,0-1.54A1,1,0,0,0,141.72,41.5ZM139.07,39a1,1,0,0,0,1.48,1.48.89.89,0,0,0,0-1.48A1,1,0,0,0,139.07,39Zm-1.85-2.81a1,1,0,0,0-.74.32.89.89,0,0,0,0,1.48A1,1,0,0,0,138,38a.93.93,0,0,0,0-1.48A1,1,0,0,0,137.21,36.2ZM133.83,34a1,1,0,1,0,1.48,1.48.89.89,0,0,0,0-1.48A.93.93,0,0,0,133.83,34Zm-2.59-2.49a.89.89,0,0,0,0,1.48,1,1,0,0,0,1.48-1.48A.93.93,0,0,0,131.23,31.54Zm23.62,24.94a.89.89,0,0,0,0,1.48,1,1,0,1,0,0-1.48ZM152.2,54a1,1,0,1,0,1.48,0A.93.93,0,0,0,152.2,54ZM147,49a1,1,0,1,0,1.48,0A.89.89,0,0,0,147,49Zm-2.65-2.54A1.09,1.09,0,1,0,145.85,48a1,1,0,0,0,0-1.54A1,1,0,0,0,144.31,46.47ZM141.72,44a1,1,0,0,0,0,1.54.93.93,0,0,0,1.48,0,1,1,0,0,0,0-1.54A.93.93,0,0,0,141.72,44Zm-4.5-5.29a1,1,0,0,0-.74.32.89.89,0,0,0,0,1.48,1,1,0,0,0,1.48,0A.93.93,0,0,0,138,39,1,1,0,0,0,137.21,38.69Zm-3.39-2.17A1,1,0,1,0,135.31,38a.89.89,0,0,0,0-1.48A.93.93,0,0,0,133.83,36.52ZM131.23,34a.89.89,0,0,0,0,1.48A1,1,0,0,0,132.71,34,.93.93,0,0,0,131.23,34ZM165.7,69.14a.76.76,0,0,0-.42.74.8.8,0,0,0,1.16.74.93.93,0,0,0,0-1.48A.7.7,0,0,0,165.7,69.14ZM152.2,56.48a1,1,0,1,0,1.48,0A.93.93,0,0,0,152.2,56.48ZM149.55,54a.93.93,0,0,0,0,1.48,1,1,0,0,0,1.54,0,.93.93,0,0,0,0-1.48A1,1,0,0,0,149.55,54ZM147,51.5a1,1,0,1,0,1.48,0A.89.89,0,0,0,147,51.5ZM144.31,49a.93.93,0,0,0,0,1.48,1,1,0,0,0,1.54,0,1,1,0,0,0,0-1.48A.94.94,0,0,0,144.31,49Zm-5.24-5a1,1,0,0,0,0,1.54.93.93,0,0,0,1.48,0,.94.94,0,0,0,0-1.54A.93.93,0,0,0,139.07,44Zm-1.85-2.75a1.12,1.12,0,0,0-.74.27.94.94,0,0,0,0,1.54A1.17,1.17,0,0,0,138,43a1,1,0,0,0,0-1.54A1.12,1.12,0,0,0,137.21,41.23ZM133.83,39a1,1,0,1,0,1.48,1.48.89.89,0,0,0,0-1.48A1,1,0,0,0,133.83,39Zm-2.59-2.49a.89.89,0,0,0,0,1.48,1,1,0,1,0,0-1.48ZM152.2,59a1,1,0,1,0,1.48,0A.93.93,0,0,0,152.2,59Zm-2.65-2.49a.93.93,0,0,0,0,1.48,1,1,0,0,0,1.54,0,.93.93,0,0,0,0-1.48A1,1,0,0,0,149.55,56.48ZM147,54a1,1,0,1,0,1.48,0A.93.93,0,0,0,147,54Zm-7.89-7.52a1,1,0,0,0,0,1.54.93.93,0,0,0,1.48,0,.94.94,0,0,0,0-1.54A.93.93,0,0,0,139.07,46.47Zm-1.85-2.75a1,1,0,0,0-.74.26,1,1,0,0,0,0,1.54,1.17,1.17,0,0,0,1.48,0A1,1,0,0,0,138,44,1.12,1.12,0,0,0,137.21,43.72Zm-3.39-2.22A1.07,1.07,0,1,0,135.31,43a.94.94,0,0,0,0-1.54A1,1,0,0,0,133.83,41.5ZM131.23,39a.89.89,0,0,0,0,1.48A1,1,0,0,0,132.71,39,1,1,0,0,0,131.23,39ZM165.7,74.48a.86.86,0,0,0,0,1.48.7.7,0,0,0,.74,0,.93.93,0,0,0,0-1.48A.7.7,0,0,0,165.7,74.48Zm-13.5-13a.93.93,0,0,0,0,1.48.89.89,0,0,0,1.48,0,.93.93,0,0,0,0-1.48A.89.89,0,0,0,152.2,61.46ZM139.07,49a.93.93,0,0,0,0,1.48,1,1,0,0,0,1.48,0,.89.89,0,0,0,0-1.48A.93.93,0,0,0,139.07,49ZM152.2,63.95a.93.93,0,0,0,0,1.48.89.89,0,0,0,1.48,0,1,1,0,1,0-1.48-1.48Zm13.5,15.89a.86.86,0,0,0,0,1.48.7.7,0,0,0,.74,0,.93.93,0,0,0,0-1.48A.7.7,0,0,0,165.7,79.83Zm-13.13-10.7a.78.78,0,0,0-.37.74.84.84,0,0,0,.37.79.91.91,0,0,0,.74,0,.81.81,0,0,0,.42-.79.76.76,0,0,0-.42-.74A.7.7,0,0,0,152.57,69.14Zm0,5.35a.93.93,0,0,0,0,1.48.71.71,0,0,0,.74,0,.7.7,0,0,0,.42-.74.76.76,0,0,0-.42-.74A.7.7,0,0,0,152.57,74.48Zm-13.13-10.7a.78.78,0,0,0-.37.74q0,.58.37.74a.8.8,0,0,0,.79,0q.37-.16.37-.74a.78.78,0,0,0-.37-.74A.8.8,0,0,0,139.44,63.79Zm13.13,16a.93.93,0,0,0,0,1.48.7.7,0,0,0,.74,0,.86.86,0,0,0,0-1.48A.7.7,0,0,0,152.57,79.83Zm-13.13-10.7a.93.93,0,0,0,0,1.48.8.8,0,0,0,.79,0c.25-.11.37-.35.37-.74a.78.78,0,0,0-.37-.74A.79.79,0,0,0,139.44,69.14Zm0,5.35a.93.93,0,0,0,0,1.48.8.8,0,0,0,.79,0,.93.93,0,0,0,0-1.48A.79.79,0,0,0,139.44,74.48Zm0,5.35a.93.93,0,0,0,0,1.48.8.8,0,0,0,.79,0,.93.93,0,0,0,0-1.48A.79.79,0,0,0,139.44,79.83Z"/><path class="cls-3" d="M188.79,38.35h2.27V36.14h-2.27Zm0,2.73h2.27V38.88h-2.27Zm0,2.73h2.27V41.61h-2.27Zm0,2.73h2.27V44.34h-2.27Zm0,2.73h2.27V47.07h-2.27Zm0,2.73h2.27V49.8h-2.27Zm0,2.73h2.27V52.53h-2.27Zm23.07-41h2.21V11.5h-2.21Zm0,2.73h2.21V14.23h-2.21Zm0,2.73h2.21V17h-2.21Zm0,2.73h2.21V19.7h-2.21ZM209,24.69h2.27V22.43H209Zm2.91,0h2.21V22.43h-2.21Zm2.91,0H217V22.43h-2.21ZM191.7,27.43h2.21V25.16H191.7Zm17.26,0h2.27V25.16H209Zm2.91,0h2.21V25.16h-2.21Zm2.91,0H217V25.16h-2.21Zm17.26,0h2.21V25.16H232ZM191.7,30.16h2.21V27.89H191.7Zm14.41,0h2.21V27.89h-2.21Zm2.85,0h2.27V27.89H209Zm2.91,0h2.21V27.89h-2.21Zm2.91,0H217V27.89h-2.21Zm2.85,0h2.21V27.89h-2.21Zm14.41,0h2.21V27.89H232ZM191.7,32.89h2.21V30.62H191.7Zm14.41,0h2.21V30.62h-2.21Zm2.85,0h2.27V30.62H209Zm2.91,0h2.21V30.62h-2.21Zm2.91,0H217V30.62h-2.21Zm2.85,0h2.21V30.62h-2.21Zm14.41,0h2.21V30.62H232ZM191.7,35.62h2.21V33.41H191.7Zm11.51,0h2.27V33.41h-2.27Zm5.75,0h2.27V33.41H209Zm2.91,0h2.21V33.41h-2.21Zm2.91,0H217V33.41h-2.21Zm5.75,0h2.21V33.41h-2.21Zm11.51,0h2.21V33.41H232ZM191.7,38.35h2.21V36.14H191.7Zm2.91,0h2.21V36.14H194.6Zm5.75,0h2.21V36.14h-2.21Zm2.85,0h2.27V36.14h-2.27Zm2.91,0h2.21V36.14h-2.21Zm5.75,0h2.21V36.14h-2.21Zm5.75,0h2.21V36.14h-2.21Zm2.91,0h2.21V36.14h-2.21Zm2.85,0h2.21V36.14h-2.21Zm5.75,0h2.27V36.14h-2.27Zm2.91,0h2.21V36.14H232Zm2.85,0h2.27V36.14h-2.27ZM191.7,41.08h2.21V38.88H191.7Zm2.91,0h2.21V38.88H194.6Zm2.85,0h2.21V38.88h-2.21Zm2.91,0h2.21V38.88h-2.21Zm2.85,0h2.27V38.88h-2.27Zm2.91,0h2.21V38.88h-2.21Zm2.85,0h2.27V38.88H209Zm5.81,0H217V38.88h-2.21Zm2.85,0h2.21V38.88h-2.21Zm2.91,0h2.21V38.88h-2.21Zm2.85,0h2.21V38.88h-2.21Zm2.91,0h2.21V38.88h-2.21Zm2.85,0h2.27V38.88h-2.27Zm2.91,0h2.21V38.88H232Zm2.85,0h2.27V38.88h-2.27ZM191.7,43.82h2.21V41.61H191.7Zm2.91,0h2.21V41.61H194.6Zm2.85,0h2.21V41.61h-2.21Zm2.91,0h2.21V41.61h-2.21Zm2.85,0h2.27V41.61h-2.27Zm2.91,0h2.21V41.61h-2.21Zm2.85,0h2.27V41.61H209Zm5.81,0H217V41.61h-2.21Zm2.85,0h2.21V41.61h-2.21Zm2.91,0h2.21V41.61h-2.21Zm2.85,0h2.21V41.61h-2.21Zm2.91,0h2.21V41.61h-2.21Zm2.85,0h2.27V41.61h-2.27Zm2.91,0h2.21V41.61H232Zm2.85,0h2.27V41.61h-2.27ZM191.7,46.55h2.21V44.34H191.7Zm2.91,0h2.21V44.34H194.6Zm2.85,0h2.21V44.34h-2.21Zm2.91,0h2.21V44.34h-2.21Zm2.85,0h2.27V44.34h-2.27Zm5.75,0h2.27V44.34H209Zm2.91,0h2.21V44.34h-2.21Zm2.91,0H217V44.34h-2.21Zm5.75,0h2.21V44.34h-2.21Zm2.85,0h2.21V44.34h-2.21Zm2.91,0h2.21V44.34h-2.21Zm2.85,0h2.27V44.34h-2.27Zm2.91,0h2.21V44.34H232Zm2.85,0h2.27V44.34h-2.27ZM191.7,49.28h2.21V47.07H191.7Zm2.91,0h2.21V47.07H194.6Zm5.75,0h2.21V47.07h-2.21Zm2.85,0h2.27V47.07h-2.27Zm5.75,0h2.27V47.07H209Zm2.91,0h2.21V47.07h-2.21Zm2.91,0H217V47.07h-2.21Zm5.75,0h2.21V47.07h-2.21Zm2.85,0h2.21V47.07h-2.21Zm5.75,0h2.27V47.07h-2.27Zm2.91,0h2.21V47.07H232Zm2.85,0h2.27V47.07h-2.27ZM194.6,52h2.21V49.8H194.6Zm8.6,0h2.27V49.8h-2.27Zm2.91,0h2.21V49.8h-2.21ZM209,52h2.27V49.8H209Zm2.91,0h2.21V49.8h-2.21Zm2.91,0H217V49.8h-2.21Zm2.85,0h2.21V49.8h-2.21Zm2.91,0h2.21V49.8h-2.21Zm8.6,0h2.27V49.8h-2.27Zm5.75,0h2.27V49.8h-2.27ZM191.7,54.74h2.21V52.53H191.7Zm2.91,0h2.21V52.53H194.6Zm8.6,0h2.27V52.53h-2.27Zm2.91,0h2.21V52.53h-2.21Zm2.85,0h2.27V52.53H209Zm2.91,0h2.21V52.53h-2.21Zm2.91,0H217V52.53h-2.21Zm2.85,0h2.21V52.53h-2.21Zm2.91,0h2.21V52.53h-2.21Zm8.6,0h2.27V52.53h-2.27Zm2.91,0h2.21V52.53H232Zm2.85,0h2.27V52.53h-2.27ZM191.7,57.48h2.21V55.27H191.7Zm14.41,0h2.21V55.27h-2.21Zm5.75,0h2.21V55.27h-2.21Zm5.75,0h2.21V55.27h-2.21Zm14.41,0h2.21V55.27H232ZM192.1,81.42h1.39V79.15H192.1Zm40.34,0h1.39V79.15h-1.39ZM192.1,76h1.39V73.75H192.1Zm40.34,0h1.39V73.75h-1.39Zm-20.17,5.46h1.39V79.21h-1.39ZM192.1,70.49h1.39V68.29H192.1Zm40.34,0h1.39V68.29h-1.39ZM212.27,76h1.39V73.81h-1.39ZM191.7,60.21h2.21V58H191.7Zm14.41,0h2.21V58h-2.21Zm2.85,0h2.27V58H209Zm2.91,0h2.21V58h-2.21Zm2.91,0H217V58h-2.21Zm2.85,0h2.21V58h-2.21Zm14.41,0h2.21V58H232ZM209,63h2.27V60.73H209Zm2.91,0h2.21V60.73h-2.21Zm2.91,0H217V60.73h-2.21Zm-2.91,2.73h2.21V63.46h-2.21Zm0,2.73h2.21V66.19h-2.21Z"/><path class="cls-2" d="M364.24,32.27A7.37,7.37,0,0,0,358,29.16a6.55,6.55,0,0,0-5.69,2.74,11.67,11.67,0,0,0-2,6.95,11.61,11.61,0,0,0,2,6.93A6.54,6.54,0,0,0,358,48.54a7.64,7.64,0,0,0,3.67-.91,7.76,7.76,0,0,0,2.76-2.45l3.47,3.18a10.87,10.87,0,0,1-4.22,3.53A12.83,12.83,0,0,1,358,53.14a12,12,0,0,1-7-2.07,12.51,12.51,0,0,1-4.41-5.26,17,17,0,0,1-1.43-7,16.63,16.63,0,0,1,1.46-7A12.46,12.46,0,0,1,351,26.6a12,12,0,0,1,6.91-2,13.07,13.07,0,0,1,5.61,1.21,11.06,11.06,0,0,1,4.26,3.47Z"/><path class="cls-2" d="M391.49,50.17a10.59,10.59,0,0,1-14.88,0A11.15,11.15,0,0,1,374,42.65a11,11,0,0,1,2.61-7.42q2.61-3,7.48-3a9.22,9.22,0,0,1,7.4,3.05,11.1,11.1,0,0,1,2.61,7.48A11,11,0,0,1,391.49,50.17Zm-3.64-11.88a4.37,4.37,0,0,0-3.73-1.77,4.52,4.52,0,0,0-3.87,1.77,7.19,7.19,0,0,0-1.32,4.41A7.15,7.15,0,0,0,380.25,47a4.47,4.47,0,0,0,3.84,1.79A4.38,4.38,0,0,0,387.85,47a7.29,7.29,0,0,0,1.32-4.41A7.06,7.06,0,0,0,387.85,38.28Z"/><path class="cls-2" d="M425.86,34.37a7,7,0,0,1,2.69,5.69V52.93h-4.72V41.3A4.61,4.61,0,0,0,422.66,38a4.07,4.07,0,0,0-3.11-1.24,7.2,7.2,0,0,0-2.89.58,9.65,9.65,0,0,1,.69,3.58v12h-4.72V41.3A4.61,4.61,0,0,0,411.47,38a4.07,4.07,0,0,0-3.11-1.24,6,6,0,0,0-2.23.4V52.93h-4.72V34.13q.37-.15,1.19-.53t1.28-.57q.46-.18,1.22-.42a8.54,8.54,0,0,1,1.63-.33,17.85,17.85,0,0,1,1.88-.09,8.9,8.9,0,0,1,4.79,1.32,15.25,15.25,0,0,1,6.4-1.32A9.37,9.37,0,0,1,425.86,34.37Z"/><path class="cls-2" d="M452.38,35.25a11.15,11.15,0,0,1,2.6,7.48,11,11,0,0,1-2.61,7.44,9.22,9.22,0,0,1-7.4,3.05,18.75,18.75,0,0,1-4-.48v8.08l-4.72.33v-27A23.53,23.53,0,0,1,445,32.2,9.2,9.2,0,0,1,452.38,35.25ZM448.67,47A7.08,7.08,0,0,0,450,42.62a6.81,6.81,0,0,0-1.37-4.3,4.55,4.55,0,0,0-3.82-1.77,8.48,8.48,0,0,0-3.91.91v10.6a10.55,10.55,0,0,0,3.91.77A4.52,4.52,0,0,0,448.67,47Z"/><path class="cls-2" d="M475.72,33.27a8,8,0,0,1,3,2.85,12.94,12.94,0,0,1,1.55,3.82,13.28,13.28,0,0,1,.29,4.17H466.13a6.29,6.29,0,0,0,1.77,3.51A5,5,0,0,0,471.57,49a10.06,10.06,0,0,0,4.53-1.13l2.3,3.44a11.73,11.73,0,0,1-7,1.94q-5,0-7.6-3.07a11.17,11.17,0,0,1-2.63-7.53,11,11,0,0,1,2.6-7.42q2.6-3,7.5-3A8.91,8.91,0,0,1,475.72,33.27Zm-.06,7.44a5,5,0,0,0-.4-1.63,4.42,4.42,0,0,0-1.5-1.75,5,5,0,0,0-6,.29,5.82,5.82,0,0,0-1.59,3.09Zm-7.09-10.49,4-3.8h4.75L472,30.22Z"/><path class="cls-2" d="M498.15,48.36v4q0,.18-.91.37a7.55,7.55,0,0,1-1.5.18,9,9,0,0,1-5.7-1.81,6.44,6.44,0,0,1-2.3-5.39V28.17l4.72-.33v4.61h5.19l-.29,3.88h-4.9v8.56a3.74,3.74,0,0,0,.93,2.76,3.43,3.43,0,0,0,2.54.93A6.6,6.6,0,0,0,498.15,48.36Z"/><path class="cls-2" d="M518.9,33.27a8,8,0,0,1,3,2.85,12.94,12.94,0,0,1,1.55,3.82,13.28,13.28,0,0,1,.29,4.17H509.3a6.29,6.29,0,0,0,1.77,3.51A5,5,0,0,0,514.75,49a10.06,10.06,0,0,0,4.53-1.13l2.3,3.44a11.73,11.73,0,0,1-7,1.94q-5,0-7.6-3.07a11.17,11.17,0,0,1-2.63-7.53,11,11,0,0,1,2.6-7.42q2.6-3,7.49-3A8.91,8.91,0,0,1,518.9,33.27Zm-.05,7.44a5,5,0,0,0-.4-1.63,4.42,4.42,0,0,0-1.5-1.75,5,5,0,0,0-6,.29,5.82,5.82,0,0,0-1.59,3.09Z"/><path class="cls-2" d="M545.74,34.37a6.87,6.87,0,0,1,2.8,5.69V52.93h-4.72V41.3a4.29,4.29,0,0,0-4.5-4.53,13.7,13.7,0,0,0-3.69.62V52.93h-4.72V34.13a23.39,23.39,0,0,1,8.66-1.94A9.81,9.81,0,0,1,545.74,34.37Z"/><path class="cls-2" d="M567,48.36v4q0,.18-.91.37a7.56,7.56,0,0,1-1.5.18,9,9,0,0,1-5.7-1.81,6.44,6.44,0,0,1-2.3-5.39V28.17l4.72-.33v4.61h5.19l-.29,3.88h-4.9v8.56a3.75,3.75,0,0,0,.93,2.76,3.44,3.44,0,0,0,2.54.93A6.6,6.6,0,0,0,567,48.36Z"/><path class="cls-2" d="M585.57,36.8a11.91,11.91,0,0,0-3.73-.77q-3.11,0-3.11,2.23,0,1.43,3.36,2.6,5.59,1.94,5.59,6.33a5,5,0,0,1-2.18,4.31,8.66,8.66,0,0,1-5.21,1.57,14.59,14.59,0,0,1-3.34-.44,7.55,7.55,0,0,1-2.72-1.1L575.62,48a8.31,8.31,0,0,0,4.68,1.13,5.27,5.27,0,0,0,2.38-.49,1.66,1.66,0,0,0,1-1.59,2,2,0,0,0-.88-1.65,13.33,13.33,0,0,0-3.4-1.5q-4.68-1.54-4.68-5.63a6.57,6.57,0,0,1,.64-3,4.33,4.33,0,0,1,1.75-1.86,8.33,8.33,0,0,1,2.28-.88,11.81,11.81,0,0,1,2.52-.26,13.89,13.89,0,0,1,4.94,1Z"/></g></g></svg>